STARTFONT 2.1
COMMENT
COMMENT Converted from OpenType font "Montserrat-Medium.otf" by "otf2bdf 3.0".
COMMENT
FONT -FreeType-Montserrat Medium-Medium-R-Normal--22-80-200-200-P-124-ISO10646-1
SIZE 8 200 200
FONTBOUNDINGBOX 55 30 -19 -6
STARTPROPERTIES 19
FOUNDRY "FreeType"
FAMILY_NAME "Montserrat Medium"
WEIGHT_NAME "Medium"
SLANT "R"
SETWIDTH_NAME "Normal"
ADD_STYLE_NAME ""
PIXEL_SIZE 22
POINT_SIZE 80
RESOLUTION_X 200
RESOLUTION_Y 200
SPACING "P"
AVERAGE_WIDTH 124
CHARSET_REGISTRY "ISO10646"
CHARSET_ENCODING "1"
FONT_ASCENT 21
FONT_DESCENT 5
COPYRIGHT "Copyright 2011 The Montserrat Project Authors (https://github.com/JulietaUla/Montserrat)"
_OTF_FONTFILE "Montserrat-Medium.otf"
_OTF_PSNAME "Montserrat-Medium"
ENDPROPERTIES
CHARS 969
STARTCHAR 0000
ENCODING 0
SWIDTH 0 0
DWIDTH 0 0
BBX 0 0 0 0
BITMAP
ENDCHAR
STARTCHAR 000D
ENCODING 13
SWIDTH 270 0
DWIDTH 6 0
BBX 0 0 0 0
BITMAP
ENDCHAR
STARTCHAR 0020
ENCODING 32
SWIDTH 270 0
DWIDTH 6 0
BBX 0 0 0 0
BITMAP
ENDCHAR
STARTCHAR 0021
ENCODING 33
SWIDTH 270 0
DWIDTH 6 0
BBX 2 16 2 0
BITMAP
C0
C0
C0
C0
C0
C0
C0
C0
C0
C0
C0
00
00
C0
C0
C0
ENDCHAR
STARTCHAR 0022
ENCODING 34
SWIDTH 405 0
DWIDTH 9 0
BBX 6 6 1 10
BITMAP
CC
CC
CC
CC
C4
44
ENDCHAR
STARTCHAR 0023
ENCODING 35
SWIDTH 720 0
DWIDTH 16 0
BBX 14 16 1 0
BITMAP
0C20
0820
0820
0860
FFFC
FFFC
1860
1860
1840
1840
FFF8
FFF8
10C0
30C0
30C0
30C0
ENDCHAR
STARTCHAR 0024
ENCODING 36
SWIDTH 630 0
DWIDTH 14 0
BBX 12 22 1 -3
BITMAP
0600
0600
0600
1F80
3FE0
7660
E600
C600
E600
7600
3F00
0FC0
07E0
0670
0630
0630
E660
FFE0
1F80
0600
0600
0600
ENDCHAR
STARTCHAR 0025
ENCODING 37
SWIDTH 855 0
DWIDTH 19 0
BBX 17 16 1 0
BITMAP
380C00
4C0C00
C61800
823000
823000
866000
C4C000
7CC000
019F00
013100
032180
062180
042180
0C2180
183300
101E00
ENDCHAR
STARTCHAR 0026
ENCODING 38
SWIDTH 675 0
DWIDTH 15 0
BBX 14 16 1 0
BITMAP
0F00
1F80
30C0
30C0
30C0
3980
1F00
1E00
3F10
6398
C1D8
C0F0
C070
E0F8
7FDC
1F08
ENDCHAR
STARTCHAR 0027
ENCODING 39
SWIDTH 225 0
DWIDTH 5 0
BBX 2 6 1 10
BITMAP
C0
C0
C0
C0
C0
40
ENDCHAR
STARTCHAR 0028
ENCODING 40
SWIDTH 315 0
DWIDTH 7 0
BBX 5 22 2 -5
BITMAP
38
30
30
60
60
60
E0
C0
C0
C0
C0
C0
C0
C0
C0
E0
60
60
60
30
30
38
ENDCHAR
STARTCHAR 0029
ENCODING 41
SWIDTH 360 0
DWIDTH 8 0
BBX 4 22 1 -5
BITMAP
C0
E0
60
60
70
30
30
30
30
30
30
30
30
30
30
30
30
70
60
60
E0
C0
ENDCHAR
STARTCHAR 002A
ENCODING 42
SWIDTH 405 0
DWIDTH 9 0
BBX 7 8 1 9
BITMAP
10
10
D6
7C
78
DE
92
10
ENDCHAR
STARTCHAR 002B
ENCODING 43
SWIDTH 585 0
DWIDTH 13 0
BBX 10 10 1 3
BITMAP
0400
0400
0400
0400
FFC0
FFC0
0400
0400
0400
0400
ENDCHAR
STARTCHAR 002C
ENCODING 44
SWIDTH 225 0
DWIDTH 5 0
BBX 3 6 1 -3
BITMAP
E0
E0
E0
40
40
C0
ENDCHAR
STARTCHAR 002D
ENCODING 45
SWIDTH 405 0
DWIDTH 9 0
BBX 6 2 1 5
BITMAP
FC
FC
ENDCHAR
STARTCHAR 002E
ENCODING 46
SWIDTH 225 0
DWIDTH 5 0
BBX 3 3 1 0
BITMAP
E0
E0
E0
ENDCHAR
STARTCHAR 002F
ENCODING 47
SWIDTH 360 0
DWIDTH 8 0
BBX 8 21 0 -2
BITMAP
01
03
03
02
06
06
0C
0C
0C
18
18
18
30
30
30
60
60
60
C0
C0
80
ENDCHAR
STARTCHAR 0030
ENCODING 48
SWIDTH 675 0
DWIDTH 15 0
BBX 13 16 1 0
BITMAP
0F80
3FC0
30E0
6070
6030
E038
C038
C018
C018
C038
E038
6030
6070
30E0
3FC0
0F80
ENDCHAR
STARTCHAR 0031
ENCODING 49
SWIDTH 360 0
DWIDTH 8 0
BBX 6 16 0 0
BITMAP
FC
FC
0C
0C
0C
0C
0C
0C
0C
0C
0C
0C
0C
0C
0C
0C
ENDCHAR
STARTCHAR 0032
ENCODING 50
SWIDTH 585 0
DWIDTH 13 0
BBX 12 16 0 0
BITMAP
1F80
7FC0
E0E0
0060
0060
0060
0060
00C0
01C0
0380
0700
0E00
1C00
3800
7FF0
7FF0
ENDCHAR
STARTCHAR 0033
ENCODING 51
SWIDTH 585 0
DWIDTH 13 0
BBX 12 16 0 0
BITMAP
7FE0
7FE0
00C0
01C0
0380
0300
0600
0F80
0FE0
0060
0070
0070
0070
E0E0
7FC0
1F80
ENDCHAR
STARTCHAR 0034
ENCODING 52
SWIDTH 675 0
DWIDTH 15 0
BBX 14 16 1 0
BITMAP
01C0
0180
0300
0700
0E00
0C00
1800
3860
7060
6060
FFFC
FFFC
00E0
00E0
00E0
00E0
ENDCHAR
STARTCHAR 0035
ENCODING 53
SWIDTH 585 0
DWIDTH 13 0
BBX 11 16 1 0
BITMAP
7FC0
7FC0
6000
6000
6000
6000
7F00
7FC0
01C0
00E0
0060
0060
80E0
C1C0
FFC0
3F00
ENDCHAR
STARTCHAR 0036
ENCODING 54
SWIDTH 630 0
DWIDTH 14 0
BBX 12 16 1 0
BITMAP
0FC0
1FE0
3820
7000
6000
E000
C780
DFE0
F0E0
E030
E030
6030
6030
7060
3FE0
0F80
ENDCHAR
STARTCHAR 0037
ENCODING 55
SWIDTH 585 0
DWIDTH 13 0
BBX 11 16 1 0
BITMAP
FFE0
FFE0
C060
C0E0
C0C0
01C0
0180
0380
0300
0300
0600
0600
0E00
0C00
1C00
1800
ENDCHAR
STARTCHAR 0038
ENCODING 56
SWIDTH 630 0
DWIDTH 14 0
BBX 12 16 1 0
BITMAP
1F80
3FE0
7060
6070
6030
6070
70E0
3FC0
7FE0
E070
C030
C030
C030
E070
7FE0
1F80
ENDCHAR
STARTCHAR 0039
ENCODING 57
SWIDTH 630 0
DWIDTH 14 0
BBX 12 16 1 0
BITMAP
1F00
7F80
E0C0
C060
C060
C060
C0F0
E1F0
7FF0
1E70
0060
0060
00E0
01C0
7F80
7E00
ENDCHAR
STARTCHAR 003A
ENCODING 58
SWIDTH 225 0
DWIDTH 5 0
BBX 3 12 1 0
BITMAP
E0
E0
E0
00
00
00
00
00
00
E0
E0
E0
ENDCHAR
STARTCHAR 003B
ENCODING 59
SWIDTH 225 0
DWIDTH 5 0
BBX 3 15 1 -3
BITMAP
E0
E0
E0
00
00
00
00
00
00
E0
E0
E0
40
40
C0
ENDCHAR
STARTCHAR 003C
ENCODING 60
SWIDTH 585 0
DWIDTH 13 0
BBX 10 9 1 3
BITMAP
0040
01C0
0F80
3C00
F000
F000
3E00
0780
01C0
ENDCHAR
STARTCHAR 003D
ENCODING 61
SWIDTH 585 0
DWIDTH 13 0
BBX 10 7 1 4
BITMAP
FFC0
FFC0
0000
0000
0000
FFC0
FFC0
ENDCHAR
STARTCHAR 003E
ENCODING 62
SWIDTH 585 0
DWIDTH 13 0
BBX 10 10 1 3
BITMAP
C000
F000
3E00
0780
01C0
01C0
0F80
3C00
F000
8000
ENDCHAR
STARTCHAR 003F
ENCODING 63
SWIDTH 585 0
DWIDTH 13 0
BBX 11 16 0 0
BITMAP
1F80
7FC0
E0E0
0060
0060
0060
00C0
01C0
0300
0700
0600
0000
0000
0600
0700
0600
ENDCHAR
STARTCHAR 0040
ENCODING 64
SWIDTH 1035 0
DWIDTH 23 0
BBX 21 21 1 -5
BITMAP
01FC00
07DF00
1C01C0
300060
207330
61FF30
430F10
C60718
C60318
C60318
C60318
C60318
C60318
430710
63FFF0
60F1E0
300000
180000
0C0200
07DE00
01FC00
ENDCHAR
STARTCHAR 0041
ENCODING 65
SWIDTH 720 0
DWIDTH 16 0
BBX 16 16 0 0
BITMAP
0180
03C0
03C0
0760
0660
0670
0C30
0C38
1818
1818
3FFC
3FFC
300E
6006
6007
C003
ENDCHAR
STARTCHAR 0042
ENCODING 66
SWIDTH 765 0
DWIDTH 17 0
BBX 14 16 2 0
BITMAP
FFC0
FFF0
E038
E018
E018
E038
E070
FFE0
FFF0
E018
E01C
E01C
E01C
E018
FFF8
FFE0
ENDCHAR
STARTCHAR 0043
ENCODING 67
SWIDTH 720 0
DWIDTH 16 0
BBX 14 16 1 0
BITMAP
07E0
1FF8
3C1C
7008
6000
E000
C000
C000
C000
C000
E000
6000
7008
3C1C
1FF8
07E0
ENDCHAR
STARTCHAR 0044
ENCODING 68
SWIDTH 810 0
DWIDTH 18 0
BBX 15 16 2 0
BITMAP
FFC0
FFF0
E038
E01C
E00E
E006
E006
E006
E006
E006
E006
E00E
E01C
E038
FFF0
FFC0
ENDCHAR
STARTCHAR 0045
ENCODING 69
SWIDTH 675 0
DWIDTH 15 0
BBX 12 16 2 0
BITMAP
FFE0
FFE0
E000
E000
E000
E000
E000
FFC0
FFC0
E000
E000
E000
E000
E000
FFF0
FFF0
ENDCHAR
STARTCHAR 0046
ENCODING 70
SWIDTH 630 0
DWIDTH 14 0
BBX 11 16 2 0
BITMAP
FFE0
FFE0
E000
E000
E000
E000
E000
E000
FFC0
FFC0
E000
E000
E000
E000
E000
E000
ENDCHAR
STARTCHAR 0047
ENCODING 71
SWIDTH 765 0
DWIDTH 17 0
BBX 14 16 1 0
BITMAP
07F0
1FFC
3C1C
7000
6000
E000
C000
C000
C00C
C00C
E00C
600C
700C
3C1C
1FFC
07F0
ENDCHAR
STARTCHAR 0048
ENCODING 72
SWIDTH 810 0
DWIDTH 18 0
BBX 14 16 2 0
BITMAP
E01C
E01C
E01C
E01C
E01C
E01C
E01C
FFFC
FFFC
E01C
E01C
E01C
E01C
E01C
E01C
E01C
ENDCHAR
STARTCHAR 0049
ENCODING 73
SWIDTH 315 0
DWIDTH 7 0
BBX 3 16 2 0
BITMAP
E0
E0
E0
E0
E0
E0
E0
E0
E0
E0
E0
E0
E0
E0
E0
E0
ENDCHAR
STARTCHAR 004A
ENCODING 74
SWIDTH 495 0
DWIDTH 11 0
BBX 9 16 0 0
BITMAP
7F80
7F80
0180
0180
0180
0180
0180
0180
0180
0180
0180
0180
0180
C380
FF00
3E00
ENDCHAR
STARTCHAR 004B
ENCODING 75
SWIDTH 720 0
DWIDTH 16 0
BBX 14 16 2 0
BITMAP
E018
E030
E060
E0C0
E180
E300
E700
EE00
FF00
FB80
F1C0
E0C0
E0E0
E070
E038
E01C
ENDCHAR
STARTCHAR 004C
ENCODING 76
SWIDTH 585 0
DWIDTH 13 0
BBX 11 16 2 0
BITMAP
E000
E000
E000
E000
E000
E000
E000
E000
E000
E000
E000
E000
E000
E000
FFE0
FFE0
ENDCHAR
STARTCHAR 004D
ENCODING 77
SWIDTH 945 0
DWIDTH 21 0
BBX 17 16 2 0
BITMAP
C00180
E00380
F00380
F00780
F80F80
D80D80
CC1980
CC1980
C63180
C73180
C36180
C1E180
C1C180
C08180
C00180
C00180
ENDCHAR
STARTCHAR 004E
ENCODING 78
SWIDTH 810 0
DWIDTH 18 0
BBX 14 16 2 0
BITMAP
E01C
E01C
F01C
F81C
FC1C
EC1C
EE1C
E71C
E39C
E1DC
E0DC
E0FC
E07C
E03C
E01C
E01C
ENDCHAR
STARTCHAR 004F
ENCODING 79
SWIDTH 855 0
DWIDTH 19 0
BBX 17 16 1 0
BITMAP
07E000
1FF800
3C1C00
700E00
600700
E00300
C00300
C00380
C00380
C00300
E00300
600700
700E00
3C1C00
1FF800
07E000
ENDCHAR
STARTCHAR 0050
ENCODING 80
SWIDTH 720 0
DWIDTH 16 0
BBX 13 16 2 0
BITMAP
FF80
FFE0
E070
E038
E018
E018
E018
E038
E070
FFE0
FF80
E000
E000
E000
E000
E000
ENDCHAR
STARTCHAR 0051
ENCODING 81
SWIDTH 855 0
DWIDTH 19 0
BBX 17 19 1 -3
BITMAP
07E000
1FF800
3C1C00
700E00
600700
E00300
C00300
C00380
C00380
C00300
E00300
600700
700E00
3C1C00
1FF800
07E000
00E080
007F80
001F00
ENDCHAR
STARTCHAR 0052
ENCODING 82
SWIDTH 720 0
DWIDTH 16 0
BBX 13 16 2 0
BITMAP
FF80
FFE0
E070
E038
E018
E018
E018
E038
E070
FFE0
FF80
E0C0
E0E0
E060
E030
E038
ENDCHAR
STARTCHAR 0053
ENCODING 83
SWIDTH 630 0
DWIDTH 14 0
BBX 12 16 1 0
BITMAP
1F80
3FE0
7060
E000
C000
E000
7000
3F00
0FC0
00E0
0070
0030
0030
E060
FFE0
1F80
ENDCHAR
STARTCHAR 0054
ENCODING 84
SWIDTH 585 0
DWIDTH 13 0
BBX 13 16 0 0
BITMAP
FFF8
FFF8
0700
0700
0700
0700
0700
0700
0700
0700
0700
0700
0700
0700
0700
0700
ENDCHAR
STARTCHAR 0055
ENCODING 85
SWIDTH 810 0
DWIDTH 18 0
BBX 13 16 2 0
BITMAP
C018
C018
C018
C018
C018
C018
C018
C018
C018
C018
E018
E018
6038
7070
3FE0
0FC0
ENDCHAR
STARTCHAR 0056
ENCODING 86
SWIDTH 720 0
DWIDTH 16 0
BBX 16 16 0 0
BITMAP
E007
6006
6006
700C
300C
3818
1818
1C38
0C30
0C30
0E60
0660
07E0
03C0
03C0
0180
ENDCHAR
STARTCHAR 0057
ENCODING 87
SWIDTH 1125 0
DWIDTH 25 0
BBX 23 16 1 0
BITMAP
C03806
C03806
60380C
606C0C
606C0C
706C1C
30C618
30C618
38C638
198330
198330
1D8370
0F01E0
0F01E0
0F01E0
0600C0
ENDCHAR
STARTCHAR 0058
ENCODING 88
SWIDTH 675 0
DWIDTH 15 0
BBX 13 16 1 0
BITMAP
E038
6030
7060
38E0
18C0
0D80
0F80
0700
0700
0D80
1DC0
38C0
3060
7070
E038
C018
ENDCHAR
STARTCHAR 0059
ENCODING 89
SWIDTH 630 0
DWIDTH 14 0
BBX 14 16 0 0
BITMAP
E00C
601C
7018
3030
1830
1C60
0CE0
0EC0
0780
0380
0300
0300
0300
0300
0300
0300
ENDCHAR
STARTCHAR 005A
ENCODING 90
SWIDTH 675 0
DWIDTH 15 0
BBX 13 16 1 0
BITMAP
FFF8
FFF8
0070
0060
00C0
01C0
0380
0700
0600
0C00
1C00
3800
3000
6000
FFF8
FFF8
ENDCHAR
STARTCHAR 005B
ENCODING 91
SWIDTH 315 0
DWIDTH 7 0
BBX 5 22 2 -5
BITMAP
F8
F8
C0
C0
C0
C0
C0
C0
C0
C0
C0
C0
C0
C0
C0
C0
C0
C0
C0
C0
F8
F8
ENDCHAR
STARTCHAR 005C
ENCODING 92
SWIDTH 360 0
DWIDTH 8 0
BBX 9 21 -1 -2
BITMAP
C000
6000
6000
6000
3000
3000
3000
1800
1800
1800
0C00
0C00
0400
0600
0600
0200
0300
0300
0180
0180
0180
ENDCHAR
STARTCHAR 005D
ENCODING 93
SWIDTH 315 0
DWIDTH 7 0
BBX 5 22 0 -5
BITMAP
F8
F8
18
18
18
18
18
18
18
18
18
18
18
18
18
18
18
18
18
18
F8
F8
ENDCHAR
STARTCHAR 005E
ENCODING 94
SWIDTH 585 0
DWIDTH 13 0
BBX 9 9 2 3
BITMAP
1C00
1C00
3600
3600
2200
6300
4100
C180
C180
ENDCHAR
STARTCHAR 005F
ENCODING 95
SWIDTH 495 0
DWIDTH 11 0
BBX 11 1 0 -1
BITMAP
FFE0
ENDCHAR
STARTCHAR 0060
ENCODING 96
SWIDTH 585 0
DWIDTH 13 0
BBX 5 3 3 13
BITMAP
E0
30
18
ENDCHAR
STARTCHAR 0061
ENCODING 97
SWIDTH 585 0
DWIDTH 13 0
BBX 10 12 1 0
BITMAP
3F00
FF80
41C0
00C0
00C0
3FC0
7FC0
C0C0
C0C0
E1C0
7FC0
3EC0
ENDCHAR
STARTCHAR 0062
ENCODING 98
SWIDTH 675 0
DWIDTH 15 0
BBX 12 17 2 0
BITMAP
C000
C000
C000
C000
C000
CF80
FFC0
F0E0
E070
C030
C030
C030
C030
E070
F0E0
FFC0
CF80
ENDCHAR
STARTCHAR 0063
ENCODING 99
SWIDTH 585 0
DWIDTH 13 0
BBX 11 12 1 0
BITMAP
0F80
3FC0
70E0
E000
C000
C000
C000
C000
E000
70E0
3FC0
0F80
ENDCHAR
STARTCHAR 0064
ENCODING 100
SWIDTH 675 0
DWIDTH 15 0
BBX 12 17 1 0
BITMAP
0030
0030
0030
0030
0030
1F30
3FF0
70F0
E070
C030
C030
C030
C030
E070
70F0
3FF0
1F30
ENDCHAR
STARTCHAR 0065
ENCODING 101
SWIDTH 630 0
DWIDTH 14 0
BBX 12 12 1 0
BITMAP
1F00
3FC0
70E0
E060
C030
FFF0
FFF0
C000
E000
7040
3FE0
0F80
ENDCHAR
STARTCHAR 0066
ENCODING 102
SWIDTH 360 0
DWIDTH 8 0
BBX 8 17 0 0
BITMAP
0F
1F
18
30
30
FF
FF
30
30
30
30
30
30
30
30
30
30
ENDCHAR
STARTCHAR 0067
ENCODING 103
SWIDTH 675 0
DWIDTH 15 0
BBX 12 17 1 -5
BITMAP
1F30
3FF0
70F0
E070
C030
C030
C030
C030
E070
70F0
3FF0
0F30
0030
0030
6060
7FE0
1F80
ENDCHAR
STARTCHAR 0068
ENCODING 104
SWIDTH 675 0
DWIDTH 15 0
BBX 11 17 2 0
BITMAP
C000
C000
C000
C000
C000
CF80
FFC0
F0E0
E060
C060
C060
C060
C060
C060
C060
C060
C060
ENDCHAR
STARTCHAR 0069
ENCODING 105
SWIDTH 270 0
DWIDTH 6 0
BBX 3 17 2 0
BITMAP
C0
E0
C0
00
00
C0
C0
C0
C0
C0
C0
C0
C0
C0
C0
C0
C0
ENDCHAR
STARTCHAR 006A
ENCODING 106
SWIDTH 270 0
DWIDTH 6 0
BBX 7 22 -2 -5
BITMAP
0C
0E
0C
00
00
0C
0C
0C
0C
0C
0C
0C
0C
0C
0C
0C
0C
0C
0C
0C
FC
F8
ENDCHAR
STARTCHAR 006B
ENCODING 107
SWIDTH 630 0
DWIDTH 14 0
BBX 11 17 2 0
BITMAP
C000
C000
C000
C000
C000
C0E0
C1C0
C380
C700
CE00
DE00
FE00
E700
C380
C1C0
C0C0
C060
ENDCHAR
STARTCHAR 006C
ENCODING 108
SWIDTH 270 0
DWIDTH 6 0
BBX 2 17 2 0
BITMAP
C0
C0
C0
C0
C0
C0
C0
C0
C0
C0
C0
C0
C0
C0
C0
C0
C0
ENDCHAR
STARTCHAR 006D
ENCODING 109
SWIDTH 1035 0
DWIDTH 23 0
BBX 20 12 2 0
BITMAP
CF0F80
FFDFC0
F0F0E0
E0E060
C06070
C06070
C06070
C06070
C06070
C06070
C06070
C06070
ENDCHAR
STARTCHAR 006E
ENCODING 110
SWIDTH 675 0
DWIDTH 15 0
BBX 11 12 2 0
BITMAP
CF80
FFC0
F0E0
E060
C060
C060
C060
C060
C060
C060
C060
C060
ENDCHAR
STARTCHAR 006F
ENCODING 111
SWIDTH 630 0
DWIDTH 14 0
BBX 12 12 1 0
BITMAP
1F80
3FC0
70E0
E070
C030
C030
C030
C030
E070
70E0
3FC0
1F80
ENDCHAR
STARTCHAR 0070
ENCODING 112
SWIDTH 675 0
DWIDTH 15 0
BBX 12 17 2 -5
BITMAP
CF80
FFC0
F0E0
E070
C030
C030
C030
C030
E070
F0E0
FFC0
CF80
C000
C000
C000
C000
C000
ENDCHAR
STARTCHAR 0071
ENCODING 113
SWIDTH 675 0
DWIDTH 15 0
BBX 12 17 1 -5
BITMAP
1F30
3FF0
70F0
E070
C030
C030
C030
C030
E070
70F0
3FF0
1F30
0030
0030
0030
0030
0030
ENDCHAR
STARTCHAR 0072
ENCODING 114
SWIDTH 405 0
DWIDTH 9 0
BBX 6 12 2 0
BITMAP
CC
FC
F0
E0
C0
C0
C0
C0
C0
C0
C0
C0
ENDCHAR
STARTCHAR 0073
ENCODING 115
SWIDTH 495 0
DWIDTH 11 0
BBX 9 12 1 0
BITMAP
3F00
7F80
C000
C000
E000
7C00
3F80
0380
0180
8180
FF80
7E00
ENDCHAR
STARTCHAR 0074
ENCODING 116
SWIDTH 405 0
DWIDTH 9 0
BBX 8 15 0 0
BITMAP
30
30
30
FF
FF
30
30
30
30
30
30
30
38
1F
0F
ENDCHAR
STARTCHAR 0075
ENCODING 117
SWIDTH 675 0
DWIDTH 15 0
BBX 11 12 2 0
BITMAP
C060
C060
C060
C060
C060
C060
C060
C060
C0E0
E1E0
7FE0
3E60
ENDCHAR
STARTCHAR 0076
ENCODING 118
SWIDTH 540 0
DWIDTH 12 0
BBX 12 12 0 0
BITMAP
C030
6030
6060
7060
30E0
30C0
18C0
1980
0D80
0F00
0F00
0600
ENDCHAR
STARTCHAR 0077
ENCODING 119
SWIDTH 900 0
DWIDTH 20 0
BBX 20 12 0 0
BITMAP
C06030
606060
60F060
60F060
3198C0
3198C0
319880
1B0D80
1B0D80
0E0F00
0E0700
0E0700
ENDCHAR
STARTCHAR 0078
ENCODING 120
SWIDTH 540 0
DWIDTH 12 0
BBX 11 12 1 0
BITMAP
C0C0
61C0
7180
3B00
1E00
0E00
1E00
1E00
3300
7180
E1C0
C0E0
ENDCHAR
STARTCHAR 0079
ENCODING 121
SWIDTH 540 0
DWIDTH 12 0
BBX 12 17 0 -5
BITMAP
C030
6030
6060
7060
3060
30C0
18C0
1980
0D80
0F00
0F00
0700
0600
0600
8C00
FC00
F800
ENDCHAR
STARTCHAR 007A
ENCODING 122
SWIDTH 540 0
DWIDTH 12 0
BBX 10 12 1 0
BITMAP
FFC0
FF80
0380
0700
0600
0C00
1C00
3800
3000
6000
FFC0
FFC0
ENDCHAR
STARTCHAR 007B
ENCODING 123
SWIDTH 360 0
DWIDTH 8 0
BBX 6 22 1 -5
BITMAP
1C
3C
30
30
30
30
30
30
30
30
F0
F0
30
30
30
30
30
30
30
30
3C
1C
ENDCHAR
STARTCHAR 007C
ENCODING 124
SWIDTH 315 0
DWIDTH 7 0
BBX 2 22 2 -5
BITMAP
C0
C0
C0
C0
C0
C0
C0
C0
C0
C0
C0
C0
C0
C0
C0
C0
C0
C0
C0
C0
C0
C0
ENDCHAR
STARTCHAR 007D
ENCODING 125
SWIDTH 360 0
DWIDTH 8 0
BBX 7 22 0 -5
BITMAP
E0
F0
38
18
18
18
18
18
18
18
1E
1E
18
18
18
18
18
18
18
38
F0
E0
ENDCHAR
STARTCHAR 007E
ENCODING 126
SWIDTH 585 0
DWIDTH 13 0
BBX 11 4 1 6
BITMAP
3860
7C60
C7C0
C380
ENDCHAR
STARTCHAR 00A0
ENCODING 160
SWIDTH 270 0
DWIDTH 6 0
BBX 0 0 0 0
BITMAP
ENDCHAR
STARTCHAR 00A1
ENCODING 161
SWIDTH 270 0
DWIDTH 6 0
BBX 2 15 2 -3
BITMAP
C0
C0
C0
00
00
C0
C0
C0
C0
C0
C0
C0
C0
C0
C0
ENDCHAR
STARTCHAR 00A2
ENCODING 162
SWIDTH 585 0
DWIDTH 13 0
BBX 11 17 1 -3
BITMAP
0600
0600
0F00
3FC0
76E0
E640
C600
C600
C600
C600
E600
76E0
3FC0
1F80
0600
0600
0600
ENDCHAR
STARTCHAR 00A3
ENCODING 163
SWIDTH 630 0
DWIDTH 14 0
BBX 13 16 1 0
BITMAP
03F0
0FF8
1C10
1800
3000
3000
3000
3000
FFC0
3000
3000
3000
3000
3000
FFF8
FFF8
ENDCHAR
STARTCHAR 00A4
ENCODING 164
SWIDTH 720 0
DWIDTH 16 0
BBX 14 14 1 0
BITMAP
C008
EF98
7FF0
3070
6030
6018
6018
6018
6018
6030
3870
7FF8
C79C
8008
ENDCHAR
STARTCHAR 00A5
ENCODING 165
SWIDTH 720 0
DWIDTH 16 0
BBX 15 16 0 0
BITMAP
E006
600E
300C
3818
1838
0C30
0E60
06E0
03C0
3FFC
0180
0180
3FFC
0180
0180
0180
ENDCHAR
STARTCHAR 00A6
ENCODING 166
SWIDTH 315 0
DWIDTH 7 0
BBX 2 22 2 -5
BITMAP
C0
C0
C0
C0
C0
C0
C0
C0
00
00
00
00
00
00
C0
C0
C0
C0
C0
C0
C0
C0
ENDCHAR
STARTCHAR 00A7
ENCODING 167
SWIDTH 495 0
DWIDTH 11 0
BBX 9 18 1 -2
BITMAP
1F00
7F80
E080
C000
E000
7800
7F00
C380
C180
C180
E180
7F00
0F00
0180
0180
8180
FF00
7E00
ENDCHAR
STARTCHAR 00A8
ENCODING 168
SWIDTH 585 0
DWIDTH 13 0
BBX 6 2 4 14
BITMAP
CC
CC
ENDCHAR
STARTCHAR 00A9
ENCODING 169
SWIDTH 810 0
DWIDTH 18 0
BBX 16 16 1 0
BITMAP
07E0
1818
300C
6004
47E2
CC22
8801
9801
9801
8801
CC22
47E2
6004
300C
1830
07E0
ENDCHAR
STARTCHAR 00AA
ENCODING 170
SWIDTH 405 0
DWIDTH 9 0
BBX 7 7 1 10
BITMAP
78
8C
06
7E
86
86
7E
ENDCHAR
STARTCHAR 00AB
ENCODING 171
SWIDTH 495 0
DWIDTH 11 0
BBX 9 9 1 1
BITMAP
1980
3300
6300
6600
CC00
6600
3300
3180
1980
ENDCHAR
STARTCHAR 00AC
ENCODING 172
SWIDTH 585 0
DWIDTH 13 0
BBX 10 6 1 3
BITMAP
FFC0
FFC0
0040
0040
0040
0040
ENDCHAR
STARTCHAR 00AD
ENCODING 173
SWIDTH 405 0
DWIDTH 9 0
BBX 6 2 1 5
BITMAP
FC
FC
ENDCHAR
STARTCHAR 00AE
ENCODING 174
SWIDTH 810 0
DWIDTH 18 0
BBX 16 16 1 0
BITMAP
07E0
1838
300C
6004
47E2
C432
8431
8431
87E1
8443
4462
4432
6004
300C
1830
07E0
ENDCHAR
STARTCHAR 00AF
ENCODING 175
SWIDTH 585 0
DWIDTH 13 0
BBX 7 1 3 15
BITMAP
FE
ENDCHAR
STARTCHAR 00B0
ENCODING 176
SWIDTH 405 0
DWIDTH 9 0
BBX 7 7 1 9
BITMAP
3C
46
82
82
82
46
7C
ENDCHAR
STARTCHAR 00B1
ENCODING 177
SWIDTH 585 0
DWIDTH 13 0
BBX 10 14 1 0
BITMAP
0400
0400
0400
0400
FFC0
FFC0
0400
0400
0400
0400
0000
0000
FFC0
FFC0
ENDCHAR
STARTCHAR 00B2
ENCODING 178
SWIDTH 450 0
DWIDTH 10 0
BBX 7 9 1 8
BITMAP
7C
CE
06
06
0C
18
30
60
FE
ENDCHAR
STARTCHAR 00B3
ENCODING 179
SWIDTH 450 0
DWIDTH 10 0
BBX 7 9 1 8
BITMAP
FE
06
0C
18
3C
06
02
86
FC
ENDCHAR
STARTCHAR 00B4
ENCODING 180
SWIDTH 585 0
DWIDTH 13 0
BBX 5 3 5 13
BITMAP
38
70
C0
ENDCHAR
STARTCHAR 00B5
ENCODING 181
SWIDTH 675 0
DWIDTH 15 0
BBX 11 17 2 -5
BITMAP
C060
C060
C060
C060
C060
C060
C060
C060
E0E0
E1E0
FFE0
DF60
C000
C000
C000
C000
C000
ENDCHAR
STARTCHAR 00B6
ENCODING 182
SWIDTH 630 0
DWIDTH 14 0
BBX 12 19 0 -2
BITMAP
1FF0
7FF0
7E30
FE30
FE30
7E30
7E30
1E30
0630
0630
0630
0630
0630
0630
0630
0630
0630
0630
0630
ENDCHAR
STARTCHAR 00B7
ENCODING 183
SWIDTH 270 0
DWIDTH 6 0
BBX 3 3 1 5
BITMAP
60
E0
60
ENDCHAR
STARTCHAR 00B8
ENCODING 184
SWIDTH 585 0
DWIDTH 13 0
BBX 5 5 4 -5
BITMAP
20
30
18
18
F0
ENDCHAR
STARTCHAR 00B9
ENCODING 185
SWIDTH 450 0
DWIDTH 10 0
BBX 6 9 2 8
BITMAP
F0
30
30
30
30
30
30
30
FC
ENDCHAR
STARTCHAR 00BA
ENCODING 186
SWIDTH 405 0
DWIDTH 9 0
BBX 8 7 1 10
BITMAP
3C
E6
82
83
82
C6
7C
ENDCHAR
STARTCHAR 00BB
ENCODING 187
SWIDTH 495 0
DWIDTH 11 0
BBX 9 9 1 1
BITMAP
CC00
6600
3300
3180
1980
3300
6600
C600
CC00
ENDCHAR
STARTCHAR 00BC
ENCODING 188
SWIDTH 1035 0
DWIDTH 23 0
BBX 20 16 2 0
BITMAP
F00200
300600
300C00
300800
301800
303000
3020C0
306080
FCC180
008300
018260
030660
020C60
060FF0
0C0060
080060
ENDCHAR
STARTCHAR 00BD
ENCODING 189
SWIDTH 1035 0
DWIDTH 23 0
BBX 20 16 2 0
BITMAP
F00200
300600
300C00
300800
301800
303000
3027C0
306E60
FCC020
008020
018060
0300C0
020180
060300
0C0600
080FF0
ENDCHAR
STARTCHAR 00BE
ENCODING 190
SWIDTH 1035 0
DWIDTH 23 0
BBX 21 16 1 0
BITMAP
FE0100
060300
0C0600
180400
3C0C00
061800
021060
863040
FC60C0
004180
00C130
018330
010630
0307F8
060030
040030
ENDCHAR
STARTCHAR 00BF
ENCODING 191
SWIDTH 585 0
DWIDTH 13 0
BBX 10 16 2 -4
BITMAP
1C00
1C00
0C00
0000
0000
1C00
1800
3800
7000
E000
C000
C000
C000
E1C0
7F80
3E00
ENDCHAR
STARTCHAR 00C0
ENCODING 192
SWIDTH 720 0
DWIDTH 16 0
BBX 16 20 0 0
BITMAP
0600
0300
0180
0000
0180
03C0
03C0
0760
0660
0670
0C30
0C38
1818
1818
3FFC
3FFC
300E
6006
6007
C003
ENDCHAR
STARTCHAR 00C1
ENCODING 193
SWIDTH 720 0
DWIDTH 16 0
BBX 16 20 0 0
BITMAP
0070
00C0
0180
0000
0180
03C0
03C0
0760
0660
0670
0C30
0C38
1818
1818
3FFC
3FFC
300E
6006
6007
C003
ENDCHAR
STARTCHAR 00C2
ENCODING 194
SWIDTH 720 0
DWIDTH 16 0
BBX 16 20 0 0
BITMAP
01C0
0360
0630
0000
0180
03C0
03C0
0760
0660
0670
0C30
0C38
1818
1818
3FFC
3FFC
300E
6006
6007
C003
ENDCHAR
STARTCHAR 00C3
ENCODING 195
SWIDTH 720 0
DWIDTH 16 0
BBX 16 20 0 0
BITMAP
0710
04B0
0CE0
0000
0180
03C0
03C0
0760
0660
0670
0C30
0C38
1818
1818
3FFC
3FFC
300E
6006
6007
C003
ENDCHAR
STARTCHAR 00C4
ENCODING 196
SWIDTH 720 0
DWIDTH 16 0
BBX 16 20 0 0
BITMAP
0660
0660
0000
0000
0180
03C0
03C0
0760
0660
0670
0C30
0C38
1818
1818
3FFC
3FFC
300E
6006
6007
C003
ENDCHAR
STARTCHAR 00C5
ENCODING 197
SWIDTH 720 0
DWIDTH 16 0
BBX 16 22 0 0
BITMAP
01C0
0240
0220
0240
01C0
0000
0180
03C0
03C0
0760
0660
0670
0C30
0C38
1818
1818
3FFC
3FFC
300E
6006
6007
C003
ENDCHAR
STARTCHAR 00C6
ENCODING 198
SWIDTH 1035 0
DWIDTH 23 0
BBX 22 16 0 0
BITMAP
007FFC
00FFFC
00D800
019800
019800
031800
071800
061FF8
0E1FF8
0C1800
1FF800
1FF800
301800
701800
601FFC
E01FFC
ENDCHAR
STARTCHAR 00C7
ENCODING 199
SWIDTH 720 0
DWIDTH 16 0
BBX 14 21 1 -5
BITMAP
07E0
1FF8
3C1C
7008
6000
E000
C000
C000
C000
C000
E000
6000
7008
3C1C
1FF8
07E0
0100
0180
00C0
00C0
03C0
ENDCHAR
STARTCHAR 00C8
ENCODING 200
SWIDTH 675 0
DWIDTH 15 0
BBX 12 20 2 0
BITMAP
3800
0C00
0600
0000
FFE0
FFE0
E000
E000
E000
E000
E000
FFC0
FFC0
E000
E000
E000
E000
E000
FFF0
FFF0
ENDCHAR
STARTCHAR 00C9
ENCODING 201
SWIDTH 675 0
DWIDTH 15 0
BBX 12 20 2 0
BITMAP
0180
0300
0600
0000
FFE0
FFE0
E000
E000
E000
E000
E000
FFC0
FFC0
E000
E000
E000
E000
E000
FFF0
FFF0
ENDCHAR
STARTCHAR 00CA
ENCODING 202
SWIDTH 675 0
DWIDTH 15 0
BBX 12 20 2 0
BITMAP
0E00
1B00
3180
0000
FFE0
FFE0
E000
E000
E000
E000
E000
FFC0
FFC0
E000
E000
E000
E000
E000
FFF0
FFF0
ENDCHAR
STARTCHAR 00CB
ENCODING 203
SWIDTH 675 0
DWIDTH 15 0
BBX 12 20 2 0
BITMAP
1980
1980
0000
0000
FFE0
FFE0
E000
E000
E000
E000
E000
FFC0
FFC0
E000
E000
E000
E000
E000
FFF0
FFF0
ENDCHAR
STARTCHAR 00CC
ENCODING 204
SWIDTH 315 0
DWIDTH 7 0
BBX 5 20 0 0
BITMAP
E0
70
18
00
38
38
38
38
38
38
38
38
38
38
38
38
38
38
38
38
ENDCHAR
STARTCHAR 00CD
ENCODING 205
SWIDTH 315 0
DWIDTH 7 0
BBX 5 20 2 0
BITMAP
38
70
C0
00
E0
E0
E0
E0
E0
E0
E0
E0
E0
E0
E0
E0
E0
E0
E0
E0
ENDCHAR
STARTCHAR 00CE
ENCODING 206
SWIDTH 315 0
DWIDTH 7 0
BBX 7 20 0 0
BITMAP
38
6C
C6
00
38
38
38
38
38
38
38
38
38
38
38
38
38
38
38
38
ENDCHAR
STARTCHAR 00CF
ENCODING 207
SWIDTH 315 0
DWIDTH 7 0
BBX 7 20 0 0
BITMAP
C4
CE
00
00
38
38
38
38
38
38
38
38
38
38
38
38
38
38
38
38
ENDCHAR
STARTCHAR 00D0
ENCODING 208
SWIDTH 855 0
DWIDTH 19 0
BBX 17 16 0 0
BITMAP
3FF000
3FFC00
380E00
380700
380380
380180
380180
FF8180
FF8180
380180
380180
380380
380700
380E00
3FFC00
3FF000
ENDCHAR
STARTCHAR 00D1
ENCODING 209
SWIDTH 810 0
DWIDTH 18 0
BBX 14 20 2 0
BITMAP
0E20
1B60
19C0
0000
E01C
E01C
F01C
F81C
FC1C
EC1C
EE1C
E71C
E39C
E1DC
E0DC
E0FC
E07C
E03C
E01C
E01C
ENDCHAR
STARTCHAR 00D2
ENCODING 210
SWIDTH 855 0
DWIDTH 19 0
BBX 17 20 1 0
BITMAP
070000
038000
00C000
000000
07E000
1FF800
3C1C00
700E00
600700
E00300
C00300
C00380
C00380
C00300
E00300
600700
700E00
3C1C00
1FF800
07E000
ENDCHAR
STARTCHAR 00D3
ENCODING 211
SWIDTH 855 0
DWIDTH 19 0
BBX 17 20 1 0
BITMAP
007000
00C000
018000
000000
07E000
1FF800
3C1C00
700E00
600700
E00300
C00300
C00380
C00380
C00300
E00300
600700
700E00
3C1C00
1FF800
07E000
ENDCHAR
STARTCHAR 00D4
ENCODING 212
SWIDTH 855 0
DWIDTH 19 0
BBX 17 20 1 0
BITMAP
01C000
036000
063000
000000
07E000
1FF800
3C1C00
700E00
600700
E00300
C00300
C00380
C00380
C00300
E00300
600700
700E00
3C1C00
1FF800
07E000
ENDCHAR
STARTCHAR 00D5
ENCODING 213
SWIDTH 855 0
DWIDTH 19 0
BBX 17 20 1 0
BITMAP
031000
05B000
046000
000000
07E000
1FF800
3C1C00
700E00
600700
E00300
C00300
C00380
C00380
C00300
E00300
600700
700E00
3C1C00
1FF800
07E000
ENDCHAR
STARTCHAR 00D6
ENCODING 214
SWIDTH 855 0
DWIDTH 19 0
BBX 17 20 1 0
BITMAP
066000
066000
000000
000000
07E000
1FF800
3C1C00
700E00
600700
E00300
C00300
C00380
C00380
C00300
E00300
600700
700E00
3C1C00
1FF800
07E000
ENDCHAR
STARTCHAR 00D7
ENCODING 215
SWIDTH 585 0
DWIDTH 13 0
BBX 7 8 3 4
BITMAP
82
C6
6C
38
38
6C
C6
82
ENDCHAR
STARTCHAR 00D8
ENCODING 216
SWIDTH 855 0
DWIDTH 19 0
BBX 17 18 1 -1
BITMAP
000200
07E600
1FFC00
3C1C00
701E00
603700
E06300
C04300
C0C380
C18380
C30300
E20300
660700
7C0E00
3C1C00
1FF800
37E000
600000
ENDCHAR
STARTCHAR 00D9
ENCODING 217
SWIDTH 810 0
DWIDTH 18 0
BBX 13 20 2 0
BITMAP
1C00
0600
0300
0000
C018
C018
C018
C018
C018
C018
C018
C018
C018
C018
E018
E018
6038
7070
3FE0
0FC0
ENDCHAR
STARTCHAR 00DA
ENCODING 218
SWIDTH 810 0
DWIDTH 18 0
BBX 13 20 2 0
BITMAP
00C0
0180
0300
0000
C018
C018
C018
C018
C018
C018
C018
C018
C018
C018
E018
E018
6038
7070
3FE0
0FC0
ENDCHAR
STARTCHAR 00DB
ENCODING 219
SWIDTH 810 0
DWIDTH 18 0
BBX 13 20 2 0
BITMAP
0700
0D80
18C0
0000
C018
C018
C018
C018
C018
C018
C018
C018
C018
C018
E018
E018
6038
7070
3FE0
0FC0
ENDCHAR
STARTCHAR 00DC
ENCODING 220
SWIDTH 810 0
DWIDTH 18 0
BBX 13 20 2 0
BITMAP
0CC0
0CC0
0000
0000
C018
C018
C018
C018
C018
C018
C018
C018
C018
C018
E018
E018
6038
7070
3FE0
0FC0
ENDCHAR
STARTCHAR 00DD
ENCODING 221
SWIDTH 630 0
DWIDTH 14 0
BBX 14 20 0 0
BITMAP
00E0
0180
0300
0000
E00C
601C
7018
3030
1830
1C60
0CE0
0EC0
0780
0380
0300
0300
0300
0300
0300
0300
ENDCHAR
STARTCHAR 00DE
ENCODING 222
SWIDTH 720 0
DWIDTH 16 0
BBX 13 16 2 0
BITMAP
E000
E000
FF80
FFE0
E070
E038
E018
E018
E018
E038
E070
FFE0
FF80
E000
E000
E000
ENDCHAR
STARTCHAR 00DF
ENCODING 223
SWIDTH 675 0
DWIDTH 15 0
BBX 12 17 2 0
BITMAP
1F00
3FC0
60C0
E0E0
C060
C060
C0C0
C1C0
C780
C7E0
C070
C030
C030
C030
C070
CFE0
CF80
ENDCHAR
STARTCHAR 00E0
ENCODING 224
SWIDTH 585 0
DWIDTH 13 0
BBX 10 17 1 0
BITMAP
3800
1C00
0E00
0000
0000
3F00
FF80
41C0
00C0
00C0
3FC0
7FC0
C0C0
C0C0
E1C0
7FC0
3EC0
ENDCHAR
STARTCHAR 00E1
ENCODING 225
SWIDTH 585 0
DWIDTH 13 0
BBX 10 17 1 0
BITMAP
0380
0700
0C00
0000
0000
3F00
FF80
41C0
00C0
00C0
3FC0
7FC0
C0C0
C0C0
E1C0
7FC0
3EC0
ENDCHAR
STARTCHAR 00E2
ENCODING 226
SWIDTH 585 0
DWIDTH 13 0
BBX 10 17 1 0
BITMAP
0E00
1B00
3180
0000
0000
3F00
FF80
41C0
00C0
00C0
3FC0
7FC0
C0C0
C0C0
E1C0
7FC0
3EC0
ENDCHAR
STARTCHAR 00E3
ENCODING 227
SWIDTH 585 0
DWIDTH 13 0
BBX 10 16 1 0
BITMAP
3880
2580
2300
0000
3F00
FF80
41C0
00C0
00C0
3FC0
7FC0
C0C0
C0C0
E1C0
7FC0
3EC0
ENDCHAR
STARTCHAR 00E4
ENCODING 228
SWIDTH 585 0
DWIDTH 13 0
BBX 10 16 1 0
BITMAP
3380
3100
0000
0000
3F00
FF80
41C0
00C0
00C0
3FC0
7FC0
C0C0
C0C0
E1C0
7FC0
3EC0
ENDCHAR
STARTCHAR 00E5
ENCODING 229
SWIDTH 585 0
DWIDTH 13 0
BBX 10 18 1 0
BITMAP
0E00
1100
1100
1100
0E00
0000
3F00
FF80
41C0
00C0
00C0
3FC0
7FC0
C0C0
C0C0
E1C0
7FC0
3EC0
ENDCHAR
STARTCHAR 00E6
ENCODING 230
SWIDTH 990 0
DWIDTH 22 0
BBX 20 12 1 0
BITMAP
3F0F80
FFBFC0
41F0E0
00E070
00C030
3FFFF0
7FFFF0
C0E000
C0E000
E1F060
7FBFE0
3E0F80
ENDCHAR
STARTCHAR 00E7
ENCODING 231
SWIDTH 585 0
DWIDTH 13 0
BBX 11 17 1 -5
BITMAP
0F80
3FC0
70E0
E000
C000
C000
C000
C000
E000
70E0
3FC0
1F80
0400
0600
0300
0300
1E00
ENDCHAR
STARTCHAR 00E8
ENCODING 232
SWIDTH 630 0
DWIDTH 14 0
BBX 12 17 1 0
BITMAP
3800
0C00
0600
0000
0000
1F00
3FC0
70E0
E060
C030
FFF0
FFF0
C000
E000
7040
3FE0
0F80
ENDCHAR
STARTCHAR 00E9
ENCODING 233
SWIDTH 630 0
DWIDTH 14 0
BBX 12 17 1 0
BITMAP
0180
0300
0600
0000
0000
1F00
3FC0
70E0
E060
C030
FFF0
FFF0
C000
E000
7040
3FE0
0F80
ENDCHAR
STARTCHAR 00EA
ENCODING 234
SWIDTH 630 0
DWIDTH 14 0
BBX 12 17 1 0
BITMAP
0E00
1F00
3180
0000
0000
1F00
3FC0
70E0
E060
C030
FFF0
FFF0
C000
E000
7040
3FE0
0F80
ENDCHAR
STARTCHAR 00EB
ENCODING 235
SWIDTH 630 0
DWIDTH 14 0
BBX 12 16 1 0
BITMAP
1980
1980
0000
0000
1F00
3FC0
70E0
E060
C030
FFF0
FFF0
C000
E000
7040
3FE0
0F80
ENDCHAR
STARTCHAR 00EC
ENCODING 236
SWIDTH 270 0
DWIDTH 6 0
BBX 4 17 0 0
BITMAP
C0
60
30
00
00
30
30
30
30
30
30
30
30
30
30
30
30
ENDCHAR
STARTCHAR 00ED
ENCODING 237
SWIDTH 270 0
DWIDTH 6 0
BBX 5 17 2 0
BITMAP
38
60
C0
00
00
C0
C0
C0
C0
C0
C0
C0
C0
C0
C0
C0
C0
ENDCHAR
STARTCHAR 00EE
ENCODING 238
SWIDTH 270 0
DWIDTH 6 0
BBX 6 17 0 0
BITMAP
30
78
CC
00
00
30
30
30
30
30
30
30
30
30
30
30
30
ENDCHAR
STARTCHAR 00EF
ENCODING 239
SWIDTH 270 0
DWIDTH 6 0
BBX 6 16 0 0
BITMAP
EC
4C
00
00
30
30
30
30
30
30
30
30
30
30
30
30
ENDCHAR
STARTCHAR 00F0
ENCODING 240
SWIDTH 630 0
DWIDTH 14 0
BBX 12 16 1 0
BITMAP
7F20
7FE0
03E0
1E60
3030
0030
1F30
7FB0
60F0
C070
C070
C070
C060
60E0
7FC0
1F00
ENDCHAR
STARTCHAR 00F1
ENCODING 241
SWIDTH 675 0
DWIDTH 15 0
BBX 11 16 2 0
BITMAP
1880
2480
2380
0000
CF80
FFC0
F0E0
E060
C060
C060
C060
C060
C060
C060
C060
C060
ENDCHAR
STARTCHAR 00F2
ENCODING 242
SWIDTH 630 0
DWIDTH 14 0
BBX 12 17 1 0
BITMAP
3800
0C00
0600
0000
0000
1F80
3FC0
70E0
E070
C030
C030
C030
C030
E070
70E0
3FC0
1F80
ENDCHAR
STARTCHAR 00F3
ENCODING 243
SWIDTH 630 0
DWIDTH 14 0
BBX 12 17 1 0
BITMAP
01C0
0300
0600
0000
0000
1F80
3FC0
70E0
E070
C030
C030
C030
C030
E070
70E0
3FC0
1F80
ENDCHAR
STARTCHAR 00F4
ENCODING 244
SWIDTH 630 0
DWIDTH 14 0
BBX 12 17 1 0
BITMAP
0600
0F00
19C0
0000
0000
1F80
3FC0
70E0
E070
C030
C030
C030
C030
E070
70E0
3FC0
1F80
ENDCHAR
STARTCHAR 00F5
ENCODING 245
SWIDTH 630 0
DWIDTH 14 0
BBX 12 17 1 0
BITMAP
1800
14C0
3380
0000
0000
1F80
3FC0
70E0
E070
C030
C030
C030
C030
E070
70E0
3FC0
1F80
ENDCHAR
STARTCHAR 00F6
ENCODING 246
SWIDTH 630 0
DWIDTH 14 0
BBX 12 16 1 0
BITMAP
1980
1980
0000
0000
1F80
3FC0
70E0
E070
C030
C030
C030
C030
E070
70E0
3FC0
1F80
ENDCHAR
STARTCHAR 00F7
ENCODING 247
SWIDTH 585 0
DWIDTH 13 0
BBX 10 12 1 2
BITMAP
0C00
0E00
0400
0000
0000
FFC0
FFC0
0000
0000
0C00
0E00
0400
ENDCHAR
STARTCHAR 00F8
ENCODING 248
SWIDTH 630 0
DWIDTH 14 0
BBX 12 14 1 -1
BITMAP
0020
1FC0
3FC0
70E0
E170
C330
C230
C430
CC30
E870
70E0
3FC0
3F80
4000
ENDCHAR
STARTCHAR 00F9
ENCODING 249
SWIDTH 675 0
DWIDTH 15 0
BBX 11 17 2 0
BITMAP
3800
1C00
0E00
0000
0000
C060
C060
C060
C060
C060
C060
C060
C060
C0E0
E1E0
7FE0
3E60
ENDCHAR
STARTCHAR 00FA
ENCODING 250
SWIDTH 675 0
DWIDTH 15 0
BBX 11 17 2 0
BITMAP
0380
0700
0C00
0000
0000
C060
C060
C060
C060
C060
C060
C060
C060
C0E0
E1E0
7FE0
3E60
ENDCHAR
STARTCHAR 00FB
ENCODING 251
SWIDTH 675 0
DWIDTH 15 0
BBX 11 17 2 0
BITMAP
0E00
1B00
3180
0000
0000
C060
C060
C060
C060
C060
C060
C060
C060
C0E0
E1E0
7FE0
3E60
ENDCHAR
STARTCHAR 00FC
ENCODING 252
SWIDTH 675 0
DWIDTH 15 0
BBX 11 16 2 0
BITMAP
3380
3100
0000
0000
C060
C060
C060
C060
C060
C060
C060
C060
C0E0
E1E0
7FE0
3E60
ENDCHAR
STARTCHAR 00FD
ENCODING 253
SWIDTH 540 0
DWIDTH 12 0
BBX 12 22 0 -5
BITMAP
0180
0300
0600
0000
0000
C030
6030
6060
7060
3060
30C0
18C0
1980
0D80
0F00
0F00
0700
0600
0600
8C00
FC00
F800
ENDCHAR
STARTCHAR 00FE
ENCODING 254
SWIDTH 675 0
DWIDTH 15 0
BBX 12 22 2 -5
BITMAP
C000
C000
C000
C000
C000
CF80
FFC0
F0E0
E070
C030
C030
C030
C030
E070
F0E0
FFC0
CF80
C000
C000
C000
C000
C000
ENDCHAR
STARTCHAR 00FF
ENCODING 255
SWIDTH 540 0
DWIDTH 12 0
BBX 12 21 0 -5
BITMAP
1980
1980
0000
0000
C030
6030
6060
7060
3060
30C0
18C0
1980
0D80
0F00
0F00
0700
0600
0600
8C00
FC00
F800
ENDCHAR
STARTCHAR 0100
ENCODING 256
SWIDTH 720 0
DWIDTH 16 0
BBX 16 19 0 0
BITMAP
0FF0
0000
0000
0180
03C0
03C0
0760
0660
0670
0C30
0C38
1818
1818
3FFC
3FFC
300E
6006
6007
C003
ENDCHAR
STARTCHAR 0101
ENCODING 257
SWIDTH 585 0
DWIDTH 13 0
BBX 10 16 1 0
BITMAP
3F80
0000
0000
0000
3F00
FF80
41C0
00C0
00C0
3FC0
7FC0
C0C0
C0C0
E1C0
7FC0
3EC0
ENDCHAR
STARTCHAR 0102
ENCODING 258
SWIDTH 720 0
DWIDTH 16 0
BBX 16 20 0 0
BITMAP
0430
0660
03C0
0000
0180
03C0
03C0
0760
0660
0670
0C30
0C38
1818
1818
3FFC
3FFC
300E
6006
6007
C003
ENDCHAR
STARTCHAR 0103
ENCODING 259
SWIDTH 585 0
DWIDTH 13 0
BBX 10 17 1 0
BITMAP
2080
3180
1F00
0000
0000
3F00
FF80
41C0
00C0
00C0
3FC0
7FC0
C0C0
C0C0
E1C0
7FC0
3EC0
ENDCHAR
STARTCHAR 0104
ENCODING 260
SWIDTH 720 0
DWIDTH 16 0
BBX 17 21 0 -5
BITMAP
018000
03C000
03C000
076000
066000
067000
0C3000
0C3800
181800
181800
3FFC00
3FFC00
300E00
600600
600700
C00300
000600
000C00
000C00
000C00
000780
ENDCHAR
STARTCHAR 0105
ENCODING 261
SWIDTH 585 0
DWIDTH 13 0
BBX 11 17 1 -5
BITMAP
3F00
FF80
41C0
00C0
00C0
3FC0
7FC0
C0C0
C0C0
E1C0
7FC0
3EC0
0180
0100
0300
0300
01E0
ENDCHAR
STARTCHAR 0106
ENCODING 262
SWIDTH 720 0
DWIDTH 16 0
BBX 14 20 1 0
BITMAP
0070
00C0
0180
0000
07E0
1FF8
3C1C
7008
6000
E000
C000
C000
C000
C000
E000
6000
7008
3C1C
1FF8
07E0
ENDCHAR
STARTCHAR 0107
ENCODING 263
SWIDTH 585 0
DWIDTH 13 0
BBX 11 17 1 0
BITMAP
0180
0300
0600
0000
0000
0F80
3FC0
70E0
E000
C000
C000
C000
C000
E000
70E0
3FC0
0F80
ENDCHAR
STARTCHAR 0108
ENCODING 264
SWIDTH 720 0
DWIDTH 16 0
BBX 14 20 1 0
BITMAP
01C0
0360
0630
0000
07E0
1FF8
3C1C
7008
6000
E000
C000
C000
C000
C000
E000
6000
7008
3C1C
1FF8
07E0
ENDCHAR
STARTCHAR 0109
ENCODING 265
SWIDTH 585 0
DWIDTH 13 0
BBX 11 17 1 0
BITMAP
0E00
1B00
3180
0000
0000
0F80
3FC0
70E0
E000
C000
C000
C000
C000
E000
70E0
3FC0
0F80
ENDCHAR
STARTCHAR 010A
ENCODING 266
SWIDTH 720 0
DWIDTH 16 0
BBX 14 20 1 0
BITMAP
0180
0180
0080
0000
07E0
1FF8
3C1C
7008
6000
E000
C000
C000
C000
C000
E000
6000
7008
3C1C
1FF8
07E0
ENDCHAR
STARTCHAR 010B
ENCODING 267
SWIDTH 585 0
DWIDTH 13 0
BBX 11 17 1 0
BITMAP
0600
0E00
0400
0000
0000
0F80
3FC0
70E0
E000
C000
C000
C000
C000
E000
70E0
3FC0
0F80
ENDCHAR
STARTCHAR 010C
ENCODING 268
SWIDTH 720 0
DWIDTH 16 0
BBX 14 20 1 0
BITMAP
0630
03E0
01C0
0000
07E0
1FF8
3C1C
7008
6000
E000
C000
C000
C000
C000
E000
6000
7008
3C1C
1FF8
07E0
ENDCHAR
STARTCHAR 010D
ENCODING 269
SWIDTH 585 0
DWIDTH 13 0
BBX 11 17 1 0
BITMAP
3180
1B00
0E00
0000
0000
0F80
3FC0
70E0
E000
C000
C000
C000
C000
E000
70E0
3FC0
0F80
ENDCHAR
STARTCHAR 010E
ENCODING 270
SWIDTH 810 0
DWIDTH 18 0
BBX 15 20 2 0
BITMAP
18C0
0D80
0700
0000
FFC0
FFF0
E038
E01C
E00E
E006
E006
E006
E006
E006
E006
E00E
E01C
E038
FFF0
FFC0
ENDCHAR
STARTCHAR 010F
ENCODING 271
SWIDTH 675 0
DWIDTH 15 0
BBX 16 18 1 0
BITMAP
0003
0033
0033
0033
0033
0030
1F30
3FF0
70F0
E070
C030
C030
C030
C030
E070
70F0
3FF0
1F30
ENDCHAR
STARTCHAR 0110
ENCODING 272
SWIDTH 855 0
DWIDTH 19 0
BBX 17 16 0 0
BITMAP
3FF000
3FFC00
380E00
380700
380380
380180
380180
FF8180
FF8180
380180
380180
380380
380700
380E00
3FFC00
3FF000
ENDCHAR
STARTCHAR 0111
ENCODING 273
SWIDTH 675 0
DWIDTH 15 0
BBX 14 17 1 0
BITMAP
0030
07F0
07FC
0030
0030
1F30
3FF0
70F0
E070
C030
C030
C030
C030
E070
70F0
3FF0
1F30
ENDCHAR
STARTCHAR 0112
ENCODING 274
SWIDTH 675 0
DWIDTH 15 0
BBX 12 19 2 0
BITMAP
3F80
0000
0000
FFE0
FFE0
E000
E000
E000
E000
E000
FFC0
FFC0
E000
E000
E000
E000
E000
FFF0
FFF0
ENDCHAR
STARTCHAR 0113
ENCODING 275
SWIDTH 630 0
DWIDTH 14 0
BBX 12 16 1 0
BITMAP
3F80
0000
0000
0000
1F00
3FC0
70E0
E060
C030
FFF0
FFF0
C000
E000
7040
3FE0
0F80
ENDCHAR
STARTCHAR 0114
ENCODING 276
SWIDTH 675 0
DWIDTH 15 0
BBX 12 20 2 0
BITMAP
3080
1980
0F00
0000
FFE0
FFE0
E000
E000
E000
E000
E000
FFC0
FFC0
E000
E000
E000
E000
E000
FFF0
FFF0
ENDCHAR
STARTCHAR 0115
ENCODING 277
SWIDTH 630 0
DWIDTH 14 0
BBX 12 17 1 0
BITMAP
3080
1180
1F00
0000
0000
1F00
3FC0
70E0
E060
C030
FFF0
FFF0
C000
E000
7040
3FE0
0F80
ENDCHAR
STARTCHAR 0116
ENCODING 278
SWIDTH 675 0
DWIDTH 15 0
BBX 12 20 2 0
BITMAP
0600
0600
0400
0000
FFE0
FFE0
E000
E000
E000
E000
E000
FFC0
FFC0
E000
E000
E000
E000
E000
FFF0
FFF0
ENDCHAR
STARTCHAR 0117
ENCODING 279
SWIDTH 630 0
DWIDTH 14 0
BBX 12 17 1 0
BITMAP
0600
0600
0400
0000
0000
1F00
3FC0
70E0
E060
C030
FFF0
FFF0
C000
E000
7040
3FE0
0F80
ENDCHAR
STARTCHAR 0118
ENCODING 280
SWIDTH 675 0
DWIDTH 15 0
BBX 12 21 2 -5
BITMAP
FFE0
FFE0
E000
E000
E000
E000
E000
FFC0
FFC0
E000
E000
E000
E000
E000
FFF0
FFF0
0060
0080
0180
0080
00F0
ENDCHAR
STARTCHAR 0119
ENCODING 281
SWIDTH 630 0
DWIDTH 14 0
BBX 12 17 1 -5
BITMAP
1F00
3FC0
70E0
E060
C030
FFF0
FFF0
C000
E000
7040
3FE0
0F80
0100
0300
0300
0300
01E0
ENDCHAR
STARTCHAR 011A
ENCODING 282
SWIDTH 675 0
DWIDTH 15 0
BBX 12 20 2 0
BITMAP
3180
1F00
0E00
0000
FFE0
FFE0
E000
E000
E000
E000
E000
FFC0
FFC0
E000
E000
E000
E000
E000
FFF0
FFF0
ENDCHAR
STARTCHAR 011B
ENCODING 283
SWIDTH 630 0
DWIDTH 14 0
BBX 12 17 1 0
BITMAP
3180
1B00
0E00
0000
0000
1F00
3FC0
70E0
E060
C030
FFF0
FFF0
C000
E000
7040
3FE0
0F80
ENDCHAR
STARTCHAR 011C
ENCODING 284
SWIDTH 765 0
DWIDTH 17 0
BBX 14 20 1 0
BITMAP
01C0
03E0
0630
0000
07F0
1FFC
3C1C
7000
6000
E000
C000
C000
C00C
C00C
E00C
600C
700C
3C1C
1FFC
07F0
ENDCHAR
STARTCHAR 011D
ENCODING 285
SWIDTH 675 0
DWIDTH 15 0
BBX 12 22 1 -5
BITMAP
0700
0D80
18C0
0000
0000
1F30
3FF0
70F0
E070
C030
C030
C030
C030
E070
70F0
3FF0
0F30
0030
0030
6060
7FE0
1F80
ENDCHAR
STARTCHAR 011E
ENCODING 286
SWIDTH 765 0
DWIDTH 17 0
BBX 14 20 1 0
BITMAP
0430
0660
03C0
0000
07F0
1FFC
3C1C
7000
6000
E000
C000
C000
C00C
C00C
E00C
600C
700C
3C1C
1FFC
07F0
ENDCHAR
STARTCHAR 011F
ENCODING 287
SWIDTH 675 0
DWIDTH 15 0
BBX 12 22 1 -5
BITMAP
10C0
18C0
0F80
0000
0000
1F30
3FF0
70F0
E070
C030
C030
C030
C030
E070
70F0
3FF0
0F30
0030
0030
6060
7FE0
1F80
ENDCHAR
STARTCHAR 0120
ENCODING 288
SWIDTH 765 0
DWIDTH 17 0
BBX 14 20 1 0
BITMAP
0180
0180
0080
0000
07F0
1FFC
3C1C
7000
6000
E000
C000
C000
C00C
C00C
E00C
600C
700C
3C1C
1FFC
07F0
ENDCHAR
STARTCHAR 0121
ENCODING 289
SWIDTH 675 0
DWIDTH 15 0
BBX 12 22 1 -5
BITMAP
0600
0700
0200
0000
0000
1F30
3FF0
70F0
E070
C030
C030
C030
C030
E070
70F0
3FF0
0F30
0030
0030
6060
7FE0
1F80
ENDCHAR
STARTCHAR 0122
ENCODING 290
SWIDTH 765 0
DWIDTH 17 0
BBX 14 22 1 -6
BITMAP
07F0
1FFC
3C1C
7000
6000
E000
C000
C000
C00C
C00C
E00C
600C
700C
3C1C
1FFC
07F0
0000
0000
0180
0180
0180
0100
ENDCHAR
STARTCHAR 0123
ENCODING 291
SWIDTH 675 0
DWIDTH 15 0
BBX 12 23 1 -5
BITMAP
0200
0200
0600
0700
0000
0000
1F30
3FF0
70F0
E070
C030
C030
C030
C030
E070
70F0
3FF0
0F30
0030
0030
6060
7FE0
1F80
ENDCHAR
STARTCHAR 0124
ENCODING 292
SWIDTH 810 0
DWIDTH 18 0
BBX 14 20 2 0
BITMAP
0780
0FC0
1860
0000
E01C
E01C
E01C
E01C
E01C
E01C
E01C
FFFC
FFFC
E01C
E01C
E01C
E01C
E01C
E01C
E01C
ENDCHAR
STARTCHAR 0125
ENCODING 293
SWIDTH 675 0
DWIDTH 15 0
BBX 13 21 0 0
BITMAP
3800
7C00
C600
0000
3000
3000
3000
3000
3000
33E0
3FF0
3C38
3818
3018
3018
3018
3018
3018
3018
3018
3018
ENDCHAR
STARTCHAR 0126
ENCODING 294
SWIDTH 810 0
DWIDTH 18 0
BBX 18 16 0 0
BITMAP
380300
380300
FFFFC0
FFFFC0
380300
380300
380300
3FFF00
3FFF00
380300
380300
380300
380300
380300
380300
380300
ENDCHAR
STARTCHAR 0127
ENCODING 295
SWIDTH 675 0
DWIDTH 15 0
BBX 13 17 0 0
BITMAP
3000
F000
FF80
3000
3000
33E0
3FF0
3C38
3818
3018
3018
3018
3018
3018
3018
3018
3018
ENDCHAR
STARTCHAR 0128
ENCODING 296
SWIDTH 315 0
DWIDTH 7 0
BBX 7 20 0 0
BITMAP
E2
96
8C
00
38
38
38
38
38
38
38
38
38
38
38
38
38
38
38
38
ENDCHAR
STARTCHAR 0129
ENCODING 297
SWIDTH 270 0
DWIDTH 6 0
BBX 6 16 0 0
BITMAP
E4
9C
00
00
30
30
30
30
30
30
30
30
30
30
30
30
ENDCHAR
STARTCHAR 012A
ENCODING 298
SWIDTH 315 0
DWIDTH 7 0
BBX 6 19 0 0
BITMAP
FC
00
00
38
38
38
38
38
38
38
38
38
38
38
38
38
38
38
38
ENDCHAR
STARTCHAR 012B
ENCODING 299
SWIDTH 270 0
DWIDTH 6 0
BBX 6 16 0 0
BITMAP
FC
00
00
00
30
30
30
30
30
30
30
30
30
30
30
30
ENDCHAR
STARTCHAR 012C
ENCODING 300
SWIDTH 315 0
DWIDTH 7 0
BBX 7 20 0 0
BITMAP
86
C6
7C
00
38
38
38
38
38
38
38
38
38
38
38
38
38
38
38
38
ENDCHAR
STARTCHAR 012D
ENCODING 301
SWIDTH 270 0
DWIDTH 6 0
BBX 6 17 0 0
BITMAP
84
CC
78
00
00
30
30
30
30
30
30
30
30
30
30
30
30
ENDCHAR
STARTCHAR 012E
ENCODING 302
SWIDTH 315 0
DWIDTH 7 0
BBX 3 21 2 -5
BITMAP
E0
E0
E0
E0
E0
E0
E0
E0
E0
E0
E0
E0
E0
E0
E0
E0
40
C0
80
80
E0
ENDCHAR
STARTCHAR 012F
ENCODING 303
SWIDTH 270 0
DWIDTH 6 0
BBX 4 22 1 -5
BITMAP
60
70
60
00
00
60
60
60
60
60
60
60
60
60
60
60
60
60
40
C0
C0
70
ENDCHAR
STARTCHAR 0130
ENCODING 304
SWIDTH 315 0
DWIDTH 7 0
BBX 3 20 2 0
BITMAP
C0
E0
40
00
E0
E0
E0
E0
E0
E0
E0
E0
E0
E0
E0
E0
E0
E0
E0
E0
ENDCHAR
STARTCHAR 0131
ENCODING 305
SWIDTH 270 0
DWIDTH 6 0
BBX 2 12 2 0
BITMAP
C0
C0
C0
C0
C0
C0
C0
C0
C0
C0
C0
C0
ENDCHAR
STARTCHAR 0132
ENCODING 306
SWIDTH 720 0
DWIDTH 16 0
BBX 12 16 2 0
BITMAP
C030
C030
C030
C030
C030
C030
C030
C030
C030
0030
0070
0060
0060
C0E0
FFC0
3F00
ENDCHAR
STARTCHAR 0133
ENCODING 307
SWIDTH 585 0
DWIDTH 13 0
BBX 9 22 2 -5
BITMAP
C380
E380
C300
0000
0000
C300
C300
C300
C300
C300
C300
C300
C300
C300
C300
C300
C300
0300
0300
0300
3F00
3E00
ENDCHAR
STARTCHAR 0134
ENCODING 308
SWIDTH 495 0
DWIDTH 11 0
BBX 9 20 0 0
BITMAP
0E00
1B00
3180
0000
7F80
7F80
0180
0180
0180
0180
0180
0180
0180
0180
0180
0180
0180
C380
FF00
3E00
ENDCHAR
STARTCHAR 0135
ENCODING 309
SWIDTH 270 0
DWIDTH 6 0
BBX 8 22 -2 -5
BITMAP
0E
1E
33
00
00
0C
0C
0C
0C
0C
0C
0C
0C
0C
0C
0C
0C
0C
0C
0C
FC
F8
ENDCHAR
STARTCHAR 0136
ENCODING 310
SWIDTH 720 0
DWIDTH 16 0
BBX 14 22 2 -6
BITMAP
E018
E030
E060
E0C0
E180
E300
E700
EE00
FF00
FB80
F1C0
E0C0
E0E0
E070
E038
E01C
0000
0000
0600
0600
0200
0600
ENDCHAR
STARTCHAR 0137
ENCODING 311
SWIDTH 630 0
DWIDTH 14 0
BBX 11 23 2 -6
BITMAP
C000
C000
C000
C000
C000
C0E0
C1C0
C380
C700
CE00
DE00
FE00
E700
C380
C1C0
C0C0
C060
0000
0000
0C00
0C00
0C00
0800
ENDCHAR
STARTCHAR 0138
ENCODING 312
SWIDTH 585 0
DWIDTH 13 0
BBX 11 12 2 0
BITMAP
C0E0
C1C0
C380
C700
CE00
DE00
FE00
E700
C380
C1C0
C0C0
C060
ENDCHAR
STARTCHAR 0139
ENCODING 313
SWIDTH 585 0
DWIDTH 13 0
BBX 11 20 2 0
BITMAP
3800
7000
C000
0000
E000
E000
E000
E000
E000
E000
E000
E000
E000
E000
E000
E000
E000
E000
FFE0
FFE0
ENDCHAR
STARTCHAR 013A
ENCODING 314
SWIDTH 270 0
DWIDTH 6 0
BBX 5 22 2 0
BITMAP
38
60
C0
00
00
C0
C0
C0
C0
C0
C0
C0
C0
C0
C0
C0
C0
C0
C0
C0
C0
C0
ENDCHAR
STARTCHAR 013B
ENCODING 315
SWIDTH 585 0
DWIDTH 13 0
BBX 11 22 2 -6
BITMAP
E000
E000
E000
E000
E000
E000
E000
E000
E000
E000
E000
E000
E000
E000
FFE0
FFE0
0000
0000
0600
0600
0600
0400
ENDCHAR
STARTCHAR 013C
ENCODING 316
SWIDTH 270 0
DWIDTH 6 0
BBX 2 23 2 -6
BITMAP
C0
C0
C0
C0
C0
C0
C0
C0
C0
C0
C0
C0
C0
C0
C0
C0
C0
00
00
C0
C0
40
80
ENDCHAR
STARTCHAR 013D
ENCODING 317
SWIDTH 585 0
DWIDTH 13 0
BBX 11 17 2 0
BITMAP
0080
E080
E080
E080
E000
E000
E000
E000
E000
E000
E000
E000
E000
E000
E000
FFE0
FFE0
ENDCHAR
STARTCHAR 013E
ENCODING 318
SWIDTH 270 0
DWIDTH 6 0
BBX 6 18 2 0
BITMAP
0C
CC
CC
CC
CC
C0
C0
C0
C0
C0
C0
C0
C0
C0
C0
C0
C0
C0
ENDCHAR
STARTCHAR 013F
ENCODING 319
SWIDTH 585 0
DWIDTH 13 0
BBX 11 16 2 0
BITMAP
E000
E000
E000
E000
E000
E000
E180
E180
E180
E000
E000
E000
E000
E000
FFE0
FFE0
ENDCHAR
STARTCHAR 0140
ENCODING 320
SWIDTH 360 0
DWIDTH 8 0
BBX 6 17 2 0
BITMAP
C0
C0
C0
C0
C0
C0
C0
C0
CC
CC
C0
C0
C0
C0
C0
C0
C0
ENDCHAR
STARTCHAR 0141
ENCODING 321
SWIDTH 585 0
DWIDTH 13 0
BBX 13 16 0 0
BITMAP
3800
3800
3800
3800
3900
3F00
3E00
3800
7800
F800
3800
3800
3800
3800
3FF8
3FF8
ENDCHAR
STARTCHAR 0142
ENCODING 322
SWIDTH 315 0
DWIDTH 7 0
BBX 6 17 0 0
BITMAP
30
30
30
30
30
30
34
3C
38
70
F0
30
30
30
30
30
30
ENDCHAR
STARTCHAR 0143
ENCODING 323
SWIDTH 810 0
DWIDTH 18 0
BBX 14 20 2 0
BITMAP
00C0
0180
0300
0000
E01C
E01C
F01C
F81C
FC1C
EC1C
EE1C
E71C
E39C
E1DC
E0DC
E0FC
E07C
E03C
E01C
E01C
ENDCHAR
STARTCHAR 0144
ENCODING 324
SWIDTH 675 0
DWIDTH 15 0
BBX 11 17 2 0
BITMAP
0180
0300
0E00
0000
0000
CF80
FFC0
F0E0
E060
C060
C060
C060
C060
C060
C060
C060
C060
ENDCHAR
STARTCHAR 0145
ENCODING 325
SWIDTH 810 0
DWIDTH 18 0
BBX 14 22 2 -6
BITMAP
E01C
E01C
F01C
F81C
FC1C
EC1C
EE1C
E71C
E39C
E1DC
E0DC
E0FC
E07C
E03C
E01C
E01C
0000
0000
0300
0300
0300
0200
ENDCHAR
STARTCHAR 0146
ENCODING 326
SWIDTH 675 0
DWIDTH 15 0
BBX 11 18 2 -6
BITMAP
CF80
FFC0
F0E0
E060
C060
C060
C060
C060
C060
C060
C060
C060
0000
0000
0600
0600
0400
0400
ENDCHAR
STARTCHAR 0147
ENCODING 327
SWIDTH 810 0
DWIDTH 18 0
BBX 14 20 2 0
BITMAP
0CC0
0780
0300
0000
E01C
E01C
F01C
F81C
FC1C
EC1C
EE1C
E71C
E39C
E1DC
E0DC
E0FC
E07C
E03C
E01C
E01C
ENDCHAR
STARTCHAR 0148
ENCODING 328
SWIDTH 675 0
DWIDTH 15 0
BBX 11 17 2 0
BITMAP
3180
1B00
0E00
0000
0000
CF80
FFC0
F0E0
E060
C060
C060
C060
C060
C060
C060
C060
C060
ENDCHAR
STARTCHAR 0149
ENCODING 329
SWIDTH 765 0
DWIDTH 17 0
BBX 14 16 1 0
BITMAP
C000
C000
C000
8000
99F0
9FF8
1E1C
1C0C
180C
180C
180C
180C
180C
180C
180C
180C
ENDCHAR
STARTCHAR 014A
ENCODING 330
SWIDTH 810 0
DWIDTH 18 0
BBX 14 21 2 -5
BITMAP
E01C
E01C
F01C
F81C
FC1C
EC1C
EE1C
E71C
E39C
E1DC
E0DC
E0FC
E07C
E03C
E01C
E01C
001C
0018
0618
07F8
01E0
ENDCHAR
STARTCHAR 014B
ENCODING 331
SWIDTH 675 0
DWIDTH 15 0
BBX 11 17 2 -5
BITMAP
CF80
FFC0
F0E0
E060
C060
C060
C060
C060
C060
C060
C060
C060
0060
0060
0060
07E0
07C0
ENDCHAR
STARTCHAR 014C
ENCODING 332
SWIDTH 855 0
DWIDTH 19 0
BBX 17 19 1 0
BITMAP
07F000
000000
000000
07E000
1FF800
3C1C00
700E00
600700
E00300
C00300
C00380
C00380
C00300
E00300
600700
700E00
3C1C00
1FF800
07E000
ENDCHAR
STARTCHAR 014D
ENCODING 333
SWIDTH 630 0
DWIDTH 14 0
BBX 12 16 1 0
BITMAP
3FC0
0000
0000
0000
1F80
3FC0
70E0
E070
C030
C030
C030
C030
E070
70E0
3FC0
1F80
ENDCHAR
STARTCHAR 014E
ENCODING 334
SWIDTH 855 0
DWIDTH 19 0
BBX 17 20 1 0
BITMAP
043000
062000
03C000
000000
07E000
1FF800
3C1C00
700E00
600700
E00300
C00300
C00380
C00380
C00300
E00300
600700
700E00
3C1C00
1FF800
07E000
ENDCHAR
STARTCHAR 014F
ENCODING 335
SWIDTH 630 0
DWIDTH 14 0
BBX 12 17 1 0
BITMAP
30C0
1880
0F00
0000
0000
1F80
3FC0
70E0
E070
C030
C030
C030
C030
E070
70E0
3FC0
1F80
ENDCHAR
STARTCHAR 0150
ENCODING 336
SWIDTH 855 0
DWIDTH 19 0
BBX 17 20 1 0
BITMAP
019800
033000
033000
000000
07E000
1FF800
3C1C00
700E00
600700
E00300
C00300
C00380
C00380
C00300
E00300
600700
700E00
3C1C00
1FF800
07E000
ENDCHAR
STARTCHAR 0151
ENCODING 337
SWIDTH 630 0
DWIDTH 14 0
BBX 12 17 1 0
BITMAP
0660
0CC0
0980
0000
0000
1F80
3FC0
70E0
E070
C030
C030
C030
C030
E070
70E0
3FC0
1F80
ENDCHAR
STARTCHAR 0152
ENCODING 338
SWIDTH 1125 0
DWIDTH 25 0
BBX 23 16 1 0
BITMAP
07FFFC
1FFFFC
3C1C00
701C00
601C00
E01C00
C01C00
C01FF8
C01FF8
C01C00
E01C00
601C00
701C00
3C1C00
1FFFFE
07FFFE
ENDCHAR
STARTCHAR 0153
ENCODING 339
SWIDTH 1080 0
DWIDTH 24 0
BBX 22 12 1 0
BITMAP
1F87C0
3FCFF0
70FC38
E07818
C0300C
C03FFC
C03FFC
C03000
E07800
70FC18
3FCFF8
1F83E0
ENDCHAR
STARTCHAR 0154
ENCODING 340
SWIDTH 720 0
DWIDTH 16 0
BBX 13 20 2 0
BITMAP
01C0
0300
0600
0000
FF80
FFE0
E070
E038
E018
E018
E018
E038
E070
FFE0
FF80
E0C0
E0E0
E060
E030
E038
ENDCHAR
STARTCHAR 0155
ENCODING 341
SWIDTH 405 0
DWIDTH 9 0
BBX 7 17 2 0
BITMAP
0E
18
30
00
00
CC
FC
F0
E0
C0
C0
C0
C0
C0
C0
C0
C0
ENDCHAR
STARTCHAR 0156
ENCODING 342
SWIDTH 720 0
DWIDTH 16 0
BBX 13 22 2 -6
BITMAP
FF80
FFE0
E070
E038
E018
E018
E018
E038
E070
FFE0
FF80
E0C0
E0E0
E060
E030
E038
0000
0000
0600
0600
0200
0600
ENDCHAR
STARTCHAR 0157
ENCODING 343
SWIDTH 405 0
DWIDTH 9 0
BBX 6 18 2 -6
BITMAP
CC
FC
F0
E0
C0
C0
C0
C0
C0
C0
C0
C0
00
00
C0
C0
40
80
ENDCHAR
STARTCHAR 0158
ENCODING 344
SWIDTH 720 0
DWIDTH 16 0
BBX 13 20 2 0
BITMAP
18C0
0F80
0700
0000
FF80
FFE0
E070
E038
E018
E018
E018
E038
E070
FFE0
FF80
E0C0
E0E0
E060
E030
E038
ENDCHAR
STARTCHAR 0159
ENCODING 345
SWIDTH 405 0
DWIDTH 9 0
BBX 7 17 2 0
BITMAP
C6
6C
38
00
00
CC
FC
F0
E0
C0
C0
C0
C0
C0
C0
C0
C0
ENDCHAR
STARTCHAR 015A
ENCODING 346
SWIDTH 630 0
DWIDTH 14 0
BBX 12 20 1 0
BITMAP
01C0
0300
0600
0000
1F80
3FE0
7060
E000
C000
E000
7000
3F00
0FC0
00E0
0070
0030
0030
E060
FFE0
1F80
ENDCHAR
STARTCHAR 015B
ENCODING 347
SWIDTH 495 0
DWIDTH 11 0
BBX 9 17 1 0
BITMAP
0700
0E00
1800
0000
0000
3F00
7F80
C000
C000
E000
7C00
3F80
0380
0180
8180
FF80
7E00
ENDCHAR
STARTCHAR 015C
ENCODING 348
SWIDTH 630 0
DWIDTH 14 0
BBX 12 20 1 0
BITMAP
0700
0D80
18C0
0000
1F80
3FE0
7060
E000
C000
E000
7000
3F00
0FC0
00E0
0070
0030
0030
E060
FFE0
1F80
ENDCHAR
STARTCHAR 015D
ENCODING 349
SWIDTH 495 0
DWIDTH 11 0
BBX 9 17 1 0
BITMAP
1C00
3600
6300
0000
0000
3F00
7F80
C000
C000
E000
7C00
3F80
0380
0180
8180
FF80
7E00
ENDCHAR
STARTCHAR 015E
ENCODING 350
SWIDTH 630 0
DWIDTH 14 0
BBX 12 21 1 -5
BITMAP
1F80
3FE0
7060
E000
C000
E000
7000
3F00
0FC0
00E0
0070
0030
0030
E060
FFE0
1F80
0600
0700
0100
0100
0F00
ENDCHAR
STARTCHAR 015F
ENCODING 351
SWIDTH 495 0
DWIDTH 11 0
BBX 9 17 1 -5
BITMAP
3F00
7F80
C000
C000
E000
7C00
3F80
0380
0180
8180
FF80
7E00
0800
1C00
0600
0600
3C00
ENDCHAR
STARTCHAR 0160
ENCODING 352
SWIDTH 630 0
DWIDTH 14 0
BBX 12 20 1 0
BITMAP
18C0
0F80
0700
0000
1F80
3FE0
7060
E000
C000
E000
7000
3F00
0FC0
00E0
0070
0030
0030
E060
FFE0
1F80
ENDCHAR
STARTCHAR 0161
ENCODING 353
SWIDTH 495 0
DWIDTH 11 0
BBX 9 17 1 0
BITMAP
6300
3600
1C00
0000
0000
3F00
7F80
C000
C000
E000
7C00
3F80
0380
0180
8180
FF80
7E00
ENDCHAR
STARTCHAR 0162
ENCODING 354
SWIDTH 585 0
DWIDTH 13 0
BBX 13 21 0 -5
BITMAP
FFF8
FFF8
0700
0700
0700
0700
0700
0700
0700
0700
0700
0700
0700
0700
0700
0700
0200
0700
0180
0180
0F00
ENDCHAR
STARTCHAR 0163
ENCODING 355
SWIDTH 405 0
DWIDTH 9 0
BBX 8 20 0 -5
BITMAP
30
30
30
FF
FF
30
30
30
30
30
30
30
38
1F
0F
04
06
03
03
1E
ENDCHAR
STARTCHAR 0164
ENCODING 356
SWIDTH 585 0
DWIDTH 13 0
BBX 13 20 0 0
BITMAP
18C0
0D80
0700
0000
FFF8
FFF8
0700
0700
0700
0700
0700
0700
0700
0700
0700
0700
0700
0700
0700
0700
ENDCHAR
STARTCHAR 0165
ENCODING 357
SWIDTH 405 0
DWIDTH 9 0
BBX 8 17 0 0
BITMAP
03
03
03
33
30
FF
FF
30
30
30
30
30
30
30
38
1F
0F
ENDCHAR
STARTCHAR 0166
ENCODING 358
SWIDTH 585 0
DWIDTH 13 0
BBX 13 16 0 0
BITMAP
FFF8
FFF8
0700
0700
0700
0700
0700
3FE0
3FE0
0700
0700
0700
0700
0700
0700
0700
ENDCHAR
STARTCHAR 0167
ENCODING 359
SWIDTH 405 0
DWIDTH 9 0
BBX 8 15 0 0
BITMAP
38
38
38
FF
FF
38
38
38
7F
38
38
38
18
1F
0F
ENDCHAR
STARTCHAR 0168
ENCODING 360
SWIDTH 810 0
DWIDTH 18 0
BBX 13 20 2 0
BITMAP
0C60
1B40
11C0
0000
C018
C018
C018
C018
C018
C018
C018
C018
C018
C018
E018
E018
6038
7070
3FE0
0FC0
ENDCHAR
STARTCHAR 0169
ENCODING 361
SWIDTH 675 0
DWIDTH 15 0
BBX 11 17 2 0
BITMAP
1000
3C80
2780
0000
0000
C060
C060
C060
C060
C060
C060
C060
C060
C0E0
E1E0
7FE0
3E60
ENDCHAR
STARTCHAR 016A
ENCODING 362
SWIDTH 810 0
DWIDTH 18 0
BBX 13 19 2 0
BITMAP
1FC0
0000
0000
C018
C018
C018
C018
C018
C018
C018
C018
C018
C018
E018
E018
6038
7070
3FE0
0FC0
ENDCHAR
STARTCHAR 016B
ENCODING 363
SWIDTH 675 0
DWIDTH 15 0
BBX 11 16 2 0
BITMAP
3F80
0000
0000
0000
C060
C060
C060
C060
C060
C060
C060
C060
C0E0
E1E0
7FE0
3E60
ENDCHAR
STARTCHAR 016C
ENCODING 364
SWIDTH 810 0
DWIDTH 18 0
BBX 13 20 2 0
BITMAP
1840
0CC0
0780
0000
C018
C018
C018
C018
C018
C018
C018
C018
C018
C018
E018
E018
6038
7070
3FE0
0FC0
ENDCHAR
STARTCHAR 016D
ENCODING 365
SWIDTH 675 0
DWIDTH 15 0
BBX 11 17 2 0
BITMAP
2080
3180
1F00
0000
0000
C060
C060
C060
C060
C060
C060
C060
C060
C0E0
E1E0
7FE0
3E60
ENDCHAR
STARTCHAR 016E
ENCODING 366
SWIDTH 810 0
DWIDTH 18 0
BBX 13 22 2 0
BITMAP
0700
0480
0880
0480
0700
0000
C018
C018
C018
C018
C018
C018
C018
C018
C018
C018
E018
E018
6038
7070
3FE0
0FC0
ENDCHAR
STARTCHAR 016F
ENCODING 367
SWIDTH 675 0
DWIDTH 15 0
BBX 11 18 2 0
BITMAP
0E00
1100
1100
1100
0E00
0000
C060
C060
C060
C060
C060
C060
C060
C060
C0E0
E1E0
7FE0
3E60
ENDCHAR
STARTCHAR 0170
ENCODING 368
SWIDTH 810 0
DWIDTH 18 0
BBX 13 20 2 0
BITMAP
0370
0660
0CC0
0000
C018
C018
C018
C018
C018
C018
C018
C018
C018
C018
E018
E018
6038
7070
3FE0
0FC0
ENDCHAR
STARTCHAR 0171
ENCODING 369
SWIDTH 675 0
DWIDTH 15 0
BBX 11 17 2 0
BITMAP
0EC0
0CC0
1980
0000
0000
C060
C060
C060
C060
C060
C060
C060
C060
C0E0
E1E0
7FE0
3E60
ENDCHAR
STARTCHAR 0172
ENCODING 370
SWIDTH 810 0
DWIDTH 18 0
BBX 13 21 2 -5
BITMAP
C018
C018
C018
C018
C018
C018
C018
C018
C018
C018
E018
E018
6038
7070
3FE0
0FC0
0300
0600
0400
0400
0780
ENDCHAR
STARTCHAR 0173
ENCODING 371
SWIDTH 675 0
DWIDTH 15 0
BBX 11 17 2 -5
BITMAP
C060
C060
C060
C060
C060
C060
C060
C060
C0E0
E1E0
7FE0
3E60
00C0
0180
0100
0180
01E0
ENDCHAR
STARTCHAR 0174
ENCODING 372
SWIDTH 1125 0
DWIDTH 25 0
BBX 23 20 1 0
BITMAP
003800
006C00
00C600
000000
C03806
C03806
60380C
606C0C
606C0C
706C1C
30C618
30C618
38C638
198330
198330
1D8370
0F01E0
0F01E0
0F01E0
0600C0
ENDCHAR
STARTCHAR 0175
ENCODING 373
SWIDTH 900 0
DWIDTH 20 0
BBX 20 17 0 0
BITMAP
006000
01F000
031800
000000
000000
C06030
606060
60F060
60F060
3198C0
3198C0
319880
1B0D80
1B0D80
0E0F00
0E0700
0E0700
ENDCHAR
STARTCHAR 0176
ENCODING 374
SWIDTH 630 0
DWIDTH 14 0
BBX 14 20 0 0
BITMAP
0380
06C0
0C60
0000
E00C
601C
7018
3030
1830
1C60
0CE0
0EC0
0780
0380
0300
0300
0300
0300
0300
0300
ENDCHAR
STARTCHAR 0177
ENCODING 375
SWIDTH 540 0
DWIDTH 12 0
BBX 12 22 0 -5
BITMAP
0E00
1F00
3180
0000
0000
C030
6030
6060
7060
3060
30C0
18C0
1980
0D80
0F00
0F00
0700
0600
0600
8C00
FC00
F800
ENDCHAR
STARTCHAR 0178
ENCODING 376
SWIDTH 630 0
DWIDTH 14 0
BBX 14 20 0 0
BITMAP
0CC0
0CC0
0000
0000
E00C
601C
7018
3030
1830
1C60
0CE0
0EC0
0780
0380
0300
0300
0300
0300
0300
0300
ENDCHAR
STARTCHAR 0179
ENCODING 377
SWIDTH 675 0
DWIDTH 15 0
BBX 13 20 1 0
BITMAP
01C0
0380
0600
0000
FFF8
FFF8
0070
0060
00C0
01C0
0380
0700
0600
0C00
1C00
3800
3000
6000
FFF8
FFF8
ENDCHAR
STARTCHAR 017A
ENCODING 378
SWIDTH 540 0
DWIDTH 12 0
BBX 10 17 1 0
BITMAP
0300
0600
0C00
0000
0000
FFC0
FF80
0380
0700
0600
0C00
1C00
3800
3000
6000
FFC0
FFC0
ENDCHAR
STARTCHAR 017B
ENCODING 379
SWIDTH 675 0
DWIDTH 15 0
BBX 13 20 1 0
BITMAP
0600
0700
0200
0000
FFF8
FFF8
0070
0060
00C0
01C0
0380
0700
0600
0C00
1C00
3800
3000
6000
FFF8
FFF8
ENDCHAR
STARTCHAR 017C
ENCODING 380
SWIDTH 540 0
DWIDTH 12 0
BBX 10 17 1 0
BITMAP
0C00
0C00
0800
0000
0000
FFC0
FF80
0380
0700
0600
0C00
1C00
3800
3000
6000
FFC0
FFC0
ENDCHAR
STARTCHAR 017D
ENCODING 381
SWIDTH 675 0
DWIDTH 15 0
BBX 13 20 1 0
BITMAP
18C0
0D80
0700
0000
FFF8
FFF8
0070
0060
00C0
01C0
0380
0700
0600
0C00
1C00
3800
3000
6000
FFF8
FFF8
ENDCHAR
STARTCHAR 017E
ENCODING 382
SWIDTH 540 0
DWIDTH 12 0
BBX 10 17 1 0
BITMAP
6300
3600
1C00
0000
0000
FFC0
FF80
0380
0700
0600
0C00
1C00
3800
3000
6000
FFC0
FFC0
ENDCHAR
STARTCHAR 017F
ENCODING 383
SWIDTH 315 0
DWIDTH 7 0
BBX 8 17 1 0
BITMAP
1F
3F
30
30
30
F0
F0
30
30
30
30
30
30
30
30
30
30
ENDCHAR
STARTCHAR 018F
ENCODING 399
SWIDTH 810 0
DWIDTH 18 0
BBX 16 16 1 0
BITMAP
07E0
1FF8
383C
000E
0006
0007
0003
FFFF
FFFF
C003
E007
6006
700E
381C
1FF8
07E0
ENDCHAR
STARTCHAR 0192
ENCODING 402
SWIDTH 450 0
DWIDTH 10 0
BBX 12 22 -2 -5
BITMAP
00F0
01F0
0380
0300
0300
0FE0
0FE0
0300
0300
0700
0600
0600
0600
0600
0600
0600
0600
0E00
0E00
0C00
FC00
F800
ENDCHAR
STARTCHAR 01A0
ENCODING 416
SWIDTH 855 0
DWIDTH 19 0
BBX 17 19 1 0
BITMAP
000300
000100
000100
07FF00
1FFC00
3C1C00
700E00
600700
E00300
C00300
C00380
C00380
C00300
E00300
600700
700E00
3C1C00
1FF800
07E000
ENDCHAR
STARTCHAR 01A1
ENCODING 417
SWIDTH 630 0
DWIDTH 14 0
BBX 12 15 1 0
BITMAP
0030
0030
0030
1FE0
3FC0
70E0
E070
C030
C030
C030
C030
E070
70E0
3FC0
1F80
ENDCHAR
STARTCHAR 01AF
ENCODING 431
SWIDTH 810 0
DWIDTH 18 0
BBX 16 19 2 0
BITMAP
0002
0003
0003
C01E
C01C
C018
C018
C018
C018
C018
C018
C018
C018
E018
E018
6038
7070
3FE0
0FC0
ENDCHAR
STARTCHAR 01B0
ENCODING 432
SWIDTH 675 0
DWIDTH 15 0
BBX 13 15 2 0
BITMAP
0018
0018
0018
C070
C060
C060
C060
C060
C060
C060
C060
C0E0
E1E0
7FE0
3E60
ENDCHAR
STARTCHAR 01B7
ENCODING 439
SWIDTH 630 0
DWIDTH 14 0
BBX 12 16 1 0
BITMAP
FFE0
FFE0
00C0
0180
0380
0700
0600
0F80
0FE0
0060
0070
0070
8070
C0E0
FFC0
3F80
ENDCHAR
STARTCHAR 01C4
ENCODING 452
SWIDTH 1440 0
DWIDTH 32 0
BBX 30 20 2 0
BITMAP
00000CE0
00000780
00000300
00000000
FFC07FF8
FFF07FF8
E0380030
E01C0070
E00E00E0
E00600C0
E0060180
E0060380
E0060700
E0060E00
E0060C00
E00E1C00
E01C3800
E0387000
FFF07FFC
FFC07FFC
ENDCHAR
STARTCHAR 01C5
ENCODING 453
SWIDTH 1350 0
DWIDTH 30 0
BBX 27 17 2 0
BITMAP
000018C0
FFC00D80
FFF00700
E0380000
E01C0000
E00E7FE0
E0067FE0
E00600C0
E0060180
E0060300
E0060700
E0060E00
E00E0C00
E01C1800
E0383800
FFF07FE0
FFC07FE0
ENDCHAR
STARTCHAR 01C6
ENCODING 454
SWIDTH 1215 0
DWIDTH 27 0
BBX 25 17 1 0
BITMAP
0030C600
00307C00
00303800
00300000
00300000
1F31FF80
3FF1FF80
70F00700
E0700600
C0300C00
C0301800
C0303800
C0307000
E0706000
70F0C000
3FF1FF80
1F31FF80
ENDCHAR
STARTCHAR 01C7
ENCODING 455
SWIDTH 1125 0
DWIDTH 25 0
BBX 20 16 2 0
BITMAP
E007F0
E007F0
E00030
E00030
E00030
E00030
E00030
E00030
E00030
E00030
E00030
E00030
E00030
E01C70
FFEFE0
FFE7C0
ENDCHAR
STARTCHAR 01C8
ENCODING 456
SWIDTH 900 0
DWIDTH 20 0
BBX 16 22 2 -5
BITMAP
0007
E007
E006
E000
E000
E006
E006
E006
E006
E006
E006
E006
E006
E006
E006
FFE6
FFE6
0006
0006
0006
007E
007C
ENDCHAR
STARTCHAR 01C9
ENCODING 457
SWIDTH 585 0
DWIDTH 13 0
BBX 9 22 2 -5
BITMAP
C380
C380
C300
C000
C000
C300
C300
C300
C300
C300
C300
C300
C300
C300
C300
C300
C300
0300
0300
0300
3F00
3E00
ENDCHAR
STARTCHAR 01CA
ENCODING 458
SWIDTH 1305 0
DWIDTH 29 0
BBX 25 16 2 0
BITMAP
E01C7F80
E01C7F80
F01C0180
F81C0180
FC1C0180
EC1C0180
EE1C0180
E71C0180
E39C0180
E1DC0180
E0DC0180
E0FC0180
E07C0180
E03CC380
E01CFF00
E01C3E00
ENDCHAR
STARTCHAR 01CB
ENCODING 459
SWIDTH 1080 0
DWIDTH 24 0
BBX 21 22 2 -5
BITMAP
000030
E01C38
E01C30
F01C00
F81C00
FC1C30
EC1C30
EE1C30
E71C30
E39C30
E1DC30
E0DC30
E0FC30
E07C30
E03C30
E01C30
E01C30
000030
000030
000030
0003F0
0003E0
ENDCHAR
STARTCHAR 01CC
ENCODING 460
SWIDTH 945 0
DWIDTH 21 0
BBX 18 22 2 -5
BITMAP
000180
0001C0
000180
000000
000000
CF8180
FFC180
F0E180
E06180
C06180
C06180
C06180
C06180
C06180
C06180
C06180
C06180
000180
000180
000180
001F80
001F00
ENDCHAR
STARTCHAR 01CD
ENCODING 461
SWIDTH 720 0
DWIDTH 16 0
BBX 16 20 0 0
BITMAP
0630
03E0
01C0
0000
0180
03C0
03C0
0760
0660
0670
0C30
0C38
1818
1818
3FFC
3FFC
300E
6006
6007
C003
ENDCHAR
STARTCHAR 01CE
ENCODING 462
SWIDTH 585 0
DWIDTH 13 0
BBX 10 17 1 0
BITMAP
3180
1B00
0E00
0000
0000
3F00
FF80
41C0
00C0
00C0
3FC0
7FC0
C0C0
C0C0
E1C0
7FC0
3EC0
ENDCHAR
STARTCHAR 01D3
ENCODING 467
SWIDTH 810 0
DWIDTH 18 0
BBX 13 20 2 0
BITMAP
18C0
0F80
0700
0000
C018
C018
C018
C018
C018
C018
C018
C018
C018
C018
E018
E018
6038
7070
3FE0
0FC0
ENDCHAR
STARTCHAR 01D4
ENCODING 468
SWIDTH 675 0
DWIDTH 15 0
BBX 11 17 2 0
BITMAP
3180
1B00
0E00
0000
0000
C060
C060
C060
C060
C060
C060
C060
C060
C0E0
E1E0
7FE0
3E60
ENDCHAR
STARTCHAR 01E4
ENCODING 484
SWIDTH 810 0
DWIDTH 18 0
BBX 16 16 1 0
BITMAP
07F0
1FFC
3C1C
7000
6000
E000
C000
C000
C00C
E0FF
60FF
700C
700C
3C1C
1FFC
07F0
ENDCHAR
STARTCHAR 01E5
ENCODING 485
SWIDTH 720 0
DWIDTH 16 0
BBX 14 17 1 -5
BITMAP
1F30
3FF0
7070
E030
C030
C030
C030
E030
7070
3FF0
1F30
0030
0030
07FC
6070
7FE0
1F80
ENDCHAR
STARTCHAR 01E6
ENCODING 486
SWIDTH 765 0
DWIDTH 17 0
BBX 14 20 1 0
BITMAP
0630
03E0
01C0
0000
07F0
1FFC
3C1C
7000
6000
E000
C000
C000
C00C
C00C
E00C
600C
700C
3C1C
1FFC
07F0
ENDCHAR
STARTCHAR 01E7
ENCODING 487
SWIDTH 675 0
DWIDTH 15 0
BBX 12 22 1 -5
BITMAP
18C0
0D80
0700
0000
0000
1F30
3FF0
70F0
E070
C030
C030
C030
C030
E070
70F0
3FF0
0F30
0030
0030
6060
7FE0
1F80
ENDCHAR
STARTCHAR 01E8
ENCODING 488
SWIDTH 720 0
DWIDTH 16 0
BBX 14 20 2 0
BITMAP
18C0
0D80
0700
0000
E018
E030
E060
E0C0
E180
E300
E700
EE00
FF00
FB80
F1C0
E0C0
E0E0
E070
E038
E01C
ENDCHAR
STARTCHAR 01E9
ENCODING 489
SWIDTH 630 0
DWIDTH 14 0
BBX 14 22 -1 0
BITMAP
C300
3E00
1C00
0000
0000
1800
1800
1800
1800
1800
181C
1838
1870
18E0
19C0
1BC0
1FC0
1CE0
1870
1838
1818
180C
ENDCHAR
STARTCHAR 01EA
ENCODING 490
SWIDTH 855 0
DWIDTH 19 0
BBX 17 21 1 -5
BITMAP
07E000
1FF800
3C1C00
700E00
600700
E00300
C00300
C00380
C00380
C00300
E00300
600700
700600
3C1C00
1FF800
07E000
018000
030000
020000
030000
03C000
ENDCHAR
STARTCHAR 01EB
ENCODING 491
SWIDTH 630 0
DWIDTH 14 0
BBX 12 17 1 -5
BITMAP
1F80
3FC0
70E0
E070
C030
C030
C030
C030
E070
70E0
3FC0
1F80
0600
0C00
0C00
0C00
0780
ENDCHAR
STARTCHAR 01EE
ENCODING 494
SWIDTH 630 0
DWIDTH 14 0
BBX 12 20 1 0
BITMAP
3180
1B00
0E00
0000
FFE0
FFE0
00C0
0180
0380
0700
0600
0F80
0FE0
0060
0070
0070
8070
C0E0
FFC0
3F80
ENDCHAR
STARTCHAR 01EF
ENCODING 495
SWIDTH 540 0
DWIDTH 12 0
BBX 11 22 0 -5
BITMAP
6180
3F00
1E00
0000
0000
FFC0
FFC0
01C0
0180
0300
0600
0E00
0F00
0FC0
00C0
0060
0060
0060
80E0
C1C0
7FC0
3F00
ENDCHAR
STARTCHAR 01FA
ENCODING 506
SWIDTH 720 0
DWIDTH 16 0
BBX 16 23 0 1
BITMAP
0030
01E0
0240
0220
0240
01C0
0000
0180
03C0
03C0
0760
0660
0670
0C30
0C38
1818
1818
3FFC
3FFC
300E
6006
6007
C003
ENDCHAR
STARTCHAR 01FB
ENCODING 507
SWIDTH 585 0
DWIDTH 13 0
BBX 10 20 1 0
BITMAP
0080
0180
0F00
1100
1100
1100
0E00
0000
3F00
FF80
41C0
00C0
00C0
3FC0
7FC0
C0C0
C0C0
E1C0
7FC0
3EC0
ENDCHAR
STARTCHAR 01FC
ENCODING 508
SWIDTH 1035 0
DWIDTH 23 0
BBX 22 20 0 0
BITMAP
000600
000C00
001800
000000
007FFC
00FFFC
00D800
019800
019800
031800
071800
061FF8
0E1FF8
0C1800
1FF800
1FF800
301800
701800
601FFC
E01FFC
ENDCHAR
STARTCHAR 01FD
ENCODING 509
SWIDTH 990 0
DWIDTH 22 0
BBX 20 17 1 0
BITMAP
003800
007000
00C000
000000
000000
3F0F80
FFBFC0
41F0E0
00E070
00C030
3FFFF0
7FFFF0
C0E000
C0E000
E1F060
7FBFE0
3E0F80
ENDCHAR
STARTCHAR 01FE
ENCODING 510
SWIDTH 855 0
DWIDTH 19 0
BBX 17 21 1 -1
BITMAP
007000
00C000
018000
000200
07E600
1FFC00
3C1C00
701E00
603700
E06300
C04300
C0C380
C18380
C30300
E20300
660700
7C0E00
3C1C00
1FF800
37E000
600000
ENDCHAR
STARTCHAR 01FF
ENCODING 511
SWIDTH 630 0
DWIDTH 14 0
BBX 12 18 1 -1
BITMAP
01C0
0300
0600
0020
0020
1FC0
3FC0
70E0
E170
C330
C230
C430
CC30
E870
70E0
3FC0
3F80
4000
ENDCHAR
STARTCHAR 0200
ENCODING 512
SWIDTH 720 0
DWIDTH 16 0
BBX 16 20 0 0
BITMAP
1980
0CC0
0660
0000
0180
03C0
03C0
0760
0660
0670
0C30
0C38
1818
1818
3FFC
3FFC
300E
6006
6007
C003
ENDCHAR
STARTCHAR 0201
ENCODING 513
SWIDTH 585 0
DWIDTH 13 0
BBX 10 17 1 0
BITMAP
6E00
6600
3300
0000
0000
3F00
FF80
41C0
00C0
00C0
3FC0
7FC0
C0C0
C0C0
E1C0
7FC0
3EC0
ENDCHAR
STARTCHAR 0202
ENCODING 514
SWIDTH 720 0
DWIDTH 16 0
BBX 16 20 0 0
BITMAP
03E0
0620
0430
0000
0180
03C0
03C0
0760
0660
0670
0C30
0C38
1818
1818
3FFC
3FFC
300E
6006
6007
C003
ENDCHAR
STARTCHAR 0203
ENCODING 515
SWIDTH 585 0
DWIDTH 13 0
BBX 10 17 1 0
BITMAP
1E00
3180
2180
0000
0000
3F00
FF80
41C0
00C0
00C0
3FC0
7FC0
C0C0
C0C0
E1C0
7FC0
3EC0
ENDCHAR
STARTCHAR 0204
ENCODING 516
SWIDTH 675 0
DWIDTH 15 0
BBX 12 20 2 0
BITMAP
6600
3300
1900
0000
FFE0
FFE0
E000
E000
E000
E000
E000
FFC0
FFC0
E000
E000
E000
E000
E000
FFF0
FFF0
ENDCHAR
STARTCHAR 0205
ENCODING 517
SWIDTH 630 0
DWIDTH 14 0
BBX 12 17 1 0
BITMAP
6600
3300
1300
0000
0000
1F00
3FC0
70E0
E060
C030
FFF0
FFF0
C000
E000
7040
3FE0
0F80
ENDCHAR
STARTCHAR 0206
ENCODING 518
SWIDTH 675 0
DWIDTH 15 0
BBX 12 20 2 0
BITMAP
1F00
1180
3080
0000
FFE0
FFE0
E000
E000
E000
E000
E000
FFC0
FFC0
E000
E000
E000
E000
E000
FFF0
FFF0
ENDCHAR
STARTCHAR 0207
ENCODING 519
SWIDTH 630 0
DWIDTH 14 0
BBX 12 17 1 0
BITMAP
0F00
1980
3080
0000
0000
1F00
3FC0
70E0
E060
C030
FFF0
FFF0
C000
E000
7040
3FE0
0F80
ENDCHAR
STARTCHAR 0208
ENCODING 520
SWIDTH 315 0
DWIDTH 7 0
BBX 7 20 -1 0
BITMAP
DC
CC
66
00
1C
1C
1C
1C
1C
1C
1C
1C
1C
1C
1C
1C
1C
1C
1C
1C
ENDCHAR
STARTCHAR 0209
ENCODING 521
SWIDTH 270 0
DWIDTH 6 0
BBX 8 17 -2 0
BITMAP
CC
66
33
00
00
0C
0C
0C
0C
0C
0C
0C
0C
0C
0C
0C
0C
ENDCHAR
STARTCHAR 020A
ENCODING 522
SWIDTH 315 0
DWIDTH 7 0
BBX 7 20 0 0
BITMAP
7C
C6
82
00
38
38
38
38
38
38
38
38
38
38
38
38
38
38
38
38
ENDCHAR
STARTCHAR 020B
ENCODING 523
SWIDTH 270 0
DWIDTH 6 0
BBX 6 17 0 0
BITMAP
78
CC
84
00
00
30
30
30
30
30
30
30
30
30
30
30
30
ENDCHAR
STARTCHAR 020C
ENCODING 524
SWIDTH 855 0
DWIDTH 19 0
BBX 17 20 1 0
BITMAP
1DC000
0CC000
066000
000000
07E000
1FF800
3C1C00
700E00
600700
E00300
C00300
C00380
C00380
C00300
E00300
600700
700E00
3C1C00
1FF800
07E000
ENDCHAR
STARTCHAR 020D
ENCODING 525
SWIDTH 630 0
DWIDTH 14 0
BBX 12 17 1 0
BITMAP
6600
3300
1980
0000
0000
1F80
3FC0
70E0
E070
C030
C030
C030
C030
E070
70E0
3FC0
1F80
ENDCHAR
STARTCHAR 020E
ENCODING 526
SWIDTH 855 0
DWIDTH 19 0
BBX 17 20 1 0
BITMAP
03C000
062000
043000
000000
07E000
1FF800
3C1C00
700E00
600700
E00300
C00300
C00380
C00380
C00300
E00300
600700
700E00
3C1C00
1FF800
07E000
ENDCHAR
STARTCHAR 020F
ENCODING 527
SWIDTH 630 0
DWIDTH 14 0
BBX 12 17 1 0
BITMAP
0F00
1980
10C0
0000
0000
1F80
3FC0
70E0
E070
C030
C030
C030
C030
E070
70E0
3FC0
1F80
ENDCHAR
STARTCHAR 0210
ENCODING 528
SWIDTH 720 0
DWIDTH 16 0
BBX 13 20 2 0
BITMAP
7600
3300
1980
0000
FF80
FFE0
E070
E038
E018
E018
E018
E038
E070
FFE0
FF80
E0C0
E0E0
E060
E030
E038
ENDCHAR
STARTCHAR 0211
ENCODING 529
SWIDTH 405 0
DWIDTH 9 0
BBX 8 17 0 0
BITMAP
CC
66
33
00
00
33
3F
3C
38
30
30
30
30
30
30
30
30
ENDCHAR
STARTCHAR 0212
ENCODING 530
SWIDTH 720 0
DWIDTH 16 0
BBX 13 20 2 0
BITMAP
0F80
18C0
10C0
0000
FF80
FFE0
E070
E038
E018
E018
E018
E038
E070
FFE0
FF80
E0C0
E0E0
E060
E030
E038
ENDCHAR
STARTCHAR 0213
ENCODING 531
SWIDTH 405 0
DWIDTH 9 0
BBX 7 17 2 0
BITMAP
78
CC
86
00
00
CC
FC
F0
E0
C0
C0
C0
C0
C0
C0
C0
C0
ENDCHAR
STARTCHAR 0214
ENCODING 532
SWIDTH 810 0
DWIDTH 18 0
BBX 13 20 2 0
BITMAP
3300
1980
0980
0000
C018
C018
C018
C018
C018
C018
C018
C018
C018
C018
E018
E018
6038
7070
3FE0
0FC0
ENDCHAR
STARTCHAR 0215
ENCODING 533
SWIDTH 675 0
DWIDTH 15 0
BBX 11 17 2 0
BITMAP
6E00
6600
3300
0000
0000
C060
C060
C060
C060
C060
C060
C060
C060
C0E0
E1E0
7FE0
3E60
ENDCHAR
STARTCHAR 0216
ENCODING 534
SWIDTH 810 0
DWIDTH 18 0
BBX 13 20 2 0
BITMAP
0F80
08C0
1840
0000
C018
C018
C018
C018
C018
C018
C018
C018
C018
C018
E018
E018
6038
7070
3FE0
0FC0
ENDCHAR
STARTCHAR 0217
ENCODING 535
SWIDTH 675 0
DWIDTH 15 0
BBX 11 17 2 0
BITMAP
1F00
3180
2180
0000
0000
C060
C060
C060
C060
C060
C060
C060
C060
C0E0
E1E0
7FE0
3E60
ENDCHAR
STARTCHAR 0218
ENCODING 536
SWIDTH 630 0
DWIDTH 14 0
BBX 12 22 1 -6
BITMAP
1F80
3FE0
7060
E000
C000
E000
7000
3F00
0FC0
00E0
0070
0030
0030
E060
FFE0
1F80
0000
0000
0600
0600
0200
0400
ENDCHAR
STARTCHAR 0219
ENCODING 537
SWIDTH 495 0
DWIDTH 11 0
BBX 9 18 1 -6
BITMAP
3F00
7F80
C000
C000
E000
7C00
3F80
0380
0180
8180
FF80
7E00
0000
0000
0800
1C00
0800
0800
ENDCHAR
STARTCHAR 021A
ENCODING 538
SWIDTH 585 0
DWIDTH 13 0
BBX 13 22 0 -6
BITMAP
FFF8
FFF8
0700
0700
0700
0700
0700
0700
0700
0700
0700
0700
0700
0700
0700
0700
0000
0000
0200
0700
0200
0200
ENDCHAR
STARTCHAR 021B
ENCODING 539
SWIDTH 405 0
DWIDTH 9 0
BBX 8 21 0 -6
BITMAP
30
30
30
FF
FF
30
30
30
30
30
30
30
38
1F
0F
00
00
06
06
04
04
ENDCHAR
STARTCHAR 021E
ENCODING 542
SWIDTH 810 0
DWIDTH 18 0
BBX 14 20 2 0
BITMAP
0CC0
0780
0300
0000
E01C
E01C
E01C
E01C
E01C
E01C
E01C
FFFC
FFFC
E01C
E01C
E01C
E01C
E01C
E01C
E01C
ENDCHAR
STARTCHAR 021F
ENCODING 543
SWIDTH 675 0
DWIDTH 15 0
BBX 14 22 -1 0
BITMAP
C300
3E00
1C00
0000
0000
1800
1800
1800
1800
1800
19F0
1FF8
1E1C
1C0C
180C
180C
180C
180C
180C
180C
180C
180C
ENDCHAR
STARTCHAR 022A
ENCODING 554
SWIDTH 855 0
DWIDTH 19 0
BBX 17 22 1 0
BITMAP
07F000
000000
066000
066000
000000
000000
07E000
1FF800
3C1C00
700E00
600700
E00300
C00300
C00380
C00380
C00300
E00300
600700
700E00
3C1C00
1FF800
07E000
ENDCHAR
STARTCHAR 022B
ENCODING 555
SWIDTH 630 0
DWIDTH 14 0
BBX 12 18 1 0
BITMAP
3FC0
0000
1980
1980
0000
0000
1F80
3FC0
70E0
E070
C030
C030
C030
C030
E070
70E0
3FC0
1F80
ENDCHAR
STARTCHAR 022C
ENCODING 556
SWIDTH 855 0
DWIDTH 19 0
BBX 17 22 1 0
BITMAP
07F000
000000
000000
079000
04E000
000000
07E000
1FF800
3C1C00
700E00
600700
E00300
C00300
C00380
C00380
C00300
E00300
600700
700E00
3C1C00
1FF800
07E000
ENDCHAR
STARTCHAR 022D
ENCODING 557
SWIDTH 630 0
DWIDTH 14 0
BBX 12 18 1 0
BITMAP
3FC0
0000
1CC0
3380
0000
0000
1F80
3FC0
70E0
E070
C030
C030
C030
C030
E070
70E0
3FC0
1F80
ENDCHAR
STARTCHAR 0230
ENCODING 560
SWIDTH 855 0
DWIDTH 19 0
BBX 17 22 1 0
BITMAP
07F000
000000
018000
018000
000000
000000
07E000
1FF800
3C1C00
700E00
600700
E00300
C00300
C00380
C00380
C00300
E00300
600700
700E00
3C1C00
1FF800
07E000
ENDCHAR
STARTCHAR 0231
ENCODING 561
SWIDTH 630 0
DWIDTH 14 0
BBX 12 18 1 0
BITMAP
3FC0
0000
0600
0600
0000
0000
1F80
3FC0
70E0
E070
C030
C030
C030
C030
E070
70E0
3FC0
1F80
ENDCHAR
STARTCHAR 0232
ENCODING 562
SWIDTH 630 0
DWIDTH 14 0
BBX 14 19 0 0
BITMAP
0FE0
0000
0000
E00C
601C
7018
3030
1830
1C60
0CE0
0EC0
0780
0380
0300
0300
0300
0300
0300
0300
ENDCHAR
STARTCHAR 0233
ENCODING 563
SWIDTH 540 0
DWIDTH 12 0
BBX 12 21 0 -5
BITMAP
3FC0
0000
0000
0000
C030
6030
6060
7060
3060
30C0
18C0
1980
0D80
0F00
0F00
0700
0600
0600
8C00
FC00
F800
ENDCHAR
STARTCHAR 0237
ENCODING 567
SWIDTH 270 0
DWIDTH 6 0
BBX 6 17 -2 -5
BITMAP
0C
0C
0C
0C
0C
0C
0C
0C
0C
0C
0C
0C
0C
0C
0C
FC
F8
ENDCHAR
STARTCHAR 0259
ENCODING 601
SWIDTH 630 0
DWIDTH 14 0
BBX 12 12 1 0
BITMAP
1F00
7FC0
60E0
0060
0060
FFF0
FFF0
C070
C060
60E0
3FC0
1F00
ENDCHAR
STARTCHAR 0292
ENCODING 658
SWIDTH 540 0
DWIDTH 12 0
BBX 11 17 0 -5
BITMAP
FFC0
FFC0
01C0
0180
0300
0600
0E00
0F00
0FC0
00C0
0060
0060
0060
80E0
C1C0
7FC0
3F00
ENDCHAR
STARTCHAR 02B9
ENCODING 697
SWIDTH 225 0
DWIDTH 5 0
BBX 2 6 1 10
BITMAP
C0
C0
C0
C0
C0
40
ENDCHAR
STARTCHAR 02BA
ENCODING 698
SWIDTH 405 0
DWIDTH 9 0
BBX 6 6 1 10
BITMAP
CC
CC
CC
CC
C4
44
ENDCHAR
STARTCHAR 02BB
ENCODING 699
SWIDTH 270 0
DWIDTH 6 0
BBX 3 6 1 13
BITMAP
20
60
60
60
E0
60
ENDCHAR
STARTCHAR 02BC
ENCODING 700
SWIDTH 180 0
DWIDTH 4 0
BBX 2 6 1 10
BITMAP
C0
C0
C0
80
80
80
ENDCHAR
STARTCHAR 02BE
ENCODING 702
SWIDTH 585 0
DWIDTH 13 0
BBX 2 5 7 13
BITMAP
80
40
40
40
80
ENDCHAR
STARTCHAR 02BF
ENCODING 703
SWIDTH 585 0
DWIDTH 13 0
BBX 3 5 4 13
BITMAP
60
C0
80
C0
60
ENDCHAR
STARTCHAR 02C6
ENCODING 710
SWIDTH 585 0
DWIDTH 13 0
BBX 7 3 3 13
BITMAP
38
6C
C6
ENDCHAR
STARTCHAR 02C7
ENCODING 711
SWIDTH 585 0
DWIDTH 13 0
BBX 7 3 3 13
BITMAP
C6
6C
38
ENDCHAR
STARTCHAR 02C8
ENCODING 712
SWIDTH 180 0
DWIDTH 4 0
BBX 2 4 1 12
BITMAP
C0
C0
C0
C0
ENDCHAR
STARTCHAR 02C9
ENCODING 713
SWIDTH 585 0
DWIDTH 13 0
BBX 7 1 3 15
BITMAP
FE
ENDCHAR
STARTCHAR 02CA
ENCODING 714
SWIDTH 585 0
DWIDTH 13 0
BBX 5 3 5 13
BITMAP
38
70
C0
ENDCHAR
STARTCHAR 02CB
ENCODING 715
SWIDTH 585 0
DWIDTH 13 0
BBX 5 3 3 13
BITMAP
E0
30
18
ENDCHAR
STARTCHAR 02CC
ENCODING 716
SWIDTH 180 0
DWIDTH 4 0
BBX 2 4 1 -5
BITMAP
C0
C0
C0
C0
ENDCHAR
STARTCHAR 02D8
ENCODING 728
SWIDTH 585 0
DWIDTH 13 0
BBX 7 3 3 13
BITMAP
C2
46
3C
ENDCHAR
STARTCHAR 02D9
ENCODING 729
SWIDTH 585 0
DWIDTH 13 0
BBX 3 3 5 14
BITMAP
60
E0
40
ENDCHAR
STARTCHAR 02DA
ENCODING 730
SWIDTH 585 0
DWIDTH 13 0
BBX 5 5 4 13
BITMAP
70
C8
88
C8
70
ENDCHAR
STARTCHAR 02DB
ENCODING 731
SWIDTH 585 0
DWIDTH 13 0
BBX 4 6 3 -5
BITMAP
20
60
80
80
80
F0
ENDCHAR
STARTCHAR 02DC
ENCODING 732
SWIDTH 585 0
DWIDTH 13 0
BBX 7 3 3 14
BITMAP
40
F2
8E
ENDCHAR
STARTCHAR 02DD
ENCODING 733
SWIDTH 585 0
DWIDTH 13 0
BBX 8 3 4 13
BITMAP
77
66
CC
ENDCHAR
STARTCHAR 0300
ENCODING 768
SWIDTH 0 0
DWIDTH 0 0
BBX 5 3 -10 13
BITMAP
C0
70
38
ENDCHAR
STARTCHAR 0301
ENCODING 769
SWIDTH 0 0
DWIDTH 0 0
BBX 5 3 -8 13
BITMAP
38
60
C0
ENDCHAR
STARTCHAR 0302
ENCODING 770
SWIDTH 0 0
DWIDTH 0 0
BBX 7 3 -10 13
BITMAP
38
6C
C6
ENDCHAR
STARTCHAR 0303
ENCODING 771
SWIDTH 0 0
DWIDTH 0 0
BBX 7 3 -10 14
BITMAP
40
F2
9E
ENDCHAR
STARTCHAR 0304
ENCODING 772
SWIDTH 0 0
DWIDTH 0 0
BBX 7 1 -10 15
BITMAP
FE
ENDCHAR
STARTCHAR 0306
ENCODING 774
SWIDTH 0 0
DWIDTH 0 0
BBX 7 3 -10 13
BITMAP
86
CC
78
ENDCHAR
STARTCHAR 0307
ENCODING 775
SWIDTH 0 0
DWIDTH 0 0
BBX 3 3 -8 14
BITMAP
C0
E0
40
ENDCHAR
STARTCHAR 0308
ENCODING 776
SWIDTH 0 0
DWIDTH 0 0
BBX 6 2 -10 14
BITMAP
CC
CC
ENDCHAR
STARTCHAR 0309
ENCODING 777
SWIDTH 0 0
DWIDTH 0 0
BBX 5 4 -9 13
BITMAP
F0
18
18
30
ENDCHAR
STARTCHAR 030A
ENCODING 778
SWIDTH 0 0
DWIDTH 0 0
BBX 5 5 -9 13
BITMAP
70
98
88
98
70
ENDCHAR
STARTCHAR 030B
ENCODING 779
SWIDTH 0 0
DWIDTH 0 0
BBX 7 3 -9 13
BITMAP
66
CC
C8
ENDCHAR
STARTCHAR 030C
ENCODING 780
SWIDTH 0 0
DWIDTH 0 0
BBX 7 3 -10 13
BITMAP
C6
6C
38
ENDCHAR
STARTCHAR 030F
ENCODING 783
SWIDTH 0 0
DWIDTH 0 0
BBX 8 3 -12 13
BITMAP
EE
66
33
ENDCHAR
STARTCHAR 0311
ENCODING 785
SWIDTH 0 0
DWIDTH 0 0
BBX 7 3 -10 14
BITMAP
78
CC
86
ENDCHAR
STARTCHAR 0312
ENCODING 786
SWIDTH 0 0
DWIDTH 0 0
BBX 2 4 -8 13
BITMAP
40
40
C0
C0
ENDCHAR
STARTCHAR 031B
ENCODING 795
SWIDTH 0 0
DWIDTH 0 0
BBX 3 5 -7 10
BITMAP
20
20
60
E0
80
ENDCHAR
STARTCHAR 0323
ENCODING 803
SWIDTH 0 0
DWIDTH 0 0
BBX 2 2 -8 -5
BITMAP
C0
C0
ENDCHAR
STARTCHAR 0324
ENCODING 804
SWIDTH 0 0
DWIDTH 0 0
BBX 6 2 -10 -4
BITMAP
CC
CC
ENDCHAR
STARTCHAR 0326
ENCODING 806
SWIDTH 0 0
DWIDTH 0 0
BBX 2 4 -8 -6
BITMAP
C0
C0
40
C0
ENDCHAR
STARTCHAR 0327
ENCODING 807
SWIDTH 0 0
DWIDTH 0 0
BBX 5 5 -9 -5
BITMAP
20
60
10
18
F0
ENDCHAR
STARTCHAR 0328
ENCODING 808
SWIDTH 0 0
DWIDTH 0 0
BBX 5 6 -11 -5
BITMAP
10
60
C0
C0
C0
78
ENDCHAR
STARTCHAR 032E
ENCODING 814
SWIDTH 0 0
DWIDTH 0 0
BBX 7 3 -10 -5
BITMAP
86
C6
78
ENDCHAR
STARTCHAR 0331
ENCODING 817
SWIDTH 0 0
DWIDTH 0 0
BBX 7 1 -10 -4
BITMAP
FE
ENDCHAR
STARTCHAR 0335
ENCODING 821
SWIDTH 0 0
DWIDTH 0 0
BBX 9 2 -11 9
BITMAP
FF80
FF80
ENDCHAR
STARTCHAR 0336
ENCODING 822
SWIDTH 0 0
DWIDTH 0 0
BBX 18 2 -19 9
BITMAP
FFFFC0
FFFFC0
ENDCHAR
STARTCHAR 0337
ENCODING 823
SWIDTH 0 0
DWIDTH 0 0
BBX 7 6 -8 6
BITMAP
04
0E
18
70
E0
80
ENDCHAR
STARTCHAR 0338
ENCODING 824
SWIDTH 0 0
DWIDTH 0 0
BBX 10 15 -12 -2
BITMAP
0040
00C0
0080
0100
0300
0200
0400
0C00
0800
1000
3000
2000
4000
C000
8000
ENDCHAR
STARTCHAR 0394
ENCODING 916
SWIDTH 720 0
DWIDTH 16 0
BBX 16 16 0 0
BITMAP
0180
03C0
03C0
0760
0660
0670
0C30
0C38
1818
1818
380C
300C
300E
6006
7FFF
FFFF
ENDCHAR
STARTCHAR 03A9
ENCODING 937
SWIDTH 900 0
DWIDTH 20 0
BBX 20 16 0 0
BITMAP
01F800
07FE00
0E0700
1C0380
380180
3000C0
3000C0
3000C0
3000C0
3000C0
3000C0
180180
1C0380
0E0700
FF0FF0
FF0FF0
ENDCHAR
STARTCHAR 03BC
ENCODING 956
SWIDTH 675 0
DWIDTH 15 0
BBX 11 17 2 -5
BITMAP
C060
C060
C060
C060
C060
C060
C060
C060
E0E0
E1E0
FFE0
DF60
C000
C000
C000
C000
C000
ENDCHAR
STARTCHAR 03C0
ENCODING 960
SWIDTH 720 0
DWIDTH 16 0
BBX 16 12 0 0
BITMAP
3FFF
FFFF
C638
C638
C638
C638
0E38
0C38
0C38
0C38
0C38
0C38
ENDCHAR
STARTCHAR 0400
ENCODING 1024
SWIDTH 675 0
DWIDTH 15 0
BBX 12 20 2 0
BITMAP
1800
0C00
0600
0000
FFE0
FFE0
E000
E000
E000
E000
E000
FFC0
FFC0
E000
E000
E000
E000
E000
FFF0
FFF0
ENDCHAR
STARTCHAR 0401
ENCODING 1025
SWIDTH 675 0
DWIDTH 15 0
BBX 12 20 2 0
BITMAP
1980
1980
0000
0000
FFE0
FFE0
E000
E000
E000
E000
E000
FFC0
FFC0
E000
E000
E000
E000
E000
FFF0
FFF0
ENDCHAR
STARTCHAR 0402
ENCODING 1026
SWIDTH 855 0
DWIDTH 19 0
BBX 18 16 0 0
BITMAP
FFFC00
FFFC00
030000
030000
030000
030000
037E00
03FF00
038380
030180
0301C0
0301C0
0301C0
030380
031F00
031E00
ENDCHAR
STARTCHAR 0403
ENCODING 1027
SWIDTH 585 0
DWIDTH 13 0
BBX 11 20 2 0
BITMAP
0380
0600
0C00
0000
FFE0
FFE0
E000
E000
E000
E000
E000
E000
E000
E000
E000
E000
E000
E000
E000
E000
ENDCHAR
STARTCHAR 0404
ENCODING 1028
SWIDTH 720 0
DWIDTH 16 0
BBX 14 16 1 0
BITMAP
07E0
1FF8
3C1C
7008
6000
6000
E000
FFC0
FFC0
E000
6000
6000
7008
3C1C
1FF8
07E0
ENDCHAR
STARTCHAR 0405
ENCODING 1029
SWIDTH 630 0
DWIDTH 14 0
BBX 12 16 1 0
BITMAP
1FC0
3FE0
7060
6000
E000
6000
7800
3F00
0FE0
00F0
0070
0030
0030
E070
7FE0
1F80
ENDCHAR
STARTCHAR 0406
ENCODING 1030
SWIDTH 315 0
DWIDTH 7 0
BBX 3 16 2 0
BITMAP
E0
E0
E0
E0
E0
E0
E0
E0
E0
E0
E0
E0
E0
E0
E0
E0
ENDCHAR
STARTCHAR 0407
ENCODING 1031
SWIDTH 315 0
DWIDTH 7 0
BBX 7 20 0 0
BITMAP
C4
CE
00
00
38
38
38
38
38
38
38
38
38
38
38
38
38
38
38
38
ENDCHAR
STARTCHAR 0408
ENCODING 1032
SWIDTH 540 0
DWIDTH 12 0
BBX 9 16 1 0
BITMAP
7F80
7F80
0180
0180
0180
0180
0180
0180
0180
0180
0180
0180
8380
C300
FF00
3C00
ENDCHAR
STARTCHAR 0409
ENCODING 1033
SWIDTH 1170 0
DWIDTH 26 0
BBX 25 16 0 0
BITMAP
0FFE0000
0FFE0000
0C060000
0C060000
0C060000
0C07FC00
0C07FF00
0C060380
0C060180
0C060180
0C060180
18060180
18060180
38060380
F007FF00
E007FC00
ENDCHAR
STARTCHAR 040A
ENCODING 1034
SWIDTH 1170 0
DWIDTH 26 0
BBX 23 16 2 0
BITMAP
E01800
E01800
E01800
E01800
E01800
E01800
FFFFF0
FFFFFC
E0180E
E01806
E01806
E01806
E01806
E0180E
E01FFC
E01FF8
ENDCHAR
STARTCHAR 040B
ENCODING 1035
SWIDTH 855 0
DWIDTH 19 0
BBX 18 16 0 0
BITMAP
FFFC00
FFFC00
030000
030000
030000
030000
037E00
03FF00
038380
030180
0301C0
0301C0
0301C0
0301C0
0301C0
0301C0
ENDCHAR
STARTCHAR 040C
ENCODING 1036
SWIDTH 720 0
DWIDTH 16 0
BBX 13 20 2 0
BITMAP
0180
0300
0600
0000
E038
E030
E060
E0E0
E0C0
E180
E380
FF00
FF00
E380
E1C0
E0C0
E0E0
E070
E030
E018
ENDCHAR
STARTCHAR 040D
ENCODING 1037
SWIDTH 810 0
DWIDTH 18 0
BBX 14 20 2 0
BITMAP
0C00
0600
0300
0000
E01C
E01C
E03C
E07C
E0EC
E0CC
E1CC
E38C
E70C
E60C
EE0C
FC0C
F80C
F00C
F00C
E00C
ENDCHAR
STARTCHAR 040E
ENCODING 1038
SWIDTH 675 0
DWIDTH 15 0
BBX 14 20 1 0
BITMAP
1040
18C0
0F80
0000
C00C
C018
6018
6030
3030
3860
1860
1CC0
0CC0
0F80
0780
0700
0600
0E00
7C00
7800
ENDCHAR
STARTCHAR 040F
ENCODING 1039
SWIDTH 810 0
DWIDTH 18 0
BBX 13 20 2 -4
BITMAP
E018
E018
E018
E018
E018
E018
E018
E018
E018
E018
E018
E018
E018
E018
FFF8
FFF8
0300
0300
0300
0300
ENDCHAR
STARTCHAR 0410
ENCODING 1040
SWIDTH 765 0
DWIDTH 17 0
BBX 16 16 0 0
BITMAP
01C0
01C0
03E0
0360
0660
0630
0E30
0C18
0C18
181C
1FFC
3FFE
3006
7006
6003
E003
ENDCHAR
STARTCHAR 0411
ENCODING 1041
SWIDTH 720 0
DWIDTH 16 0
BBX 13 16 2 0
BITMAP
FFF0
FFF0
E000
E000
E000
E000
FFC0
FFF0
E038
E018
E018
E018
E018
E038
FFF0
FFC0
ENDCHAR
STARTCHAR 0412
ENCODING 1042
SWIDTH 765 0
DWIDTH 17 0
BBX 13 16 2 0
BITMAP
FFC0
FFF0
E070
E030
E030
E030
E070
FFC0
FFF0
E038
E018
E018
E018
E038
FFF0
FFE0
ENDCHAR
STARTCHAR 0413
ENCODING 1043
SWIDTH 585 0
DWIDTH 13 0
BBX 11 16 2 0
BITMAP
FFE0
FFE0
E000
E000
E000
E000
E000
E000
E000
E000
E000
E000
E000
E000
E000
E000
ENDCHAR
STARTCHAR 0414
ENCODING 1044
SWIDTH 810 0
DWIDTH 18 0
BBX 17 19 0 -3
BITMAP
0FFE00
0FFE00
0C0600
0C0600
0C0600
0C0600
0C0600
0C0600
0C0600
0C0600
180600
180600
180600
300600
FFFF80
FFFF80
C00180
C00180
C00180
ENDCHAR
STARTCHAR 0415
ENCODING 1045
SWIDTH 675 0
DWIDTH 15 0
BBX 12 16 2 0
BITMAP
FFE0
FFE0
E000
E000
E000
E000
E000
FFC0
FFC0
E000
E000
E000
E000
E000
FFF0
FFF0
ENDCHAR
STARTCHAR 0416
ENCODING 1046
SWIDTH 1035 0
DWIDTH 23 0
BBX 21 16 1 0
BITMAP
C07038
607030
707070
307060
1870C0
1871C0
0C7180
0FFF00
0FFF80
1C7180
1871C0
3870E0
307060
707070
E07038
C07018
ENDCHAR
STARTCHAR 0417
ENCODING 1047
SWIDTH 630 0
DWIDTH 14 0
BBX 12 16 1 0
BITMAP
3F00
FFC0
40E0
0060
0060
0060
00E0
1FC0
1FC0
0060
0030
0030
0070
C0E0
FFC0
3F80
ENDCHAR
STARTCHAR 0418
ENCODING 1048
SWIDTH 810 0
DWIDTH 18 0
BBX 14 16 2 0
BITMAP
E01C
E01C
E03C
E07C
E0EC
E0CC
E1CC
E38C
E70C
E60C
EE0C
FC0C
F80C
F00C
F00C
E00C
ENDCHAR
STARTCHAR 0419
ENCODING 1049
SWIDTH 810 0
DWIDTH 18 0
BBX 14 20 2 0
BITMAP
1860
0CE0
0780
0000
E01C
E01C
E03C
E07C
E0EC
E0CC
E1CC
E38C
E70C
E60C
EE0C
FC0C
F80C
F00C
F00C
E00C
ENDCHAR
STARTCHAR 041A
ENCODING 1050
SWIDTH 720 0
DWIDTH 16 0
BBX 13 16 2 0
BITMAP
E038
E030
E060
E0E0
E0C0
E180
E380
FF00
FF00
E380
E1C0
E0C0
E0E0
E070
E030
E018
ENDCHAR
STARTCHAR 041B
ENCODING 1051
SWIDTH 810 0
DWIDTH 18 0
BBX 15 16 0 0
BITMAP
0FFE
0FFE
0C06
0C06
0C06
0C06
0C06
0C06
0C06
0C06
0C06
1806
1806
3806
F006
E006
ENDCHAR
STARTCHAR 041C
ENCODING 1052
SWIDTH 945 0
DWIDTH 21 0
BBX 17 16 2 0
BITMAP
E00180
E00380
F00380
F00780
F80780
F80D80
EC1D80
EE1980
E63180
E33180
E36180
E1E180
E1C180
E0C180
E00180
E00180
ENDCHAR
STARTCHAR 041D
ENCODING 1053
SWIDTH 810 0
DWIDTH 18 0
BBX 14 16 2 0
BITMAP
E00C
E00C
E00C
E00C
E00C
E00C
E00C
FFFC
FFFC
E00C
E00C
E00C
E00C
E00C
E00C
E00C
ENDCHAR
STARTCHAR 041E
ENCODING 1054
SWIDTH 855 0
DWIDTH 19 0
BBX 17 16 1 0
BITMAP
07E000
1FF800
3C1E00
700600
600700
600300
E00380
C00380
C00380
E00380
E00300
600700
700600
3C1E00
1FF800
07E000
ENDCHAR
STARTCHAR 041F
ENCODING 1055
SWIDTH 810 0
DWIDTH 18 0
BBX 14 16 2 0
BITMAP
FFFC
FFFC
E00C
E00C
E00C
E00C
E00C
E00C
E00C
E00C
E00C
E00C
E00C
E00C
E00C
E00C
ENDCHAR
STARTCHAR 0420
ENCODING 1056
SWIDTH 720 0
DWIDTH 16 0
BBX 13 16 2 0
BITMAP
FFC0
FFE0
E070
E038
E018
E018
E018
E038
E070
FFE0
FFC0
E000
E000
E000
E000
E000
ENDCHAR
STARTCHAR 0421
ENCODING 1057
SWIDTH 720 0
DWIDTH 16 0
BBX 14 16 1 0
BITMAP
07E0
1FF8
3C1C
7000
6000
6000
E000
C000
C000
E000
6000
6000
7000
3C1C
1FF8
07E0
ENDCHAR
STARTCHAR 0422
ENCODING 1058
SWIDTH 585 0
DWIDTH 13 0
BBX 13 16 0 0
BITMAP
FFF8
FFF8
0300
0300
0300
0300
0300
0300
0300
0300
0300
0300
0300
0300
0300
0300
ENDCHAR
STARTCHAR 0423
ENCODING 1059
SWIDTH 675 0
DWIDTH 15 0
BBX 14 16 1 0
BITMAP
C00C
C018
6018
6030
3030
3860
1860
1CC0
0CC0
0F80
0780
0700
0600
0E00
7C00
7800
ENDCHAR
STARTCHAR 0424
ENCODING 1060
SWIDTH 945 0
DWIDTH 21 0
BBX 19 17 1 -1
BITMAP
00C000
03F800
1FFE00
3CC780
70C1C0
E0C0C0
C0C0C0
C0C0E0
C0C0E0
C0C0C0
E0C0C0
60C1C0
38C380
1FFF00
07FC00
00C000
00C000
ENDCHAR
STARTCHAR 0425
ENCODING 1061
SWIDTH 675 0
DWIDTH 15 0
BBX 13 16 1 0
BITMAP
E038
6070
7060
38E0
19C0
1D80
0F80
0700
0700
0F80
1DC0
38C0
30E0
7070
E030
C038
ENDCHAR
STARTCHAR 0426
ENCODING 1062
SWIDTH 810 0
DWIDTH 18 0
BBX 16 20 2 -4
BITMAP
E018
E018
E018
E018
E018
E018
E018
E018
E018
E018
E018
E018
E018
E018
FFFF
FFFF
0003
0003
0003
0003
ENDCHAR
STARTCHAR 0427
ENCODING 1063
SWIDTH 720 0
DWIDTH 16 0
BBX 13 16 1 0
BITMAP
C018
C018
C018
C018
C018
C018
E018
E018
7078
3FF8
1F98
0018
0018
0018
0018
0018
ENDCHAR
STARTCHAR 0428
ENCODING 1064
SWIDTH 1080 0
DWIDTH 24 0
BBX 20 16 2 0
BITMAP
E06030
E06030
E06030
E06030
E06030
E06030
E06030
E06030
E06030
E06030
E06030
E06030
E06030
E06030
FFFFF0
FFFFF0
ENDCHAR
STARTCHAR 0429
ENCODING 1065
SWIDTH 1125 0
DWIDTH 25 0
BBX 22 19 2 -3
BITMAP
E06030
E06030
E06030
E06030
E06030
E06030
E06030
E06030
E06030
E06030
E06030
E06030
E06030
E06030
FFFFFC
FFFFFC
00000C
00000C
00000C
ENDCHAR
STARTCHAR 042A
ENCODING 1066
SWIDTH 810 0
DWIDTH 18 0
BBX 17 16 0 0
BITMAP
FE0000
FE0000
060000
060000
060000
07FC00
07FF00
060380
060180
060180
060180
060180
060180
060380
07FF00
07FC00
ENDCHAR
STARTCHAR 042B
ENCODING 1067
SWIDTH 990 0
DWIDTH 22 0
BBX 18 16 2 0
BITMAP
E001C0
E001C0
E001C0
E001C0
E001C0
E001C0
FFC1C0
FFF1C0
E031C0
E039C0
E019C0
E019C0
E039C0
E031C0
FFF1C0
FFC1C0
ENDCHAR
STARTCHAR 042C
ENCODING 1068
SWIDTH 720 0
DWIDTH 16 0
BBX 13 16 2 0
BITMAP
E000
E000
E000
E000
E000
E000
FFC0
FFF0
E030
E038
E018
E018
E038
E030
FFF0
FFC0
ENDCHAR
STARTCHAR 042D
ENCODING 1069
SWIDTH 720 0
DWIDTH 16 0
BBX 14 16 1 0
BITMAP
1F80
7FC0
E0F0
0070
0038
0018
0018
0FFC
0FFC
0018
0018
0038
0070
E0F0
7FC0
1F80
ENDCHAR
STARTCHAR 042E
ENCODING 1070
SWIDTH 1080 0
DWIDTH 24 0
BBX 21 16 2 0
BITMAP
E03F00
E07FC0
E1E0E0
E1C070
E38030
E30038
E30018
FF0018
FF0018
E30018
E30018
E38038
E18070
E1E0E0
E07FC0
E03F00
ENDCHAR
STARTCHAR 042F
ENCODING 1071
SWIDTH 720 0
DWIDTH 16 0
BBX 13 16 1 0
BITMAP
0FF8
3FF8
7018
6018
E018
E018
E018
6018
7018
3FF8
1FF8
1818
1818
3018
7018
6018
ENDCHAR
STARTCHAR 0430
ENCODING 1072
SWIDTH 585 0
DWIDTH 13 0
BBX 10 12 1 0
BITMAP
3F00
FF80
41C0
00C0
00C0
3FC0
7FC0
C0C0
C0C0
E1C0
7FC0
3EC0
ENDCHAR
STARTCHAR 0431
ENCODING 1073
SWIDTH 675 0
DWIDTH 15 0
BBX 13 18 1 0
BITMAP
0030
03F0
0FE0
3C00
3000
6000
6780
7FE0
F870
F030
E038
E018
6018
6038
6030
3070
1FE0
0F80
ENDCHAR
STARTCHAR 0432
ENCODING 1074
SWIDTH 630 0
DWIDTH 14 0
BBX 10 12 2 0
BITMAP
FF00
FFC0
C0C0
C0C0
C1C0
FF00
FFC0
C0C0
C0C0
C0C0
FFC0
FF80
ENDCHAR
STARTCHAR 0433
ENCODING 1075
SWIDTH 495 0
DWIDTH 11 0
BBX 9 12 2 0
BITMAP
FF80
FF80
C000
C000
C000
C000
C000
C000
C000
C000
C000
C000
ENDCHAR
STARTCHAR 0434
ENCODING 1076
SWIDTH 675 0
DWIDTH 15 0
BBX 14 15 0 -3
BITMAP
1FF0
1FF0
1830
1830
1830
1830
1830
1830
3030
3030
FFFC
FFFC
C00C
C00C
C00C
ENDCHAR
STARTCHAR 0435
ENCODING 1077
SWIDTH 630 0
DWIDTH 14 0
BBX 12 12 1 0
BITMAP
1F00
3FC0
70E0
E060
C030
FFF0
FFF0
C000
E000
7040
3FE0
0F80
ENDCHAR
STARTCHAR 0436
ENCODING 1078
SWIDTH 855 0
DWIDTH 19 0
BBX 17 12 1 0
BITMAP
C18180
618300
618700
318600
198C00
1FFC00
1FFC00
398E00
318600
618700
E18380
C18180
ENDCHAR
STARTCHAR 0437
ENCODING 1079
SWIDTH 540 0
DWIDTH 12 0
BBX 10 12 1 0
BITMAP
7E00
FF80
0180
01C0
0180
1F00
1F80
00C0
00C0
81C0
FF80
7E00
ENDCHAR
STARTCHAR 0438
ENCODING 1080
SWIDTH 675 0
DWIDTH 15 0
BBX 11 12 2 0
BITMAP
C060
C0E0
C1E0
C1E0
C360
C660
CE60
DC60
F860
F060
E060
C060
ENDCHAR
STARTCHAR 0439
ENCODING 1081
SWIDTH 675 0
DWIDTH 15 0
BBX 11 17 2 0
BITMAP
3080
3180
1F00
0000
0000
C060
C0E0
C1E0
C1E0
C360
C660
CE60
DC60
F860
F060
E060
C060
ENDCHAR
STARTCHAR 043A
ENCODING 1082
SWIDTH 585 0
DWIDTH 13 0
BBX 11 12 2 0
BITMAP
C0C0
C1C0
C180
C300
C600
FC00
FE00
C700
C300
C180
C1C0
C0E0
ENDCHAR
STARTCHAR 043B
ENCODING 1083
SWIDTH 630 0
DWIDTH 14 0
BBX 12 12 0 0
BITMAP
1FF0
1FF0
1830
1830
1830
1830
1830
1830
3030
3030
F030
E030
ENDCHAR
STARTCHAR 043C
ENCODING 1084
SWIDTH 810 0
DWIDTH 18 0
BBX 14 12 2 0
BITMAP
E01C
E01C
F03C
F03C
D86C
D8CC
CCCC
C78C
C78C
C30C
C20C
C00C
ENDCHAR
STARTCHAR 043D
ENCODING 1085
SWIDTH 675 0
DWIDTH 15 0
BBX 11 12 2 0
BITMAP
C060
C060
C060
C060
C060
FFE0
FFE0
C060
C060
C060
C060
C060
ENDCHAR
STARTCHAR 043E
ENCODING 1086
SWIDTH 630 0
DWIDTH 14 0
BBX 12 12 1 0
BITMAP
0F80
3FC0
70E0
E070
C030
C030
C030
C030
E070
70E0
3FC0
0F80
ENDCHAR
STARTCHAR 043F
ENCODING 1087
SWIDTH 675 0
DWIDTH 15 0
BBX 11 12 2 0
BITMAP
FFE0
FFE0
C060
C060
C060
C060
C060
C060
C060
C060
C060
C060
ENDCHAR
STARTCHAR 0440
ENCODING 1088
SWIDTH 675 0
DWIDTH 15 0
BBX 12 17 2 -5
BITMAP
CF80
DFC0
F0E0
E070
C030
C030
C030
C030
E070
F0E0
DFC0
CF80
C000
C000
C000
C000
C000
ENDCHAR
STARTCHAR 0441
ENCODING 1089
SWIDTH 585 0
DWIDTH 13 0
BBX 11 12 1 0
BITMAP
0F80
3FC0
70E0
E000
C000
C000
C000
C000
E000
70E0
3FC0
0F80
ENDCHAR
STARTCHAR 0442
ENCODING 1090
SWIDTH 495 0
DWIDTH 11 0
BBX 11 12 0 0
BITMAP
FFE0
FFE0
0E00
0E00
0E00
0E00
0E00
0E00
0E00
0E00
0E00
0E00
ENDCHAR
STARTCHAR 0443
ENCODING 1091
SWIDTH 585 0
DWIDTH 13 0
BBX 12 17 0 -5
BITMAP
E030
6030
6070
3060
3060
38C0
18C0
1980
0D80
0D80
0F00
0700
0600
0600
8C00
FC00
F800
ENDCHAR
STARTCHAR 0444
ENCODING 1092
SWIDTH 810 0
DWIDTH 18 0
BBX 16 22 1 -5
BITMAP
0180
0180
0180
0180
0180
0FF0
3FFC
718E
E186
C183
C183
C183
C183
E186
718E
3FFC
0FF0
0180
0180
0180
0180
0180
ENDCHAR
STARTCHAR 0445
ENCODING 1093
SWIDTH 540 0
DWIDTH 12 0
BBX 10 12 1 0
BITMAP
C0C0
6180
7380
3300
1E00
0C00
1E00
1E00
3300
6180
E1C0
C0C0
ENDCHAR
STARTCHAR 0446
ENCODING 1094
SWIDTH 675 0
DWIDTH 15 0
BBX 13 15 2 -3
BITMAP
C060
C060
C060
C060
C060
C060
C060
C060
C060
C060
FFF8
FFF8
0018
0018
0018
ENDCHAR
STARTCHAR 0447
ENCODING 1095
SWIDTH 630 0
DWIDTH 14 0
BBX 10 12 1 0
BITMAP
C0C0
C0C0
C0C0
C0C0
C0C0
E0C0
7FC0
3EC0
00C0
00C0
00C0
00C0
ENDCHAR
STARTCHAR 0448
ENCODING 1096
SWIDTH 945 0
DWIDTH 21 0
BBX 17 12 2 0
BITMAP
C1C180
C1C180
C1C180
C1C180
C1C180
C1C180
C1C180
C1C180
C1C180
C1C180
FFFF80
FFFF80
ENDCHAR
STARTCHAR 0449
ENCODING 1097
SWIDTH 945 0
DWIDTH 21 0
BBX 19 14 2 -2
BITMAP
C1C180
C1C180
C1C180
C1C180
C1C180
C1C180
C1C180
C1C180
C1C180
C1C180
FFFFE0
FFFFE0
000060
000060
ENDCHAR
STARTCHAR 044A
ENCODING 1098
SWIDTH 630 0
DWIDTH 14 0
BBX 13 12 0 0
BITMAP
FC00
FC00
0C00
0C00
0FF0
0FF8
0C18
0C18
0C18
0C18
0FF8
0FE0
ENDCHAR
STARTCHAR 044B
ENCODING 1099
SWIDTH 810 0
DWIDTH 18 0
BBX 14 12 2 0
BITMAP
C00C
C00C
C00C
C00C
FF0C
FF8C
C1CC
C0CC
C0CC
C1CC
FF8C
FF0C
ENDCHAR
STARTCHAR 044C
ENCODING 1100
SWIDTH 585 0
DWIDTH 13 0
BBX 10 12 2 0
BITMAP
C000
C000
C000
C000
FF00
FF80
C0C0
C0C0
C0C0
C1C0
FF80
FF00
ENDCHAR
STARTCHAR 044D
ENCODING 1101
SWIDTH 585 0
DWIDTH 13 0
BBX 11 12 1 0
BITMAP
3E00
FF80
C1C0
00C0
0060
1FE0
1FE0
0060
00C0
C1C0
FF80
3E00
ENDCHAR
STARTCHAR 044E
ENCODING 1102
SWIDTH 855 0
DWIDTH 19 0
BBX 16 12 2 0
BITMAP
C0F8
C3FE
C306
C603
C603
FE03
FE03
C603
C603
C306
C3FE
C0F8
ENDCHAR
STARTCHAR 044F
ENCODING 1103
SWIDTH 630 0
DWIDTH 14 0
BBX 11 12 1 0
BITMAP
1FE0
7FE0
E060
C060
C060
E060
7FE0
3FE0
3860
3060
6060
E060
ENDCHAR
STARTCHAR 0450
ENCODING 1104
SWIDTH 630 0
DWIDTH 14 0
BBX 12 17 1 0
BITMAP
3800
0C00
0600
0000
0000
1F00
3FC0
70E0
E060
C030
FFF0
FFF0
C000
E000
7040
3FE0
0F80
ENDCHAR
STARTCHAR 0451
ENCODING 1105
SWIDTH 630 0
DWIDTH 14 0
BBX 12 16 1 0
BITMAP
1980
1980
0000
0000
1F00
3FC0
70E0
E060
C030
FFF0
FFF0
C000
E000
7040
3FE0
0F80
ENDCHAR
STARTCHAR 0452
ENCODING 1106
SWIDTH 675 0
DWIDTH 15 0
BBX 13 22 0 -5
BITMAP
3000
F000
FF80
3000
3000
33E0
3FF0
3C38
3818
3018
3018
3018
3018
3018
3018
3018
3018
0018
0018
0018
01F8
01F0
ENDCHAR
STARTCHAR 0453
ENCODING 1107
SWIDTH 495 0
DWIDTH 11 0
BBX 9 17 2 0
BITMAP
0700
0E00
1800
0000
0000
FF80
FF80
C000
C000
C000
C000
C000
C000
C000
C000
C000
C000
ENDCHAR
STARTCHAR 0454
ENCODING 1108
SWIDTH 585 0
DWIDTH 13 0
BBX 11 12 1 0
BITMAP
0F80
3FE0
7060
6000
C000
FF00
FF00
C000
E000
7060
3FE0
0F80
ENDCHAR
STARTCHAR 0455
ENCODING 1109
SWIDTH 540 0
DWIDTH 12 0
BBX 10 12 1 0
BITMAP
1F00
7F80
6080
C000
E000
7E00
1F80
01C0
00C0
41C0
FF80
3F00
ENDCHAR
STARTCHAR 0456
ENCODING 1110
SWIDTH 270 0
DWIDTH 6 0
BBX 3 17 2 0
BITMAP
C0
E0
C0
00
00
C0
C0
C0
C0
C0
C0
C0
C0
C0
C0
C0
C0
ENDCHAR
STARTCHAR 0457
ENCODING 1111
SWIDTH 270 0
DWIDTH 6 0
BBX 6 16 0 0
BITMAP
EC
4C
00
00
30
30
30
30
30
30
30
30
30
30
30
30
ENDCHAR
STARTCHAR 0458
ENCODING 1112
SWIDTH 270 0
DWIDTH 6 0
BBX 7 22 -2 -5
BITMAP
0C
0E
0C
00
00
0C
0C
0C
0C
0C
0C
0C
0C
0C
0C
0C
0C
0C
0C
0C
FC
F8
ENDCHAR
STARTCHAR 0459
ENCODING 1113
SWIDTH 945 0
DWIDTH 21 0
BBX 20 12 0 0
BITMAP
1FF000
1FF000
183000
183000
183FC0
183FE0
183070
183030
303030
303070
F03FE0
E03FC0
ENDCHAR
STARTCHAR 045A
ENCODING 1114
SWIDTH 945 0
DWIDTH 21 0
BBX 19 12 2 0
BITMAP
C06000
C06000
C06000
C06000
C06000
FFFF80
FFFFC0
C060C0
C060E0
C060C0
C07FC0
C07F80
ENDCHAR
STARTCHAR 045B
ENCODING 1115
SWIDTH 675 0
DWIDTH 15 0
BBX 14 17 -1 0
BITMAP
1800
1800
FFE0
1800
1800
19F0
1FF8
1E1C
1C0C
180C
180C
180C
180C
180C
180C
180C
180C
ENDCHAR
STARTCHAR 045C
ENCODING 1116
SWIDTH 585 0
DWIDTH 13 0
BBX 11 17 2 0
BITMAP
0300
0600
0C00
0000
0000
C0C0
C1C0
C180
C300
C600
FC00
FE00
C700
C300
C180
C1C0
C0E0
ENDCHAR
STARTCHAR 045D
ENCODING 1117
SWIDTH 675 0
DWIDTH 15 0
BBX 11 17 2 0
BITMAP
3800
1C00
0600
0000
0000
C060
C0E0
C1E0
C1E0
C360
C660
CE60
DC60
F860
F060
E060
C060
ENDCHAR
STARTCHAR 045E
ENCODING 1118
SWIDTH 585 0
DWIDTH 13 0
BBX 12 22 0 -5
BITMAP
10C0
1980
0F80
0000
0000
E030
6030
6070
3060
3060
38C0
18C0
1980
0D80
0D80
0F00
0700
0600
0600
8C00
FC00
F800
ENDCHAR
STARTCHAR 045F
ENCODING 1119
SWIDTH 630 0
DWIDTH 14 0
BBX 10 15 2 -3
BITMAP
C0C0
C0C0
C0C0
C0C0
C0C0
C0C0
C0C0
C0C0
C0C0
C0C0
FFC0
FFC0
0C00
0C00
0C00
ENDCHAR
STARTCHAR 0462
ENCODING 1122
SWIDTH 810 0
DWIDTH 18 0
BBX 17 17 0 0
BITMAP
060000
060000
FFF000
FFF000
060000
060000
07FC00
07FF00
060700
060380
060180
060180
060180
060380
060300
07FF00
07FC00
ENDCHAR
STARTCHAR 0463
ENCODING 1123
SWIDTH 630 0
DWIDTH 14 0
BBX 13 17 0 0
BITMAP
1800
1800
1800
1800
FF80
FF80
1800
1800
1800
1FE0
1FF0
1838
1818
1818
1838
1FF0
1FE0
ENDCHAR
STARTCHAR 046A
ENCODING 1130
SWIDTH 900 0
DWIDTH 20 0
BBX 18 16 1 0
BITMAP
7FFF80
7FFF80
300300
180600
0C0C00
061800
033000
07F800
1FFE00
38C700
30C300
70C380
60C180
E0C1C0
C0C0C0
C0C0C0
ENDCHAR
STARTCHAR 046B
ENCODING 1131
SWIDTH 720 0
DWIDTH 16 0
BBX 14 12 1 0
BITMAP
7FF8
6018
3030
1860
0CC0
0780
3FF0
7330
6318
C318
C30C
C30C
ENDCHAR
STARTCHAR 0472
ENCODING 1138
SWIDTH 855 0
DWIDTH 19 0
BBX 17 16 1 0
BITMAP
07E000
1FF800
3C1E00
700600
600700
E00300
C00380
FFFF80
FFFF80
E00380
600300
600700
700600
3C1E00
1FF800
07E000
ENDCHAR
STARTCHAR 0473
ENCODING 1139
SWIDTH 630 0
DWIDTH 14 0
BBX 12 12 1 0
BITMAP
0F80
3FE0
7060
E030
C030
FFF0
FFF0
C030
6030
7060
3FC0
0F80
ENDCHAR
STARTCHAR 0474
ENCODING 1140
SWIDTH 765 0
DWIDTH 17 0
BBX 17 16 0 0
BITMAP
E00780
600F00
700C00
301800
381800
383800
183000
1C3000
0C7000
0E6000
066000
06C000
07C000
03C000
038000
018000
ENDCHAR
STARTCHAR 0475
ENCODING 1141
SWIDTH 585 0
DWIDTH 13 0
BBX 13 12 0 0
BITMAP
E038
6078
6060
30E0
30C0
38C0
19C0
1D80
0D80
0F00
0700
0700
ENDCHAR
STARTCHAR 048A
ENCODING 1162
SWIDTH 855 0
DWIDTH 19 0
BBX 16 23 2 -3
BITMAP
1860
0CE0
0780
0000
E01C
E01C
E03C
E07C
E0EC
E0CC
E1CC
E38C
E30C
E60C
EE0C
FC0C
F80C
F00C
F00F
E00F
0006
0006
0006
ENDCHAR
STARTCHAR 048B
ENCODING 1163
SWIDTH 720 0
DWIDTH 16 0
BBX 13 19 2 -2
BITMAP
2080
3180
1F00
0000
0000
C060
C0E0
C1E0
C1E0
C360
C660
CE60
DC60
F860
F060
E078
C078
0010
0030
ENDCHAR
STARTCHAR 048C
ENCODING 1164
SWIDTH 720 0
DWIDTH 16 0
BBX 15 17 1 0
BITMAP
3000
3000
FF80
FF80
3000
3000
3FE0
3FF8
301C
300C
300C
300E
300C
300C
301C
3FF8
3FE0
ENDCHAR
STARTCHAR 048D
ENCODING 1165
SWIDTH 585 0
DWIDTH 13 0
BBX 13 12 0 0
BITMAP
1800
FF80
FF80
1800
1F80
1FF0
1838
1818
1818
1838
1FF0
1FE0
ENDCHAR
STARTCHAR 048E
ENCODING 1166
SWIDTH 720 0
DWIDTH 16 0
BBX 13 16 2 0
BITMAP
FFC0
FFE0
E070
E038
E018
E218
E318
E1B8
E1F0
FFE0
FFE0
E030
E030
E010
E000
E000
ENDCHAR
STARTCHAR 048F
ENCODING 1167
SWIDTH 720 0
DWIDTH 16 0
BBX 12 17 2 -5
BITMAP
CF80
DFC0
F0E0
E070
C030
C030
C030
C130
E1F0
F0E0
DFE0
CFE0
C030
C000
C000
C000
C000
ENDCHAR
STARTCHAR 0490
ENCODING 1168
SWIDTH 585 0
DWIDTH 13 0
BBX 11 19 2 0
BITMAP
0060
0060
0060
FFE0
FFE0
E000
E000
E000
E000
E000
E000
E000
E000
E000
E000
E000
E000
E000
E000
ENDCHAR
STARTCHAR 0491
ENCODING 1169
SWIDTH 450 0
DWIDTH 10 0
BBX 8 14 2 0
BITMAP
03
03
FF
FF
C0
C0
C0
C0
C0
C0
C0
C0
C0
C0
ENDCHAR
STARTCHAR 0492
ENCODING 1170
SWIDTH 630 0
DWIDTH 14 0
BBX 12 16 1 0
BITMAP
3FF0
3FF0
3000
3000
3000
3000
3000
3000
FFE0
FFE0
3000
3000
3000
3000
3000
3000
ENDCHAR
STARTCHAR 0493
ENCODING 1171
SWIDTH 495 0
DWIDTH 11 0
BBX 10 12 1 0
BITMAP
7FC0
7FC0
7000
7000
7000
7000
FF80
FF80
7000
7000
7000
7000
ENDCHAR
STARTCHAR 0494
ENCODING 1172
SWIDTH 720 0
DWIDTH 16 0
BBX 13 19 2 -3
BITMAP
FFE0
FFE0
E000
E000
E000
E000
E000
EF80
FFE0
F070
E030
E030
E038
E038
E030
E030
0070
07E0
0780
ENDCHAR
STARTCHAR 0495
ENCODING 1173
SWIDTH 585 0
DWIDTH 13 0
BBX 11 17 2 -5
BITMAP
FF00
FF00
C000
C000
C000
DE00
FF80
E1C0
C0C0
C060
C060
C060
00E0
00C0
01C0
0F80
0F00
ENDCHAR
STARTCHAR 0496
ENCODING 1174
SWIDTH 1080 0
DWIDTH 24 0
BBX 22 19 1 -3
BITMAP
C07038
607030
707070
307060
1870C0
1871C0
0C7180
0FFF00
0FFF80
1C7180
1871C0
3870E0
307060
707070
E0703C
C0701C
00000C
00000C
00000C
ENDCHAR
STARTCHAR 0497
ENCODING 1175
SWIDTH 900 0
DWIDTH 20 0
BBX 18 14 1 -2
BITMAP
C18180
618300
618700
318600
198C00
1FFC00
1FFC00
398E00
318600
618700
E183C0
C181C0
000040
000040
ENDCHAR
STARTCHAR 0498
ENCODING 1176
SWIDTH 630 0
DWIDTH 14 0
BBX 12 19 1 -3
BITMAP
3F00
FFC0
40E0
0060
0060
0060
00E0
1FC0
1FC0
0060
0030
0030
0070
C0E0
FFE0
3F80
0600
0600
0600
ENDCHAR
STARTCHAR 0499
ENCODING 1177
SWIDTH 540 0
DWIDTH 12 0
BBX 10 14 1 -2
BITMAP
7E00
FF80
0180
01C0
0180
1F00
1F80
00C0
00C0
C3C0
FF80
7F00
0C00
0C00
ENDCHAR
STARTCHAR 049A
ENCODING 1178
SWIDTH 765 0
DWIDTH 17 0
BBX 14 19 2 -3
BITMAP
E038
E030
E060
E0E0
E0C0
E180
E380
FF00
FF00
E380
E1C0
E0C0
E0E0
E070
E03C
E01C
000C
000C
000C
ENDCHAR
STARTCHAR 049B
ENCODING 1179
SWIDTH 585 0
DWIDTH 13 0
BBX 12 14 2 -2
BITMAP
C0C0
C1C0
C180
C300
C600
FC00
FE00
C700
C300
C180
C1F0
C0F0
0030
0030
ENDCHAR
STARTCHAR 049C
ENCODING 1180
SWIDTH 720 0
DWIDTH 16 0
BBX 14 16 2 0
BITMAP
E018
E038
E030
E060
ECE0
ECC0
ED80
FF80
FF80
EDC0
ECC0
ECE0
E070
E030
E038
E01C
ENDCHAR
STARTCHAR 049D
ENCODING 1181
SWIDTH 630 0
DWIDTH 14 0
BBX 11 12 2 0
BITMAP
C0E0
C0C0
C180
DB80
DB00
FE00
FF00
DB00
D980
C1C0
C0C0
C060
ENDCHAR
STARTCHAR 049E
ENCODING 1182
SWIDTH 720 0
DWIDTH 16 0
BBX 15 16 1 0
BITMAP
300C
301C
FF18
FF30
3060
30E0
30C0
3F80
3FC0
30C0
30E0
3070
3030
3018
301C
300E
ENDCHAR
STARTCHAR 049F
ENCODING 1183
SWIDTH 585 0
DWIDTH 13 0
BBX 13 17 0 0
BITMAP
3000
F000
FF00
3000
3000
3030
3070
3060
30C0
3180
3F00
3F80
31C0
30C0
3060
3070
3038
ENDCHAR
STARTCHAR 04A0
ENCODING 1184
SWIDTH 810 0
DWIDTH 18 0
BBX 18 16 0 0
BITMAP
FE0180
FE0380
060300
060600
060E00
060C00
061800
07F000
07F800
061800
060C00
060E00
060700
060300
060380
0601C0
ENDCHAR
STARTCHAR 04A1
ENCODING 1185
SWIDTH 675 0
DWIDTH 15 0
BBX 14 12 0 0
BITMAP
FC0C
FC18
0C30
0C70
0C60
0FC0
0FE0
0C60
0C30
0C38
0C1C
0C0C
ENDCHAR
STARTCHAR 04A2
ENCODING 1186
SWIDTH 855 0
DWIDTH 19 0
BBX 16 19 2 -3
BITMAP
E00C
E00C
E00C
E00C
E00C
E00C
E00C
FFFC
FFFC
E00C
E00C
E00C
E00C
E00C
E00F
E00F
0003
0003
0003
ENDCHAR
STARTCHAR 04A3
ENCODING 1187
SWIDTH 720 0
DWIDTH 16 0
BBX 13 14 2 -2
BITMAP
C060
C060
C060
C060
C060
FFE0
FFE0
C060
C060
C060
C078
C078
0018
0018
ENDCHAR
STARTCHAR 04A4
ENCODING 1188
SWIDTH 1080 0
DWIDTH 24 0
BBX 22 16 2 0
BITMAP
E00FFC
E00FFC
E00C00
E00C00
E00C00
E00C00
E00C00
FFFC00
FFFC00
E00C00
E00C00
E00C00
E00C00
E00C00
E00C00
E00C00
ENDCHAR
STARTCHAR 04A5
ENCODING 1189
SWIDTH 900 0
DWIDTH 20 0
BBX 18 12 2 0
BITMAP
C07FC0
C07FC0
C06000
C06000
C06000
FFE000
FFE000
C06000
C06000
C06000
C06000
C06000
ENDCHAR
STARTCHAR 04A6
ENCODING 1190
SWIDTH 1215 0
DWIDTH 27 0
BBX 24 19 2 -3
BITMAP
FFFC00
FFFC00
E00C00
E00C00
E00C00
E00C00
E00C00
E00DF0
E00FFC
E00E0E
E00C06
E00C07
E00C07
E00C07
E00C07
E00C06
00000E
00007C
0000F0
ENDCHAR
STARTCHAR 04A7
ENCODING 1191
SWIDTH 990 0
DWIDTH 22 0
BBX 19 17 2 -5
BITMAP
FFE000
FFE000
C06000
C06000
C06000
C06F00
C07FC0
C061C0
C060E0
C06060
C06060
C06060
000060
0000E0
0001C0
000F80
000F00
ENDCHAR
STARTCHAR 04A8
ENCODING 1192
SWIDTH 990 0
DWIDTH 22 0
BBX 19 16 1 0
BITMAP
083E00
187F80
30E1C0
71C0C0
6180E0
E18060
E18060
C18060
E18060
E180C0
61C0C0
70C180
306380
1C7F00
0FFFE0
03F7E0
ENDCHAR
STARTCHAR 04A9
ENCODING 1193
SWIDTH 810 0
DWIDTH 18 0
BBX 15 12 1 0
BITMAP
30F8
71FC
638E
E306
C706
C706
C306
C306
638C
71D8
3FFE
0FFE
ENDCHAR
STARTCHAR 04AA
ENCODING 1194
SWIDTH 720 0
DWIDTH 16 0
BBX 14 19 1 -3
BITMAP
07E0
1FF8
3C1C
7000
6000
6000
E000
C000
C000
E000
E000
6000
7000
3C1C
1FF8
07E0
0180
0180
0180
ENDCHAR
STARTCHAR 04AB
ENCODING 1195
SWIDTH 585 0
DWIDTH 13 0
BBX 11 14 1 -2
BITMAP
0F80
3FC0
70E0
E000
C000
C000
C000
C000
E040
78E0
3FC0
1F80
0600
0600
ENDCHAR
STARTCHAR 04AC
ENCODING 1196
SWIDTH 585 0
DWIDTH 13 0
BBX 13 19 0 -3
BITMAP
FFF8
FFF8
0300
0300
0300
0300
0300
0300
0300
0300
0300
0300
0300
0300
03C0
03C0
00C0
00C0
00C0
ENDCHAR
STARTCHAR 04AD
ENCODING 1197
SWIDTH 495 0
DWIDTH 11 0
BBX 11 14 0 -2
BITMAP
FFE0
FFE0
0E00
0E00
0E00
0E00
0E00
0E00
0E00
0E00
0F00
0F00
0300
0300
ENDCHAR
STARTCHAR 04AE
ENCODING 1198
SWIDTH 675 0
DWIDTH 15 0
BBX 14 16 0 0
BITMAP
E00C
600C
3018
3838
1830
1C60
0C60
06C0
07C0
0380
0380
0380
0380
0380
0380
0380
ENDCHAR
STARTCHAR 04AF
ENCODING 1199
SWIDTH 585 0
DWIDTH 13 0
BBX 12 17 0 -5
BITMAP
E030
6030
6030
3060
3060
38C0
18C0
19C0
0D80
0D80
0F00
0700
0600
0600
0600
0600
0600
ENDCHAR
STARTCHAR 04B0
ENCODING 1200
SWIDTH 675 0
DWIDTH 15 0
BBX 14 16 0 0
BITMAP
E00C
600C
3018
3838
1830
1C60
0C60
06C0
07C0
1F80
1FF0
0380
0380
0380
0380
0380
ENDCHAR
STARTCHAR 04B1
ENCODING 1201
SWIDTH 585 0
DWIDTH 13 0
BBX 12 17 0 -5
BITMAP
E030
6030
6030
3060
3060
38C0
18C0
1980
0D80
0D80
0F00
3F00
3FE0
0600
0600
0600
0600
ENDCHAR
STARTCHAR 04B2
ENCODING 1202
SWIDTH 720 0
DWIDTH 16 0
BBX 14 19 1 -3
BITMAP
E038
6070
7060
38E0
19C0
1D80
0F80
0700
0700
0F80
1DC0
38C0
30E0
7070
E03C
C03C
000C
000C
000C
ENDCHAR
STARTCHAR 04B3
ENCODING 1203
SWIDTH 540 0
DWIDTH 12 0
BBX 12 14 1 -2
BITMAP
C0C0
6180
7380
3300
1E00
0C00
1E00
1E00
3300
6180
E1F0
C0F0
0030
0030
ENDCHAR
STARTCHAR 04B4
ENCODING 1204
SWIDTH 990 0
DWIDTH 22 0
BBX 21 20 0 -4
BITMAP
FFF8E0
FFF8E0
0300E0
0300E0
0300E0
0300E0
0300E0
0300E0
0300E0
0300E0
0300E0
0300E0
0300E0
0300E0
03FFF8
03FFF8
000018
000018
000018
000018
ENDCHAR
STARTCHAR 04B5
ENCODING 1205
SWIDTH 765 0
DWIDTH 17 0
BBX 16 14 0 -2
BITMAP
FFCE
FFCE
0E0E
0E0E
0E0E
0E0E
0E0E
0E0E
0E0E
0E0E
0FFF
0FFF
0003
0003
ENDCHAR
STARTCHAR 04B6
ENCODING 1206
SWIDTH 765 0
DWIDTH 17 0
BBX 15 19 1 -3
BITMAP
C018
C018
C018
C018
C018
C018
E018
E018
7078
3FF8
1F98
0018
0018
0018
001E
001E
0006
0006
0006
ENDCHAR
STARTCHAR 04B7
ENCODING 1207
SWIDTH 630 0
DWIDTH 14 0
BBX 12 14 1 -2
BITMAP
C0C0
C0C0
C0C0
C0C0
C0C0
E0C0
7FC0
1EC0
00C0
00C0
00F0
00F0
0030
0030
ENDCHAR
STARTCHAR 04B8
ENCODING 1208
SWIDTH 720 0
DWIDTH 16 0
BBX 13 16 1 0
BITMAP
C018
C018
C018
C018
C018
C018
E218
E218
7238
3FF8
1F98
0218
0218
0218
0018
0018
ENDCHAR
STARTCHAR 04B9
ENCODING 1209
SWIDTH 630 0
DWIDTH 14 0
BBX 10 12 1 0
BITMAP
C0C0
C0C0
C0C0
C0C0
CCC0
ECC0
7FC0
3EC0
0CC0
0CC0
00C0
00C0
ENDCHAR
STARTCHAR 04BA
ENCODING 1210
SWIDTH 720 0
DWIDTH 16 0
BBX 13 16 2 0
BITMAP
E000
E000
E000
E000
E000
EFC0
FFF0
F070
E038
E018
E018
E018
E018
E018
E018
E018
ENDCHAR
STARTCHAR 04BB
ENCODING 1211
SWIDTH 675 0
DWIDTH 15 0
BBX 11 17 2 0
BITMAP
C000
C000
C000
C000
C000
CF80
FFC0
F0E0
E060
C060
C060
C060
C060
C060
C060
C060
C060
ENDCHAR
STARTCHAR 04BC
ENCODING 1212
SWIDTH 990 0
DWIDTH 22 0
BBX 20 16 1 0
BITMAP
007E00
01FF80
03C1C0
C700E0
C60060
CE0070
CC0030
FFFFF0
7FFFF0
0E0000
0E0000
060000
070080
03C1C0
01FF80
007E00
ENDCHAR
STARTCHAR 04BD
ENCODING 1213
SWIDTH 765 0
DWIDTH 17 0
BBX 16 12 0 0
BITMAP
00F8
03FC
4706
4603
EC03
7FFF
1FFF
0E00
0600
0706
03FE
00F8
ENDCHAR
STARTCHAR 04BE
ENCODING 1214
SWIDTH 990 0
DWIDTH 22 0
BBX 20 19 1 -3
BITMAP
007E00
01FF80
03C1C0
C700E0
C60060
CE0070
CC0030
FFFFF0
7FFFF0
0E0000
0E0000
060000
070000
03C1C0
01FF80
007E00
001800
001800
001800
ENDCHAR
STARTCHAR 04BF
ENCODING 1215
SWIDTH 765 0
DWIDTH 17 0
BBX 16 14 0 -2
BITMAP
00F8
03FC
4706
4603
EC03
7FFF
1FFF
0E00
0600
078E
03FE
00F8
0060
0060
ENDCHAR
STARTCHAR 04C0
ENCODING 1216
SWIDTH 315 0
DWIDTH 7 0
BBX 3 16 2 0
BITMAP
E0
E0
E0
E0
E0
E0
E0
E0
E0
E0
E0
E0
E0
E0
E0
E0
ENDCHAR
STARTCHAR 04C1
ENCODING 1217
SWIDTH 1035 0
DWIDTH 23 0
BBX 21 20 1 0
BITMAP
010400
018C00
00F800
000000
C07038
607030
707070
307060
1870C0
1871C0
0C7180
0FFF00
0FFF80
1C7180
1871C0
3870E0
307060
707070
E07038
C07018
ENDCHAR
STARTCHAR 04C2
ENCODING 1218
SWIDTH 855 0
DWIDTH 19 0
BBX 17 17 1 0
BITMAP
043000
063000
03E000
000000
000000
C18180
618300
618700
318600
198C00
1FFC00
1FFC00
398E00
318600
618700
E18380
C18180
ENDCHAR
STARTCHAR 04C3
ENCODING 1219
SWIDTH 720 0
DWIDTH 16 0
BBX 13 21 2 -5
BITMAP
E038
E030
E060
E0E0
E0C0
E180
E380
FF00
FF00
E380
E1C0
E0E0
E070
E030
E038
E018
0018
0018
0038
01F8
01F0
ENDCHAR
STARTCHAR 04C4
ENCODING 1220
SWIDTH 585 0
DWIDTH 13 0
BBX 11 17 2 -5
BITMAP
C0C0
C1C0
C180
C300
C600
FE00
FE00
C300
C180
C1C0
C0C0
C0C0
0060
0060
00E0
07C0
0780
ENDCHAR
STARTCHAR 04C6
ENCODING 1222
SWIDTH 675 0
DWIDTH 15 0
BBX 14 14 0 -2
BITMAP
1FF0
1FF0
1830
1830
1830
1830
1830
1830
3030
3030
F03C
E03C
0018
0018
ENDCHAR
STARTCHAR 04C7
ENCODING 1223
SWIDTH 810 0
DWIDTH 18 0
BBX 14 21 2 -5
BITMAP
E01C
E01C
E01C
E01C
E01C
E01C
E01C
FFFC
FFFC
E01C
E01C
E01C
E01C
E01C
E01C
E01C
001C
001C
0018
00F8
00F0
ENDCHAR
STARTCHAR 04C8
ENCODING 1224
SWIDTH 675 0
DWIDTH 15 0
BBX 11 17 2 -5
BITMAP
C060
C060
C060
C060
C060
FFE0
FFE0
C060
C060
C060
C060
C060
0060
0060
0060
07E0
07C0
ENDCHAR
STARTCHAR 04C9
ENCODING 1225
SWIDTH 855 0
DWIDTH 19 0
BBX 16 19 2 -3
BITMAP
E00C
E00C
E00C
E00C
E00C
E00C
E00C
FFFC
FFFC
E00C
E00C
E00C
E00C
E00C
E00F
E00F
0006
0006
0006
ENDCHAR
STARTCHAR 04CA
ENCODING 1226
SWIDTH 720 0
DWIDTH 16 0
BBX 13 14 2 -2
BITMAP
C060
C060
C060
C060
C060
FFE0
FFE0
C060
C060
C060
C078
C070
0030
0030
ENDCHAR
STARTCHAR 04CB
ENCODING 1227
SWIDTH 720 0
DWIDTH 16 0
BBX 13 19 1 -3
BITMAP
C018
C018
C018
C018
C018
C018
E018
7038
3FF8
1F98
0018
0018
0018
0018
00F8
00F8
00C0
00C0
00C0
ENDCHAR
STARTCHAR 04CC
ENCODING 1228
SWIDTH 585 0
DWIDTH 13 0
BBX 10 14 1 -2
BITMAP
C0C0
C0C0
C0C0
C0C0
E0C0
7FC0
3EC0
00C0
00C0
00C0
03C0
03C0
0300
0300
ENDCHAR
STARTCHAR 04CD
ENCODING 1229
SWIDTH 990 0
DWIDTH 22 0
BBX 19 19 2 -3
BITMAP
E00180
E00380
F00380
F00780
F80780
F80D80
EC1D80
EE1980
E63180
E73180
E36180
E1E180
E1C180
E0C180
E001E0
E001E0
000060
000040
0000C0
ENDCHAR
STARTCHAR 04CE
ENCODING 1230
SWIDTH 810 0
DWIDTH 18 0
BBX 16 14 2 -2
BITMAP
E01C
E01C
F03C
F03C
D86C
D8CC
CCCC
C78C
C78C
C30C
C20F
C00E
0006
0006
ENDCHAR
STARTCHAR 04CF
ENCODING 1231
SWIDTH 270 0
DWIDTH 6 0
BBX 2 17 2 0
BITMAP
C0
C0
C0
C0
C0
C0
C0
C0
C0
C0
C0
C0
C0
C0
C0
C0
C0
ENDCHAR
STARTCHAR 04D0
ENCODING 1232
SWIDTH 765 0
DWIDTH 17 0
BBX 16 20 0 0
BITMAP
0410
0630
03E0
0000
01C0
01C0
03E0
0360
0660
0630
0E30
0C18
0C18
181C
1FFC
3FFE
3006
7006
6003
E003
ENDCHAR
STARTCHAR 04D1
ENCODING 1233
SWIDTH 585 0
DWIDTH 13 0
BBX 10 17 1 0
BITMAP
2180
3180
1F00
0000
0000
3F00
FF80
41C0
00C0
00C0
3FC0
7FC0
C0C0
C0C0
E1C0
7FC0
3EC0
ENDCHAR
STARTCHAR 04D2
ENCODING 1234
SWIDTH 765 0
DWIDTH 17 0
BBX 16 20 0 0
BITMAP
0620
0670
0000
0000
01C0
01C0
03E0
0360
0660
0630
0E30
0C18
0C18
181C
1FFC
3FFE
3006
7006
6003
E003
ENDCHAR
STARTCHAR 04D3
ENCODING 1235
SWIDTH 585 0
DWIDTH 13 0
BBX 10 16 1 0
BITMAP
3380
3100
0000
0000
3F00
FF80
41C0
00C0
00C0
3FC0
7FC0
C0C0
C0C0
E1C0
7FC0
3EC0
ENDCHAR
STARTCHAR 04D4
ENCODING 1236
SWIDTH 1035 0
DWIDTH 23 0
BBX 22 16 0 0
BITMAP
007FFC
007FFC
00D800
01D800
019800
031800
031800
061FF8
0E1FF8
0C1800
1FF800
1FF800
301800
301800
601FFC
E01FFC
ENDCHAR
STARTCHAR 04D5
ENCODING 1237
SWIDTH 990 0
DWIDTH 22 0
BBX 20 12 1 0
BITMAP
3F0F80
FFBFC0
41F0E0
00E070
00C030
3FFFF0
7FFFF0
C0E000
C0E000
E1F060
7FBFE0
3E0F80
ENDCHAR
STARTCHAR 04D6
ENCODING 1238
SWIDTH 675 0
DWIDTH 15 0
BBX 12 20 2 0
BITMAP
30C0
3980
0F00
0000
FFE0
FFE0
E000
E000
E000
E000
E000
FFC0
FFC0
E000
E000
E000
E000
E000
FFF0
FFF0
ENDCHAR
STARTCHAR 04D7
ENCODING 1239
SWIDTH 630 0
DWIDTH 14 0
BBX 12 17 1 0
BITMAP
3080
1180
1F00
0000
0000
1F00
3FC0
70E0
E060
C030
FFF0
FFF0
C000
E000
7040
3FE0
0F80
ENDCHAR
STARTCHAR 04D8
ENCODING 1240
SWIDTH 810 0
DWIDTH 18 0
BBX 16 16 1 0
BITMAP
07E0
1FF8
783C
000E
0006
0007
0003
FFFF
FFFF
C003
E007
6006
700E
383C
1FF8
07E0
ENDCHAR
STARTCHAR 04D9
ENCODING 1241
SWIDTH 630 0
DWIDTH 14 0
BBX 12 12 1 0
BITMAP
1F00
7FC0
60E0
0060
0030
FFF0
FFF0
C030
6070
70E0
3FC0
0F80
ENDCHAR
STARTCHAR 04DA
ENCODING 1242
SWIDTH 810 0
DWIDTH 18 0
BBX 16 20 1 0
BITMAP
0660
0660
0000
0000
07E0
1FF8
783C
000E
0006
0007
0003
FFFF
FFFF
C003
E007
6006
700E
383C
1FF8
07E0
ENDCHAR
STARTCHAR 04DB
ENCODING 1243
SWIDTH 630 0
DWIDTH 14 0
BBX 12 16 1 0
BITMAP
1980
1980
0000
0000
1F00
7FC0
60E0
0060
0030
FFF0
FFF0
C030
6070
70E0
3FC0
0F80
ENDCHAR
STARTCHAR 04DC
ENCODING 1244
SWIDTH 1035 0
DWIDTH 23 0
BBX 21 20 1 0
BITMAP
018800
019C00
000000
000000
C07038
607030
707070
307060
1870C0
1871C0
0C7180
0FFF00
0FFF80
1C7180
1871C0
3870E0
307060
707070
E07038
C07018
ENDCHAR
STARTCHAR 04DD
ENCODING 1245
SWIDTH 855 0
DWIDTH 19 0
BBX 17 16 1 0
BITMAP
067000
062000
000000
000000
C18180
618300
618700
318600
198C00
1FFC00
1FFC00
398E00
318600
618700
E18380
C18180
ENDCHAR
STARTCHAR 04DE
ENCODING 1246
SWIDTH 630 0
DWIDTH 14 0
BBX 12 20 1 0
BITMAP
1980
1980
0000
0000
3F00
FFC0
40E0
0060
0060
0060
00E0
1FC0
1FC0
0060
0030
0030
0070
C0E0
FFC0
3F80
ENDCHAR
STARTCHAR 04DF
ENCODING 1247
SWIDTH 540 0
DWIDTH 12 0
BBX 10 16 1 0
BITMAP
3300
3300
0000
0000
7E00
FF80
0180
01C0
0180
1F00
1F80
00C0
00C0
81C0
FF80
7E00
ENDCHAR
STARTCHAR 04E0
ENCODING 1248
SWIDTH 630 0
DWIDTH 14 0
BBX 12 16 1 0
BITMAP
FFE0
FFE0
00C0
0180
0380
0700
0600
0F80
0FE0
0060
0070
0070
8070
C0E0
FFC0
3F80
ENDCHAR
STARTCHAR 04E1
ENCODING 1249
SWIDTH 540 0
DWIDTH 12 0
BBX 11 17 0 -5
BITMAP
FFC0
FFC0
01C0
0180
0300
0600
0E00
0F00
0FC0
00C0
0060
0060
0060
80E0
C1C0
7FC0
3F00
ENDCHAR
STARTCHAR 04E2
ENCODING 1250
SWIDTH 810 0
DWIDTH 18 0
BBX 14 19 2 0
BITMAP
1FE0
0000
0000
E01C
E01C
E03C
E07C
E0EC
E0CC
E1CC
E38C
E70C
E60C
EE0C
FC0C
F80C
F00C
F00C
E00C
ENDCHAR
STARTCHAR 04E3
ENCODING 1251
SWIDTH 675 0
DWIDTH 15 0
BBX 11 16 2 0
BITMAP
3F80
0000
0000
0000
C060
C0E0
C1E0
C1E0
C360
C660
CE60
DC60
F860
F060
E060
C060
ENDCHAR
STARTCHAR 04E4
ENCODING 1252
SWIDTH 810 0
DWIDTH 18 0
BBX 14 20 2 0
BITMAP
0CC0
0CC0
0000
0000
E01C
E01C
E03C
E07C
E0EC
E0CC
E1CC
E38C
E70C
E60C
EE0C
FC0C
F80C
F00C
F00C
E00C
ENDCHAR
STARTCHAR 04E5
ENCODING 1253
SWIDTH 675 0
DWIDTH 15 0
BBX 11 16 2 0
BITMAP
3980
1180
0000
0000
C060
C0E0
C1E0
C1E0
C360
C660
CE60
DC60
F860
F060
E060
C060
ENDCHAR
STARTCHAR 04E6
ENCODING 1254
SWIDTH 855 0
DWIDTH 19 0
BBX 17 20 1 0
BITMAP
062000
067000
000000
000000
07E000
1FF800
3C1E00
700600
600700
600300
E00380
C00380
C00380
E00380
E00300
600700
700600
3C1E00
1FF800
07E000
ENDCHAR
STARTCHAR 04E7
ENCODING 1255
SWIDTH 630 0
DWIDTH 14 0
BBX 12 16 1 0
BITMAP
1980
1980
0000
0000
0F80
3FC0
70E0
E070
C030
C030
C030
C030
E070
70E0
3FC0
0F80
ENDCHAR
STARTCHAR 04E8
ENCODING 1256
SWIDTH 855 0
DWIDTH 19 0
BBX 17 16 1 0
BITMAP
07E000
1FF800
3C1E00
700600
600700
E00300
C00380
FFFF80
FFFF80
E00380
600300
600700
700600
3C1E00
1FF800
07E000
ENDCHAR
STARTCHAR 04E9
ENCODING 1257
SWIDTH 630 0
DWIDTH 14 0
BBX 12 12 1 0
BITMAP
0F80
3FE0
7060
E030
C030
FFF0
FFF0
C030
6030
7060
3FC0
0F80
ENDCHAR
STARTCHAR 04EA
ENCODING 1258
SWIDTH 855 0
DWIDTH 19 0
BBX 17 20 1 0
BITMAP
062000
067000
000000
000000
07E000
1FF800
3C1E00
700600
600700
E00300
C00380
FFFF80
FFFF80
E00380
600300
600700
700600
3C1E00
1FF800
07E000
ENDCHAR
STARTCHAR 04EB
ENCODING 1259
SWIDTH 630 0
DWIDTH 14 0
BBX 12 16 1 0
BITMAP
1980
1980
0000
0000
0F80
3FE0
7060
E030
C030
FFF0
FFF0
C030
6030
7060
3FC0
0F80
ENDCHAR
STARTCHAR 04EC
ENCODING 1260
SWIDTH 720 0
DWIDTH 16 0
BBX 14 20 1 0
BITMAP
1980
1980
0000
0000
1F80
7FC0
E0F0
0070
0038
0018
0018
0FFC
0FFC
0018
0018
0038
0070
E0F0
7FC0
1F80
ENDCHAR
STARTCHAR 04ED
ENCODING 1261
SWIDTH 585 0
DWIDTH 13 0
BBX 11 16 1 0
BITMAP
3300
3300
0000
0000
3E00
FF80
C1C0
00C0
0060
1FE0
1FE0
0060
00C0
C1C0
FF80
3E00
ENDCHAR
STARTCHAR 04EE
ENCODING 1262
SWIDTH 675 0
DWIDTH 15 0
BBX 14 19 1 0
BITMAP
1FC0
0000
0000
C00C
C018
6018
6030
3030
3860
1860
1CC0
0CC0
0F80
0780
0700
0600
0E00
7C00
7800
ENDCHAR
STARTCHAR 04EF
ENCODING 1263
SWIDTH 585 0
DWIDTH 13 0
BBX 12 21 0 -5
BITMAP
3FC0
0000
0000
0000
E030
6030
6070
3060
3060
38C0
18C0
1980
0D80
0D80
0F00
0700
0600
0600
8C00
FC00
F800
ENDCHAR
STARTCHAR 04F0
ENCODING 1264
SWIDTH 675 0
DWIDTH 15 0
BBX 14 20 1 0
BITMAP
08C0
1CC0
0000
0000
C00C
C018
6018
6030
3030
3860
1860
1CC0
0CC0
0F80
0780
0700
0600
0E00
7C00
7800
ENDCHAR
STARTCHAR 04F1
ENCODING 1265
SWIDTH 585 0
DWIDTH 13 0
BBX 12 21 0 -5
BITMAP
1980
1980
0000
0000
E030
6030
6070
3060
3060
38C0
18C0
1980
0D80
0D80
0F00
0700
0600
0600
8C00
FC00
F800
ENDCHAR
STARTCHAR 04F2
ENCODING 1266
SWIDTH 675 0
DWIDTH 15 0
BBX 14 20 1 0
BITMAP
0760
0660
0CC0
0000
C00C
C018
6018
6030
3030
3860
1860
1CC0
0CC0
0F80
0780
0700
0600
0E00
7C00
7800
ENDCHAR
STARTCHAR 04F3
ENCODING 1267
SWIDTH 585 0
DWIDTH 13 0
BBX 12 22 0 -5
BITMAP
0660
0CC0
0980
0000
0000
E030
6030
6070
3060
3060
38C0
18C0
1980
0D80
0D80
0F00
0700
0600
0600
8C00
FC00
F800
ENDCHAR
STARTCHAR 04F4
ENCODING 1268
SWIDTH 720 0
DWIDTH 16 0
BBX 13 20 1 0
BITMAP
08C0
1CC0
0000
0000
C018
C018
C018
C018
C018
C018
E018
E018
7078
3FF8
1F98
0018
0018
0018
0018
0018
ENDCHAR
STARTCHAR 04F5
ENCODING 1269
SWIDTH 630 0
DWIDTH 14 0
BBX 10 16 1 0
BITMAP
3300
3300
0000
0000
C0C0
C0C0
C0C0
C0C0
C0C0
E0C0
7FC0
3EC0
00C0
00C0
00C0
00C0
ENDCHAR
STARTCHAR 04F6
ENCODING 1270
SWIDTH 585 0
DWIDTH 13 0
BBX 11 19 2 -3
BITMAP
FFE0
FFE0
E000
E000
E000
E000
E000
E000
E000
E000
E000
E000
E000
E000
F800
F800
1800
1800
1800
ENDCHAR
STARTCHAR 04F7
ENCODING 1271
SWIDTH 495 0
DWIDTH 11 0
BBX 9 14 2 -2
BITMAP
FF80
FF80
C000
C000
C000
C000
C000
C000
C000
C000
F000
F000
3000
3000
ENDCHAR
STARTCHAR 04F8
ENCODING 1272
SWIDTH 990 0
DWIDTH 22 0
BBX 18 20 2 0
BITMAP
033000
033000
000000
000000
E001C0
E001C0
E001C0
E001C0
E001C0
E001C0
FFC1C0
FFF1C0
E031C0
E039C0
E019C0
E019C0
E039C0
E031C0
FFF1C0
FFC1C0
ENDCHAR
STARTCHAR 04F9
ENCODING 1273
SWIDTH 810 0
DWIDTH 18 0
BBX 14 16 2 0
BITMAP
0CC0
0CC0
0000
0000
C00C
C00C
C00C
C00C
FF0C
FF8C
C1CC
C0CC
C0CC
C1CC
FF8C
FF0C
ENDCHAR
STARTCHAR 04FA
ENCODING 1274
SWIDTH 630 0
DWIDTH 14 0
BBX 12 21 1 -5
BITMAP
3FF0
3FF0
3000
3000
3000
3000
3000
3000
FFE0
FFE0
3000
3000
3000
3000
3C00
3C00
0C00
0C00
0C00
FC00
7800
ENDCHAR
STARTCHAR 04FB
ENCODING 1275
SWIDTH 495 0
DWIDTH 11 0
BBX 9 17 1 -5
BITMAP
3F80
3F80
3000
3000
3000
F000
FF00
3000
3000
3000
3C00
3C00
1C00
1C00
1800
F800
F000
ENDCHAR
STARTCHAR 04FC
ENCODING 1276
SWIDTH 675 0
DWIDTH 15 0
BBX 13 21 1 -5
BITMAP
E038
6030
7060
38E0
18C0
0D80
0F80
0700
0700
0D80
1DC0
38E0
3060
7070
E038
C018
0018
0018
0038
01F8
01F0
ENDCHAR
STARTCHAR 04FD
ENCODING 1277
SWIDTH 540 0
DWIDTH 12 0
BBX 11 17 1 -5
BITMAP
C0C0
6180
7380
3300
1E00
0C00
1E00
1F00
3380
7180
E0C0
C0C0
0060
0060
00E0
07C0
0780
ENDCHAR
STARTCHAR 04FE
ENCODING 1278
SWIDTH 675 0
DWIDTH 15 0
BBX 13 16 1 0
BITMAP
E038
7030
3070
38E0
1CC0
0D80
0F80
7FF0
7FF0
0F80
1DC0
18E0
3860
7070
6038
C018
ENDCHAR
STARTCHAR 04FF
ENCODING 1279
SWIDTH 585 0
DWIDTH 13 0
BBX 11 12 1 0
BITMAP
E0C0
61C0
3180
3B00
1E00
7FC0
7FC0
1F00
3380
7180
60C0
C0E0
ENDCHAR
STARTCHAR 0510
ENCODING 1296
SWIDTH 630 0
DWIDTH 14 0
BBX 12 16 1 0
BITMAP
0FC0
3FF0
7830
6000
6000
6000
3000
1FC0
3FC0
6000
E000
E000
E000
7030
3FF0
0FC0
ENDCHAR
STARTCHAR 0511
ENCODING 1297
SWIDTH 540 0
DWIDTH 12 0
BBX 10 12 1 0
BITMAP
1F80
7FC0
6000
6000
6000
3E00
7E00
E000
C000
E040
7FC0
1F80
ENDCHAR
STARTCHAR 0512
ENCODING 1298
SWIDTH 810 0
DWIDTH 18 0
BBX 15 21 0 -5
BITMAP
0FFE
0FFE
0C06
0C06
0C06
0C06
0C06
0C06
0C06
0C06
0C06
1806
1806
3806
F006
E006
0006
0006
000E
007C
0078
ENDCHAR
STARTCHAR 0513
ENCODING 1299
SWIDTH 630 0
DWIDTH 14 0
BBX 12 17 0 -5
BITMAP
1FF0
1FF0
1830
1830
1830
1830
1830
1830
3030
3030
F030
E030
0030
0030
0030
03F0
03E0
ENDCHAR
STARTCHAR 051A
ENCODING 1306
SWIDTH 855 0
DWIDTH 19 0
BBX 17 19 1 -3
BITMAP
07E000
1FF800
3C1E00
700600
600700
E00300
E00380
C00380
C00380
E00380
600300
600700
700E00
3C1C00
0FF800
03E000
00E080
003F80
001F00
ENDCHAR
STARTCHAR 051B
ENCODING 1307
SWIDTH 675 0
DWIDTH 15 0
BBX 12 17 1 -5
BITMAP
1F30
3FF0
70F0
E070
C030
C030
C030
C030
E070
70F0
3FF0
1F30
0030
0030
0030
0030
0030
ENDCHAR
STARTCHAR 051C
ENCODING 1308
SWIDTH 1080 0
DWIDTH 24 0
BBX 22 16 1 0
BITMAP
C0300C
C0380C
E0780C
60781C
607C18
70CC18
30CC38
30CE30
318630
198670
198760
1B0360
1F03E0
0F03C0
0E01C0
0E01C0
ENDCHAR
STARTCHAR 051D
ENCODING 1309
SWIDTH 945 0
DWIDTH 21 0
BBX 20 12 0 0
BITMAP
E07030
607030
607030
30D860
30D860
3198E0
198CC0
198CC0
1F0780
0F0780
0F0780
060300
ENDCHAR
STARTCHAR 0524
ENCODING 1316
SWIDTH 855 0
DWIDTH 19 0
BBX 16 19 2 -3
BITMAP
FFFC
FFFC
E00C
E00C
E00C
E00C
E00C
E00C
E00C
E00C
E00C
E00C
E00C
E00C
E00F
E00F
0003
0003
0003
ENDCHAR
STARTCHAR 0525
ENCODING 1317
SWIDTH 675 0
DWIDTH 15 0
BBX 13 14 2 -2
BITMAP
FFE0
FFE0
C060
C060
C060
C060
C060
C060
C060
C060
C078
C078
0018
0018
ENDCHAR
STARTCHAR 0526
ENCODING 1318
SWIDTH 810 0
DWIDTH 18 0
BBX 16 19 2 -3
BITMAP
E000
E000
E000
E000
E000
EFC0
FFF0
F070
E038
E018
E018
E018
E018
E018
E01F
E01F
0007
0007
0007
ENDCHAR
STARTCHAR 0527
ENCODING 1319
SWIDTH 720 0
DWIDTH 16 0
BBX 13 19 2 -2
BITMAP
C000
C000
C000
C000
C000
CF80
DFC0
F0E0
E060
C060
C060
C060
C060
C060
C060
C078
C078
0018
0018
ENDCHAR
STARTCHAR 0528
ENCODING 1320
SWIDTH 810 0
DWIDTH 18 0
BBX 17 21 -1 -5
BITMAP
1C0380
1C0380
1C0380
1C0380
1C0380
1C0380
1C0380
1FFF80
1FFF80
1C0380
1C0380
1C0380
1C0380
1C0380
1C0380
1C0380
1C0000
1C0000
180000
F80000
F00000
ENDCHAR
STARTCHAR 0529
ENCODING 1321
SWIDTH 675 0
DWIDTH 15 0
BBX 15 17 -2 -5
BITMAP
0C06
0C06
0C06
0C06
0C06
0FFE
0FFE
0C06
0C06
0C06
0C06
0C06
0C00
0C00
0C00
FC00
F800
ENDCHAR
STARTCHAR 052E
ENCODING 1326
SWIDTH 810 0
DWIDTH 18 0
BBX 18 19 0 -3
BITMAP
0FFE00
0FFE00
0C0600
0C0600
0C0600
0C0600
0C0600
0C0600
0C0600
0C0600
0C0600
180600
180600
380600
F007C0
E007C0
0001C0
0001C0
0001C0
ENDCHAR
STARTCHAR 052F
ENCODING 1327
SWIDTH 675 0
DWIDTH 15 0
BBX 14 14 0 -2
BITMAP
1FF0
1FF0
1830
1830
1830
1830
1830
1830
3030
3030
F03C
E03C
000C
000C
ENDCHAR
STARTCHAR 1E08
ENCODING 7688
SWIDTH 720 0
DWIDTH 16 0
BBX 14 25 1 -5
BITMAP
0070
00C0
0180
0000
07E0
1FF8
3C1C
7008
6000
E000
C000
C000
C000
C000
E000
6000
7008
3C1C
1FF8
07E0
0100
0180
00C0
00C0
03C0
ENDCHAR
STARTCHAR 1E09
ENCODING 7689
SWIDTH 585 0
DWIDTH 13 0
BBX 11 22 1 -5
BITMAP
0180
0300
0600
0000
0000
0F80
3FC0
70E0
E000
C000
C000
C000
C000
E000
70E0
3FC0
1F80
0400
0600
0300
0300
1E00
ENDCHAR
STARTCHAR 1E0C
ENCODING 7692
SWIDTH 810 0
DWIDTH 18 0
BBX 15 21 2 -5
BITMAP
FFC0
FFF0
E038
E01C
E00E
E006
E006
E006
E006
E006
E006
E00E
E01C
E038
FFF0
FFC0
0000
0000
0000
0700
0200
ENDCHAR
STARTCHAR 1E0D
ENCODING 7693
SWIDTH 675 0
DWIDTH 15 0
BBX 12 22 1 -5
BITMAP
0030
0030
0030
0030
0030
1F30
3FF0
70F0
E070
C030
C030
C030
C030
E070
70F0
3FF0
1F30
0000
0000
0000
0300
0300
ENDCHAR
STARTCHAR 1E0E
ENCODING 7694
SWIDTH 810 0
DWIDTH 18 0
BBX 15 20 2 -4
BITMAP
FFC0
FFF0
E038
E01C
E00E
E006
E006
E006
E006
E006
E006
E00E
E01C
E038
FFF0
FFC0
0000
0000
0000
1FC0
ENDCHAR
STARTCHAR 1E0F
ENCODING 7695
SWIDTH 675 0
DWIDTH 15 0
BBX 12 21 1 -4
BITMAP
0030
0030
0030
0030
0030
1F30
3FF0
70F0
E070
C030
C030
C030
C030
E070
70F0
3FF0
1F30
0000
0000
0000
1FC0
ENDCHAR
STARTCHAR 1E14
ENCODING 7700
SWIDTH 675 0
DWIDTH 15 0
BBX 12 23 2 0
BITMAP
1800
0C00
0200
0000
3F80
0000
0000
FFE0
FFE0
E000
E000
E000
E000
E000
FFC0
FFC0
E000
E000
E000
E000
E000
FFF0
FFF0
ENDCHAR
STARTCHAR 1E15
ENCODING 7701
SWIDTH 630 0
DWIDTH 14 0
BBX 12 20 1 0
BITMAP
3800
0C00
0600
0000
0000
3F80
0000
0000
1F00
3FC0
70E0
E060
C030
FFF0
FFF0
C000
E000
7040
3FE0
0F80
ENDCHAR
STARTCHAR 1E16
ENCODING 7702
SWIDTH 675 0
DWIDTH 15 0
BBX 12 23 2 0
BITMAP
0380
0600
0C00
0000
3F80
0000
0000
FFE0
FFE0
E000
E000
E000
E000
E000
FFC0
FFC0
E000
E000
E000
E000
E000
FFF0
FFF0
ENDCHAR
STARTCHAR 1E17
ENCODING 7703
SWIDTH 630 0
DWIDTH 14 0
BBX 12 20 1 0
BITMAP
0180
0300
0600
0000
0000
3F80
0000
0000
1F00
3FC0
70E0
E060
C030
FFF0
FFF0
C000
E000
7040
3FE0
0F80
ENDCHAR
STARTCHAR 1E1C
ENCODING 7708
SWIDTH 675 0
DWIDTH 15 0
BBX 12 25 2 -5
BITMAP
3080
1980
0F00
0000
FFE0
FFE0
E000
E000
E000
E000
E000
FFC0
FFC0
E000
E000
E000
E000
E000
FFF0
FFF0
0400
0700
0100
0100
0F00
ENDCHAR
STARTCHAR 1E1D
ENCODING 7709
SWIDTH 630 0
DWIDTH 14 0
BBX 12 22 1 -5
BITMAP
3080
1180
1F00
0000
0000
1F00
3FC0
70E0
E060
C030
FFF0
FFF0
C000
E000
7040
3FE0
1F80
0400
0600
0300
0300
1E00
ENDCHAR
STARTCHAR 1E20
ENCODING 7712
SWIDTH 765 0
DWIDTH 17 0
BBX 14 19 1 0
BITMAP
0FF0
0000
0000
07F0
1FFC
3C1C
7000
6000
E000
C000
C000
C00C
C00C
E00C
600C
700C
3C1C
1FFC
07F0
ENDCHAR
STARTCHAR 1E21
ENCODING 7713
SWIDTH 675 0
DWIDTH 15 0
BBX 12 21 1 -5
BITMAP
1FC0
0000
0000
0000
1F30
3FF0
70F0
E070
C030
C030
C030
C030
E070
70F0
3FF0
0F30
0030
0030
6060
7FE0
1F80
ENDCHAR
STARTCHAR 1E24
ENCODING 7716
SWIDTH 810 0
DWIDTH 18 0
BBX 14 21 2 -5
BITMAP
E01C
E01C
E01C
E01C
E01C
E01C
E01C
FFFC
FFFC
E01C
E01C
E01C
E01C
E01C
E01C
E01C
0000
0000
0000
0300
0300
ENDCHAR
STARTCHAR 1E25
ENCODING 7717
SWIDTH 675 0
DWIDTH 15 0
BBX 11 22 2 -5
BITMAP
C000
C000
C000
C000
C000
CF80
FFC0
F0E0
E060
C060
C060
C060
C060
C060
C060
C060
C060
0000
0000
0000
0600
0600
ENDCHAR
STARTCHAR 1E2A
ENCODING 7722
SWIDTH 810 0
DWIDTH 18 0
BBX 14 21 2 -5
BITMAP
E01C
E01C
E01C
E01C
E01C
E01C
E01C
FFFC
FFFC
E01C
E01C
E01C
E01C
E01C
E01C
E01C
0000
0000
1860
0CC0
0780
ENDCHAR
STARTCHAR 1E2B
ENCODING 7723
SWIDTH 675 0
DWIDTH 15 0
BBX 11 22 2 -5
BITMAP
C000
C000
C000
C000
C000
CF80
FFC0
F0E0
E060
C060
C060
C060
C060
C060
C060
C060
C060
0000
0000
2080
3180
0F00
ENDCHAR
STARTCHAR 1E2E
ENCODING 7726
SWIDTH 315 0
DWIDTH 7 0
BBX 6 23 0 0
BITMAP
0C
18
30
00
CC
C4
00
38
38
38
38
38
38
38
38
38
38
38
38
38
38
38
38
ENDCHAR
STARTCHAR 1E2F
ENCODING 7727
SWIDTH 270 0
DWIDTH 6 0
BBX 7 20 0 0
BITMAP
0E
18
30
00
CC
CC
00
00
30
30
30
30
30
30
30
30
30
30
30
30
ENDCHAR
STARTCHAR 1E36
ENCODING 7734
SWIDTH 585 0
DWIDTH 13 0
BBX 11 21 2 -5
BITMAP
E000
E000
E000
E000
E000
E000
E000
E000
E000
E000
E000
E000
E000
E000
FFE0
FFE0
0000
0000
0000
0600
0600
ENDCHAR
STARTCHAR 1E37
ENCODING 7735
SWIDTH 270 0
DWIDTH 6 0
BBX 2 22 2 -5
BITMAP
C0
C0
C0
C0
C0
C0
C0
C0
C0
C0
C0
C0
C0
C0
C0
C0
C0
00
00
00
C0
C0
ENDCHAR
STARTCHAR 1E3A
ENCODING 7738
SWIDTH 585 0
DWIDTH 13 0
BBX 11 20 2 -4
BITMAP
E000
E000
E000
E000
E000
E000
E000
E000
E000
E000
E000
E000
E000
E000
FFE0
FFE0
0000
0000
0000
3FC0
ENDCHAR
STARTCHAR 1E3B
ENCODING 7739
SWIDTH 270 0
DWIDTH 6 0
BBX 8 21 -1 -4
BITMAP
18
18
18
18
18
18
18
18
18
18
18
18
18
18
18
18
18
00
00
00
FF
ENDCHAR
STARTCHAR 1E42
ENCODING 7746
SWIDTH 945 0
DWIDTH 21 0
BBX 17 21 2 -5
BITMAP
C00180
E00380
F00380
F00780
F80F80
D80D80
CC1980
CC1980
C63180
C73180
C36180
C1E180
C1C180
C08180
C00180
C00180
000000
000000
000000
00C000
00C000
ENDCHAR
STARTCHAR 1E43
ENCODING 7747
SWIDTH 1035 0
DWIDTH 23 0
BBX 20 17 2 -5
BITMAP
CF0F80
FFDFC0
F0F0E0
E0E060
C06070
C06070
C06070
C06070
C06070
C06070
C06070
C06070
000000
000000
000000
006000
006000
ENDCHAR
STARTCHAR 1E44
ENCODING 7748
SWIDTH 810 0
DWIDTH 18 0
BBX 14 20 2 0
BITMAP
0300
0300
0300
0000
E01C
E01C
F01C
F81C
FC1C
EC1C
EE1C
E71C
E39C
E1DC
E0DC
E0FC
E07C
E03C
E01C
E01C
ENDCHAR
STARTCHAR 1E45
ENCODING 7749
SWIDTH 675 0
DWIDTH 15 0
BBX 11 17 2 0
BITMAP
0600
0E00
0400
0000
0000
CF80
FFC0
F0E0
E060
C060
C060
C060
C060
C060
C060
C060
C060
ENDCHAR
STARTCHAR 1E46
ENCODING 7750
SWIDTH 810 0
DWIDTH 18 0
BBX 14 21 2 -5
BITMAP
E01C
E01C
F01C
F81C
FC1C
EC1C
EE1C
E71C
E39C
E1DC
E0DC
E0FC
E07C
E03C
E01C
E01C
0000
0000
0000
0300
0300
ENDCHAR
STARTCHAR 1E47
ENCODING 7751
SWIDTH 675 0
DWIDTH 15 0
BBX 11 17 2 -5
BITMAP
CF80
FFC0
F0E0
E060
C060
C060
C060
C060
C060
C060
C060
C060
0000
0000
0000
0600
0600
ENDCHAR
STARTCHAR 1E48
ENCODING 7752
SWIDTH 810 0
DWIDTH 18 0
BBX 14 20 2 -4
BITMAP
E01C
E01C
F01C
F81C
FC1C
EC1C
EE1C
E71C
E39C
E1DC
E0DC
E0FC
E07C
E03C
E01C
E01C
0000
0000
0000
1FE0
ENDCHAR
STARTCHAR 1E49
ENCODING 7753
SWIDTH 675 0
DWIDTH 15 0
BBX 11 16 2 -4
BITMAP
CF80
FFC0
F0E0
E060
C060
C060
C060
C060
C060
C060
C060
C060
0000
0000
0000
3F80
ENDCHAR
STARTCHAR 1E4C
ENCODING 7756
SWIDTH 855 0
DWIDTH 19 0
BBX 17 23 1 0
BITMAP
007000
00E000
018000
000000
079000
04E000
000000
07E000
1FF800
3C1C00
700E00
600700
E00300
C00300
C00380
C00380
C00300
E00300
600700
700E00
3C1C00
1FF800
07E000
ENDCHAR
STARTCHAR 1E4D
ENCODING 7757
SWIDTH 630 0
DWIDTH 14 0
BBX 12 20 1 0
BITMAP
01C0
0300
0600
0000
1CC0
3380
0000
0000
1F80
3FC0
70E0
E070
C030
C030
C030
C030
E070
70E0
3FC0
1F80
ENDCHAR
STARTCHAR 1E4E
ENCODING 7758
SWIDTH 855 0
DWIDTH 19 0
BBX 17 23 1 0
BITMAP
066000
066000
000000
000000
079000
04E000
000000
07E000
1FF800
3C1C00
700E00
600700
E00300
C00300
C00380
C00380
C00300
E00300
600700
700E00
3C1C00
1FF800
07E000
ENDCHAR
STARTCHAR 1E4F
ENCODING 7759
SWIDTH 630 0
DWIDTH 14 0
BBX 12 19 1 0
BITMAP
1980
1980
0000
1CC0
3380
0000
0000
1F80
3FC0
70E0
E070
C030
C030
C030
C030
E070
70E0
3FC0
1F80
ENDCHAR
STARTCHAR 1E50
ENCODING 7760
SWIDTH 855 0
DWIDTH 19 0
BBX 17 23 1 0
BITMAP
060000
030000
018000
000000
07F000
000000
000000
07E000
1FF800
3C1C00
700E00
600700
E00300
C00300
C00380
C00380
C00300
E00300
600700
700E00
3C1C00
1FF800
07E000
ENDCHAR
STARTCHAR 1E51
ENCODING 7761
SWIDTH 630 0
DWIDTH 14 0
BBX 12 20 1 0
BITMAP
1800
0C00
0600
0000
0000
3FC0
0000
0000
1F80
3FC0
70E0
E070
C030
C030
C030
C030
E070
70E0
3FC0
1F80
ENDCHAR
STARTCHAR 1E52
ENCODING 7762
SWIDTH 855 0
DWIDTH 19 0
BBX 17 23 1 0
BITMAP
007000
00E000
018000
000000
07F000
000000
000000
07E000
1FF800
3C1C00
700E00
600700
E00300
C00300
C00380
C00380
C00300
E00300
600700
700E00
3C1C00
1FF800
07E000
ENDCHAR
STARTCHAR 1E53
ENCODING 7763
SWIDTH 630 0
DWIDTH 14 0
BBX 12 20 1 0
BITMAP
01C0
0300
0600
0000
0000
3FC0
0000
0000
1F80
3FC0
70E0
E070
C030
C030
C030
C030
E070
70E0
3FC0
1F80
ENDCHAR
STARTCHAR 1E5A
ENCODING 7770
SWIDTH 720 0
DWIDTH 16 0
BBX 13 21 2 -5
BITMAP
FF80
FFE0
E070
E038
E018
E018
E018
E038
E070
FFE0
FF80
E0C0
E0E0
E060
E030
E038
0000
0000
0000
0600
0600
ENDCHAR
STARTCHAR 1E5B
ENCODING 7771
SWIDTH 405 0
DWIDTH 9 0
BBX 6 17 2 -5
BITMAP
CC
FC
F0
E0
C0
C0
C0
C0
C0
C0
C0
C0
00
00
00
C0
C0
ENDCHAR
STARTCHAR 1E5E
ENCODING 7774
SWIDTH 720 0
DWIDTH 16 0
BBX 13 20 2 -4
BITMAP
FF80
FFE0
E070
E038
E018
E018
E018
E038
E070
FFE0
FF80
E0C0
E0E0
E060
E030
E038
0000
0000
0000
1FC0
ENDCHAR
STARTCHAR 1E5F
ENCODING 7775
SWIDTH 405 0
DWIDTH 9 0
BBX 9 16 -1 -4
BITMAP
1980
1F80
1E00
1C00
1800
1800
1800
1800
1800
1800
1800
1800
0000
0000
0000
FF00
ENDCHAR
STARTCHAR 1E60
ENCODING 7776
SWIDTH 630 0
DWIDTH 14 0
BBX 12 20 1 0
BITMAP
0600
0600
0200
0000
1F80
3FE0
7060
E000
C000
E000
7000
3F00
0FC0
00E0
0070
0030
0030
E060
FFE0
1F80
ENDCHAR
STARTCHAR 1E61
ENCODING 7777
SWIDTH 495 0
DWIDTH 11 0
BBX 9 17 1 0
BITMAP
1C00
1C00
0800
0000
0000
3F00
7F80
C000
C000
E000
7C00
3F80
0380
0180
8180
FF80
7E00
ENDCHAR
STARTCHAR 1E62
ENCODING 7778
SWIDTH 630 0
DWIDTH 14 0
BBX 12 21 1 -5
BITMAP
1F80
3FE0
7060
E000
C000
E000
7000
3F00
0FC0
00E0
0070
0030
0030
E060
FFE0
1F80
0000
0000
0000
0600
0600
ENDCHAR
STARTCHAR 1E63
ENCODING 7779
SWIDTH 495 0
DWIDTH 11 0
BBX 9 17 1 -5
BITMAP
3F00
7F80
C000
C000
E000
7C00
3F80
0380
0180
8180
FF80
7E00
0000
0000
0000
1C00
0800
ENDCHAR
STARTCHAR 1E64
ENCODING 7780
SWIDTH 630 0
DWIDTH 14 0
BBX 12 23 1 0
BITMAP
0600
0600
0000
01C0
0300
0600
0000
1F80
3FE0
7060
E000
C000
E000
7000
3F00
0FC0
00E0
0070
0030
0030
E060
FFE0
1F80
ENDCHAR
STARTCHAR 1E65
ENCODING 7781
SWIDTH 495 0
DWIDTH 11 0
BBX 9 19 1 0
BITMAP
1C00
0800
0000
0600
0C00
1800
0000
3F00
7F80
C000
C000
E000
7C00
3F80
0380
0180
8180
FF80
7E00
ENDCHAR
STARTCHAR 1E66
ENCODING 7782
SWIDTH 630 0
DWIDTH 14 0
BBX 12 22 1 0
BITMAP
0600
0600
0000
1980
0F00
0000
1F80
3FE0
7060
E000
C000
E000
7000
3F00
0FC0
00E0
0070
0030
0030
E060
FFE0
1F80
ENDCHAR
STARTCHAR 1E67
ENCODING 7783
SWIDTH 495 0
DWIDTH 11 0
BBX 9 19 1 0
BITMAP
0800
1C00
0000
6300
1C00
0000
0000
3F00
7F80
C000
C000
E000
7C00
3F80
0380
0180
8180
FF80
7E00
ENDCHAR
STARTCHAR 1E68
ENCODING 7784
SWIDTH 630 0
DWIDTH 14 0
BBX 12 25 1 -5
BITMAP
0600
0600
0200
0000
1F80
3FE0
7060
E000
C000
E000
7000
3F00
0FC0
00E0
0070
0030
0030
E060
FFE0
1F80
0000
0000
0000
0600
0600
ENDCHAR
STARTCHAR 1E69
ENCODING 7785
SWIDTH 495 0
DWIDTH 11 0
BBX 9 22 1 -5
BITMAP
1C00
1C00
0800
0000
0000
3F00
7F80
C000
C000
E000
7C00
3F80
0380
0180
8180
FF80
7E00
0000
0000
0000
1C00
0800
ENDCHAR
STARTCHAR 1E6C
ENCODING 7788
SWIDTH 585 0
DWIDTH 13 0
BBX 13 21 0 -5
BITMAP
FFF8
FFF8
0700
0700
0700
0700
0700
0700
0700
0700
0700
0700
0700
0700
0700
0700
0000
0000
0000
0700
0200
ENDCHAR
STARTCHAR 1E6D
ENCODING 7789
SWIDTH 405 0
DWIDTH 9 0
BBX 8 20 0 -5
BITMAP
30
30
30
FF
FF
30
30
30
30
30
30
30
38
1F
0F
00
00
00
06
06
ENDCHAR
STARTCHAR 1E6E
ENCODING 7790
SWIDTH 585 0
DWIDTH 13 0
BBX 13 20 0 -4
BITMAP
FFF8
FFF8
0700
0700
0700
0700
0700
0700
0700
0700
0700
0700
0700
0700
0700
0700
0000
0000
0000
1FC0
ENDCHAR
STARTCHAR 1E6F
ENCODING 7791
SWIDTH 405 0
DWIDTH 9 0
BBX 9 19 0 -4
BITMAP
3000
3000
3000
FF00
FF00
3000
3000
3000
3000
3000
3000
3000
3800
1F00
0F00
0000
0000
0000
3F80
ENDCHAR
STARTCHAR 1E78
ENCODING 7800
SWIDTH 810 0
DWIDTH 18 0
BBX 13 23 2 0
BITMAP
01C0
0300
0600
0440
0E40
11C0
0000
C018
C018
C018
C018
C018
C018
C018
C018
C018
C018
E018
E018
6038
7070
3FE0
0FC0
ENDCHAR
STARTCHAR 1E79
ENCODING 7801
SWIDTH 675 0
DWIDTH 15 0
BBX 11 20 2 0
BITMAP
0180
0700
0C00
0000
3C80
2780
0000
0000
C060
C060
C060
C060
C060
C060
C060
C060
C0E0
E1E0
7FE0
3E60
ENDCHAR
STARTCHAR 1E7A
ENCODING 7802
SWIDTH 810 0
DWIDTH 18 0
BBX 13 23 2 0
BITMAP
0CC0
0CC0
0000
0000
1FC0
0000
0000
C018
C018
C018
C018
C018
C018
C018
C018
C018
C018
E018
E018
6038
7070
3FE0
0FC0
ENDCHAR
STARTCHAR 1E7B
ENCODING 7803
SWIDTH 675 0
DWIDTH 15 0
BBX 11 19 2 0
BITMAP
3380
1100
0000
0000
3F80
0000
0000
C060
C060
C060
C060
C060
C060
C060
C060
C0E0
E1E0
7FE0
3E60
ENDCHAR
STARTCHAR 1E80
ENCODING 7808
SWIDTH 1125 0
DWIDTH 25 0
BBX 23 20 1 0
BITMAP
00E000
007000
001800
000000
C03806
C03806
60380C
606C0C
606C0C
706C1C
30C618
30C618
38C638
198330
198330
1D8370
0F01E0
0F01E0
0F01E0
0600C0
ENDCHAR
STARTCHAR 1E81
ENCODING 7809
SWIDTH 900 0
DWIDTH 20 0
BBX 20 17 0 0
BITMAP
038000
00C000
006000
000000
000000
C06030
606060
60F060
60F060
3198C0
3198C0
319880
1B0D80
1B0D80
0E0F00
0E0700
0E0700
ENDCHAR
STARTCHAR 1E82
ENCODING 7810
SWIDTH 1125 0
DWIDTH 25 0
BBX 23 20 1 0
BITMAP
000E00
001C00
003000
000000
C03806
C03806
60380C
606C0C
606C0C
706C1C
30C618
30C618
38C638
198330
198330
1D8370
0F01E0
0F01E0
0F01E0
0600C0
ENDCHAR
STARTCHAR 1E83
ENCODING 7811
SWIDTH 900 0
DWIDTH 20 0
BBX 20 17 0 0
BITMAP
001800
003000
006000
000000
000000
C06030
606060
60F060
60F060
3198C0
3198C0
319880
1B0D80
1B0D80
0E0F00
0E0700
0E0700
ENDCHAR
STARTCHAR 1E84
ENCODING 7812
SWIDTH 1125 0
DWIDTH 25 0
BBX 23 20 1 0
BITMAP
004600
00E600
000000
000000
C03806
C03806
60380C
606C0C
606C0C
706C1C
30C618
30C618
38C638
198330
198330
1D8370
0F01E0
0F01E0
0F01E0
0600C0
ENDCHAR
STARTCHAR 1E85
ENCODING 7813
SWIDTH 900 0
DWIDTH 20 0
BBX 20 16 0 0
BITMAP
019800
019800
000000
000000
C06030
606060
60F060
60F060
3198C0
3198C0
319880
1B0D80
1B0D80
0E0F00
0E0700
0E0700
ENDCHAR
STARTCHAR 1E8E
ENCODING 7822
SWIDTH 630 0
DWIDTH 14 0
BBX 14 20 0 0
BITMAP
0300
0300
0100
0000
E00C
601C
7018
3030
1830
1C60
0CE0
0EC0
0780
0380
0300
0300
0300
0300
0300
0300
ENDCHAR
STARTCHAR 1E8F
ENCODING 7823
SWIDTH 540 0
DWIDTH 12 0
BBX 12 22 0 -5
BITMAP
0600
0600
0400
0000
0000
C030
6030
6060
7060
3060
30C0
18C0
1980
0D80
0F00
0F00
0700
0600
0600
8C00
FC00
F800
ENDCHAR
STARTCHAR 1E92
ENCODING 7826
SWIDTH 675 0
DWIDTH 15 0
BBX 13 21 1 -5
BITMAP
FFF8
FFF8
0070
0060
00C0
01C0
0380
0700
0600
0C00
1C00
3800
3000
6000
FFF8
FFF8
0000
0000
0000
0300
0300
ENDCHAR
STARTCHAR 1E93
ENCODING 7827
SWIDTH 540 0
DWIDTH 12 0
BBX 10 17 1 -5
BITMAP
FFC0
FF80
0380
0700
0600
0C00
1C00
3800
3000
6000
FFC0
FFC0
0000
0000
0000
0C00
0C00
ENDCHAR
STARTCHAR 1E97
ENCODING 7831
SWIDTH 405 0
DWIDTH 9 0
BBX 8 19 0 0
BITMAP
C4
CE
00
00
30
30
30
FF
FF
30
30
30
30
30
30
30
38
1F
0F
ENDCHAR
STARTCHAR 1E9E
ENCODING 7838
SWIDTH 765 0
DWIDTH 17 0
BBX 14 16 2 0
BITMAP
0FC0
3FF0
7830
6030
6060
E0C0
C180
C3E0
C3F8
C018
C01C
C00C
C01C
C018
C7F8
C7E0
ENDCHAR
STARTCHAR 1EA0
ENCODING 7840
SWIDTH 720 0
DWIDTH 16 0
BBX 16 21 0 -5
BITMAP
0180
03C0
03C0
0760
0660
0670
0C30
0C38
1818
1818
3FFC
3FFC
300E
6006
6007
C003
0000
0000
0000
0180
0180
ENDCHAR
STARTCHAR 1EA1
ENCODING 7841
SWIDTH 585 0
DWIDTH 13 0
BBX 10 17 1 -5
BITMAP
3F00
FF80
41C0
00C0
00C0
3FC0
7FC0
C0C0
C0C0
E1C0
7FC0
3EC0
0000
0000
0000
0C00
0C00
ENDCHAR
STARTCHAR 1EA2
ENCODING 7842
SWIDTH 720 0
DWIDTH 16 0
BBX 16 22 0 0
BITMAP
03C0
0240
0040
00C0
0080
0000
0180
03C0
03C0
0760
0660
0670
0C30
0C38
1818
1818
3FFC
3FFC
300E
6006
6007
C003
ENDCHAR
STARTCHAR 1EA3
ENCODING 7843
SWIDTH 585 0
DWIDTH 13 0
BBX 10 18 1 0
BITMAP
0E00
0300
0300
0200
0000
0000
3F00
FF80
41C0
00C0
00C0
3FC0
7FC0
C0C0
C0C0
E1C0
7FC0
3EC0
ENDCHAR
STARTCHAR 1EA4
ENCODING 7844
SWIDTH 720 0
DWIDTH 16 0
BBX 16 22 0 0
BITMAP
0006
000C
0018
03C0
0660
0000
0180
03C0
03C0
0760
0660
0670
0C30
0C38
1818
1818
3FFC
3FFC
300E
6006
6007
C003
ENDCHAR
STARTCHAR 1EA5
ENCODING 7845
SWIDTH 585 0
DWIDTH 13 0
BBX 12 18 1 0
BITMAP
0030
0060
0E80
3B00
0080
0000
3F00
FF80
41C0
00C0
00C0
3FC0
7FC0
C0C0
C0C0
E1C0
7FC0
3EC0
ENDCHAR
STARTCHAR 1EA6
ENCODING 7846
SWIDTH 720 0
DWIDTH 16 0
BBX 16 22 0 0
BITMAP
00E0
0030
0018
03C0
0660
0000
0180
03C0
03C0
0760
0660
0670
0C30
0C38
1818
1818
3FFC
3FFC
300E
6006
6007
C003
ENDCHAR
STARTCHAR 1EA7
ENCODING 7847
SWIDTH 585 0
DWIDTH 13 0
BBX 11 18 1 0
BITMAP
0380
00C0
0E60
3B00
0080
0000
3F00
FF80
41C0
00C0
00C0
3FC0
7FC0
C0C0
C0C0
E1C0
7FC0
3EC0
ENDCHAR
STARTCHAR 1EA8
ENCODING 7848
SWIDTH 720 0
DWIDTH 16 0
BBX 16 22 0 0
BITMAP
0030
0008
0018
03C0
0660
0000
0180
03C0
03C0
0760
0660
0670
0C30
0C38
1818
1818
3FFC
3FFC
300E
6006
6007
C003
ENDCHAR
STARTCHAR 1EA9
ENCODING 7849
SWIDTH 585 0
DWIDTH 13 0
BBX 10 19 1 0
BITMAP
01C0
0040
0040
0E00
3B00
0080
0000
3F00
FF80
41C0
00C0
00C0
3FC0
7FC0
C0C0
C0C0
E1C0
7FC0
3EC0
ENDCHAR
STARTCHAR 1EAA
ENCODING 7850
SWIDTH 720 0
DWIDTH 16 0
BBX 16 23 0 0
BITMAP
0400
07B0
0C60
0000
03C0
0660
0000
0180
03C0
03C0
0760
0660
0670
0C30
0C38
1818
1818
3FFC
3FFC
300E
6006
6007
C003
ENDCHAR
STARTCHAR 1EAB
ENCODING 7851
SWIDTH 585 0
DWIDTH 13 0
BBX 10 19 1 0
BITMAP
3C80
2780
0000
0E00
3B00
0080
0000
3F00
FF80
41C0
00C0
00C0
3FC0
7FC0
C0C0
C0C0
E1C0
7FC0
3EC0
ENDCHAR
STARTCHAR 1EAC
ENCODING 7852
SWIDTH 720 0
DWIDTH 16 0
BBX 16 25 0 -5
BITMAP
01C0
0360
0630
0000
0180
03C0
03C0
0760
0660
0670
0C30
0C38
1818
1818
3FFC
3FFC
300E
6006
6007
C003
0000
0000
0000
0180
0180
ENDCHAR
STARTCHAR 1EAD
ENCODING 7853
SWIDTH 585 0
DWIDTH 13 0
BBX 10 22 1 -5
BITMAP
0E00
1B00
3180
0000
0000
3F00
FF80
41C0
00C0
00C0
3FC0
7FC0
C0C0
C0C0
E1C0
7FC0
3EC0
0000
0000
0000
0C00
0C00
ENDCHAR
STARTCHAR 1EAE
ENCODING 7854
SWIDTH 720 0
DWIDTH 16 0
BBX 16 23 0 0
BITMAP
0070
00C0
0180
0000
0620
03C0
0000
0180
03C0
03C0
0760
0660
0670
0C30
0C38
1818
1818
3FFC
3FFC
300E
6006
6007
C003
ENDCHAR
STARTCHAR 1EAF
ENCODING 7855
SWIDTH 585 0
DWIDTH 13 0
BBX 10 20 1 0
BITMAP
0180
0700
0C00
0000
3180
1F00
0000
0000
3F00
FF80
41C0
00C0
00C0
3FC0
7FC0
C0C0
C0C0
E1C0
7FC0
3EC0
ENDCHAR
STARTCHAR 1EB0
ENCODING 7856
SWIDTH 720 0
DWIDTH 16 0
BBX 16 23 0 0
BITMAP
0600
0300
0180
0000
0620
03C0
0000
0180
03C0
03C0
0760
0660
0670
0C30
0C38
1818
1818
3FFC
3FFC
300E
6006
6007
C003
ENDCHAR
STARTCHAR 1EB1
ENCODING 7857
SWIDTH 585 0
DWIDTH 13 0
BBX 10 20 1 0
BITMAP
3000
1800
0400
0000
3180
1F00
0000
0000
3F00
FF80
41C0
00C0
00C0
3FC0
7FC0
C0C0
C0C0
E1C0
7FC0
3EC0
ENDCHAR
STARTCHAR 1EB2
ENCODING 7858
SWIDTH 720 0
DWIDTH 16 0
BBX 16 23 0 0
BITMAP
0180
0040
00C0
0080
0620
03C0
0000
0180
03C0
03C0
0760
0660
0670
0C30
0C38
1818
1818
3FFC
3FFC
300E
6006
6007
C003
ENDCHAR
STARTCHAR 1EB3
ENCODING 7859
SWIDTH 585 0
DWIDTH 13 0
BBX 10 19 1 0
BITMAP
0E00
0200
0600
3180
1F00
0000
0000
3F00
FF80
41C0
00C0
00C0
3FC0
7FC0
C0C0
C0C0
E1C0
7FC0
3EC0
ENDCHAR
STARTCHAR 1EB4
ENCODING 7860
SWIDTH 720 0
DWIDTH 16 0
BBX 16 22 0 0
BITMAP
07B0
04E0
0000
0620
03C0
0000
0180
03C0
03C0
0760
0660
0670
0C30
0C38
1818
1818
3FFC
3FFC
300E
6006
6007
C003
ENDCHAR
STARTCHAR 1EB5
ENCODING 7861
SWIDTH 585 0
DWIDTH 13 0
BBX 10 19 1 0
BITMAP
3C80
2780
0000
3180
1F00
0000
0000
3F00
FF80
41C0
00C0
00C0
3FC0
7FC0
C0C0
C0C0
E1C0
7FC0
3EC0
ENDCHAR
STARTCHAR 1EB6
ENCODING 7862
SWIDTH 720 0
DWIDTH 16 0
BBX 16 25 0 -5
BITMAP
0430
0660
03C0
0000
0180
03C0
03C0
0760
0660
0670
0C30
0C38
1818
1818
3FFC
3FFC
300E
6006
6007
C003
0000
0000
0000
0180
0180
ENDCHAR
STARTCHAR 1EB7
ENCODING 7863
SWIDTH 585 0
DWIDTH 13 0
BBX 10 22 1 -5
BITMAP
2080
3180
1F00
0000
0000
3F00
FF80
41C0
00C0
00C0
3FC0
7FC0
C0C0
C0C0
E1C0
7FC0
3EC0
0000
0000
0000
0C00
0C00
ENDCHAR
STARTCHAR 1EB8
ENCODING 7864
SWIDTH 675 0
DWIDTH 15 0
BBX 12 21 2 -5
BITMAP
FFE0
FFE0
E000
E000
E000
E000
E000
FFC0
FFC0
E000
E000
E000
E000
E000
FFF0
FFF0
0000
0000
0000
0600
0600
ENDCHAR
STARTCHAR 1EB9
ENCODING 7865
SWIDTH 630 0
DWIDTH 14 0
BBX 12 17 1 -5
BITMAP
1F00
3FC0
70E0
E060
C030
FFF0
FFF0
C000
E000
7040
3FE0
0F80
0000
0000
0000
0600
0600
ENDCHAR
STARTCHAR 1EBA
ENCODING 7866
SWIDTH 675 0
DWIDTH 15 0
BBX 12 22 2 0
BITMAP
0E00
0B00
0100
0300
0200
0000
FFE0
FFE0
E000
E000
E000
E000
E000
FFC0
FFC0
E000
E000
E000
E000
E000
FFF0
FFF0
ENDCHAR
STARTCHAR 1EBB
ENCODING 7867
SWIDTH 630 0
DWIDTH 14 0
BBX 12 18 1 0
BITMAP
0E00
0300
0100
0300
0000
0000
1F00
3FC0
70E0
E060
C030
FFF0
FFF0
C000
E000
7040
3FE0
0F80
ENDCHAR
STARTCHAR 1EBC
ENCODING 7868
SWIDTH 675 0
DWIDTH 15 0
BBX 12 20 2 0
BITMAP
18C0
3680
2380
0000
FFE0
FFE0
E000
E000
E000
E000
E000
FFC0
FFC0
E000
E000
E000
E000
E000
FFF0
FFF0
ENDCHAR
STARTCHAR 1EBD
ENCODING 7869
SWIDTH 630 0
DWIDTH 14 0
BBX 12 16 1 0
BITMAP
18C0
3680
2380
0000
1F00
3FC0
70E0
E060
C030
FFF0
FFF0
C000
E000
7040
3FE0
0F80
ENDCHAR
STARTCHAR 1EBE
ENCODING 7870
SWIDTH 675 0
DWIDTH 15 0
BBX 13 22 2 0
BITMAP
0018
0030
0040
0F00
1980
0000
FFE0
FFE0
E000
E000
E000
E000
E000
FFC0
FFC0
E000
E000
E000
E000
E000
FFF0
FFF0
ENDCHAR
STARTCHAR 1EBF
ENCODING 7871
SWIDTH 630 0
DWIDTH 14 0
BBX 12 18 1 0
BITMAP
0030
0060
0E00
1980
0000
0000
1F00
3FC0
70E0
E060
C030
FFF0
FFF0
C000
E000
7040
3FE0
0F80
ENDCHAR
STARTCHAR 1EC0
ENCODING 7872
SWIDTH 675 0
DWIDTH 15 0
BBX 12 22 2 0
BITMAP
0380
01C0
0060
0F00
1980
0000
FFE0
FFE0
E000
E000
E000
E000
E000
FFC0
FFC0
E000
E000
E000
E000
E000
FFF0
FFF0
ENDCHAR
STARTCHAR 1EC1
ENCODING 7873
SWIDTH 630 0
DWIDTH 14 0
BBX 12 18 1 0
BITMAP
0180
00C0
0E60
1980
0000
0000
1F00
3FC0
70E0
E060
C030
FFF0
FFF0
C000
E000
7040
3FE0
0F80
ENDCHAR
STARTCHAR 1EC2
ENCODING 7874
SWIDTH 675 0
DWIDTH 15 0
BBX 12 22 2 0
BITMAP
01C0
0040
0040
0F00
1980
0000
FFE0
FFE0
E000
E000
E000
E000
E000
FFC0
FFC0
E000
E000
E000
E000
E000
FFF0
FFF0
ENDCHAR
STARTCHAR 1EC3
ENCODING 7875
SWIDTH 630 0
DWIDTH 14 0
BBX 12 19 1 0
BITMAP
01C0
0040
0040
0E00
1980
0000
0000
1F00
3FC0
70E0
E060
C030
FFF0
FFF0
C000
E000
7040
3FE0
0F80
ENDCHAR
STARTCHAR 1EC4
ENCODING 7876
SWIDTH 675 0
DWIDTH 15 0
BBX 12 23 2 0
BITMAP
1000
3C80
2380
0000
0F00
1980
0000
FFE0
FFE0
E000
E000
E000
E000
E000
FFC0
FFC0
E000
E000
E000
E000
E000
FFF0
FFF0
ENDCHAR
STARTCHAR 1EC5
ENCODING 7877
SWIDTH 630 0
DWIDTH 14 0
BBX 12 19 1 0
BITMAP
1C80
2780
0000
0E00
1980
0000
0000
1F00
3FC0
70E0
E060
C030
FFF0
FFF0
C000
E000
7040
3FE0
0F80
ENDCHAR
STARTCHAR 1EC6
ENCODING 7878
SWIDTH 675 0
DWIDTH 15 0
BBX 12 25 2 -5
BITMAP
0E00
1B00
3180
0000
FFE0
FFE0
E000
E000
E000
E000
E000
FFC0
FFC0
E000
E000
E000
E000
E000
FFF0
FFF0
0000
0000
0000
0600
0600
ENDCHAR
STARTCHAR 1EC7
ENCODING 7879
SWIDTH 630 0
DWIDTH 14 0
BBX 12 22 1 -5
BITMAP
0E00
1F00
3180
0000
0000
1F00
3FC0
70E0
E060
C030
FFF0
FFF0
C000
E000
7040
3FE0
0F80
0000
0000
0000
0600
0600
ENDCHAR
STARTCHAR 1EC8
ENCODING 7880
SWIDTH 315 0
DWIDTH 7 0
BBX 4 22 2 0
BITMAP
E0
30
30
20
00
00
E0
E0
E0
E0
E0
E0
E0
E0
E0
E0
E0
E0
E0
E0
E0
E0
ENDCHAR
STARTCHAR 1EC9
ENCODING 7881
SWIDTH 270 0
DWIDTH 6 0
BBX 4 18 1 0
BITMAP
F0
10
10
30
00
00
60
60
60
60
60
60
60
60
60
60
60
60
ENDCHAR
STARTCHAR 1ECA
ENCODING 7882
SWIDTH 315 0
DWIDTH 7 0
BBX 3 21 2 -5
BITMAP
E0
E0
E0
E0
E0
E0
E0
E0
E0
E0
E0
E0
E0
E0
E0
E0
00
00
00
C0
C0
ENDCHAR
STARTCHAR 1ECB
ENCODING 7883
SWIDTH 270 0
DWIDTH 6 0
BBX 3 22 2 -5
BITMAP
C0
E0
C0
00
00
C0
C0
C0
C0
C0
C0
C0
C0
C0
C0
C0
C0
00
00
00
C0
C0
ENDCHAR
STARTCHAR 1ECC
ENCODING 7884
SWIDTH 855 0
DWIDTH 19 0
BBX 17 21 1 -5
BITMAP
07E000
1FF800
3C1C00
700E00
600700
E00300
C00300
C00380
C00380
C00300
E00300
600700
700E00
3C1C00
1FF800
07E000
000000
000000
000000
018000
018000
ENDCHAR
STARTCHAR 1ECD
ENCODING 7885
SWIDTH 630 0
DWIDTH 14 0
BBX 12 17 1 -5
BITMAP
1F80
3FC0
70E0
E070
C030
C030
C030
C030
E070
70E0
3FC0
1F80
0000
0000
0000
0600
0600
ENDCHAR
STARTCHAR 1ECE
ENCODING 7886
SWIDTH 855 0
DWIDTH 19 0
BBX 17 21 1 0
BITMAP
03C000
006000
004000
00C000
000000
07E000
1FF800
3C1C00
700E00
600700
E00300
C00300
C00380
C00380
C00300
E00300
600700
700E00
3C1C00
1FF800
07E000
ENDCHAR
STARTCHAR 1ECF
ENCODING 7887
SWIDTH 630 0
DWIDTH 14 0
BBX 12 18 1 0
BITMAP
0F00
0900
0100
0300
0200
0000
1F80
3FC0
70E0
E070
C030
C030
C030
C030
E070
70E0
3FC0
1F80
ENDCHAR
STARTCHAR 1ED0
ENCODING 7888
SWIDTH 855 0
DWIDTH 19 0
BBX 17 22 1 0
BITMAP
000700
000C00
001800
03C000
063000
000000
07E000
1FF800
3C1C00
700E00
600700
E00300
C00300
C00380
C00380
C00300
E00300
600700
700E00
3C1C00
1FF800
07E000
ENDCHAR
STARTCHAR 1ED1
ENCODING 7889
SWIDTH 630 0
DWIDTH 14 0
BBX 13 18 1 0
BITMAP
0038
0060
0F00
1980
0000
0000
1F80
3FC0
70E0
E070
C030
C030
C030
C030
E070
70E0
3FC0
1F80
ENDCHAR
STARTCHAR 1ED2
ENCODING 7890
SWIDTH 855 0
DWIDTH 19 0
BBX 17 22 1 0
BITMAP
006000
003000
001800
03C000
063000
000000
07E000
1FF800
3C1C00
700E00
600700
E00300
C00300
C00380
C00380
C00300
E00300
600700
700E00
3C1C00
1FF800
07E000
ENDCHAR
STARTCHAR 1ED3
ENCODING 7891
SWIDTH 630 0
DWIDTH 14 0
BBX 12 18 1 0
BITMAP
0180
00C0
0F20
1980
0000
0000
1F80
3FC0
70E0
E070
C030
C030
C030
C030
E070
70E0
3FC0
1F80
ENDCHAR
STARTCHAR 1ED4
ENCODING 7892
SWIDTH 855 0
DWIDTH 19 0
BBX 17 22 1 0
BITMAP
003800
000800
001800
03C000
063000
000000
07E000
1FF800
3C1C00
700E00
600700
E00300
C00300
C00380
C00380
C00300
E00300
600700
700E00
3C1C00
1FF800
07E000
ENDCHAR
STARTCHAR 1ED5
ENCODING 7893
SWIDTH 630 0
DWIDTH 14 0
BBX 12 19 1 0
BITMAP
01C0
0020
0040
0F40
1980
0000
0000
1F80
3FC0
70E0
E070
C030
C030
C030
C030
E070
70E0
3FC0
1F80
ENDCHAR
STARTCHAR 1ED6
ENCODING 7894
SWIDTH 855 0
DWIDTH 19 0
BBX 17 22 1 0
BITMAP
079000
04E000
000000
03C000
063000
000000
07E000
1FF800
3C1C00
700E00
600700
E00300
C00300
C00380
C00380
C00300
E00300
600700
700E00
3C1C00
1FF800
07E000
ENDCHAR
STARTCHAR 1ED7
ENCODING 7895
SWIDTH 630 0
DWIDTH 14 0
BBX 12 19 1 0
BITMAP
1CC0
3380
0000
0F00
1980
0000
0000
1F80
3FC0
70E0
E070
C030
C030
C030
C030
E070
70E0
3FC0
1F80
ENDCHAR
STARTCHAR 1ED8
ENCODING 7896
SWIDTH 855 0
DWIDTH 19 0
BBX 17 25 1 -5
BITMAP
01C000
036000
063000
000000
07E000
1FF800
3C1C00
700E00
600700
E00300
C00300
C00380
C00380
C00300
E00300
600700
700E00
3C1C00
1FF800
07E000
000000
000000
000000
018000
018000
ENDCHAR
STARTCHAR 1ED9
ENCODING 7897
SWIDTH 630 0
DWIDTH 14 0
BBX 12 22 1 -5
BITMAP
0600
0F00
19C0
0000
0000
1F80
3FC0
70E0
E070
C030
C030
C030
C030
E070
70E0
3FC0
1F80
0000
0000
0000
0600
0600
ENDCHAR
STARTCHAR 1EDA
ENCODING 7898
SWIDTH 855 0
DWIDTH 19 0
BBX 17 20 1 0
BITMAP
007000
00C300
018100
000100
07FF00
1FFC00
3C1C00
700E00
600700
E00300
C00300
C00380
C00380
C00300
E00300
600700
700E00
3C1C00
1FF800
07E000
ENDCHAR
STARTCHAR 1EDB
ENCODING 7899
SWIDTH 630 0
DWIDTH 14 0
BBX 12 17 1 0
BITMAP
01C0
0300
0630
0030
0030
1FE0
3FC0
70E0
E070
C030
C030
C030
C030
E070
70E0
3FC0
1F80
ENDCHAR
STARTCHAR 1EDC
ENCODING 7900
SWIDTH 855 0
DWIDTH 19 0
BBX 17 20 1 0
BITMAP
070000
038300
00C100
000100
07FF00
1FFC00
3C1C00
700E00
600700
E00300
C00300
C00380
C00380
C00300
E00300
600700
700E00
3C1C00
1FF800
07E000
ENDCHAR
STARTCHAR 1EDD
ENCODING 7901
SWIDTH 630 0
DWIDTH 14 0
BBX 12 17 1 0
BITMAP
3800
0C00
0630
0030
0030
1FE0
3FC0
70E0
E070
C030
C030
C030
C030
E070
70E0
3FC0
1F80
ENDCHAR
STARTCHAR 1EDE
ENCODING 7902
SWIDTH 855 0
DWIDTH 19 0
BBX 17 21 1 0
BITMAP
03C000
006000
004300
00C100
000100
07FF00
1FFC00
3C1C00
700E00
600700
E00300
C00300
C00380
C00380
C00300
E00300
600700
700E00
3C1C00
1FF800
07E000
ENDCHAR
STARTCHAR 1EDF
ENCODING 7903
SWIDTH 630 0
DWIDTH 14 0
BBX 12 18 1 0
BITMAP
0F00
0900
0100
0330
0230
0030
1FE0
3FC0
70E0
E070
C030
C030
C030
C030
E070
70E0
3FC0
1F80
ENDCHAR
STARTCHAR 1EE0
ENCODING 7904
SWIDTH 855 0
DWIDTH 19 0
BBX 17 20 1 0
BITMAP
031000
05B300
046100
000100
07FF00
1FFC00
3C1C00
700E00
600700
E00300
C00300
C00380
C00380
C00300
E00300
600700
700E00
3C1C00
1FF800
07E000
ENDCHAR
STARTCHAR 1EE1
ENCODING 7905
SWIDTH 630 0
DWIDTH 14 0
BBX 12 16 1 0
BITMAP
1C80
1680
13B0
0030
1FE0
3FC0
70E0
E070
C030
C030
C030
C030
E070
70E0
3FC0
1F80
ENDCHAR
STARTCHAR 1EE2
ENCODING 7906
SWIDTH 855 0
DWIDTH 19 0
BBX 17 24 1 -5
BITMAP
000300
000100
000100
07FF00
1FFC00
3C1C00
700E00
600700
E00300
C00300
C00380
C00380
C00300
E00300
600700
700E00
3C1C00
1FF800
07E000
000000
000000
000000
018000
018000
ENDCHAR
STARTCHAR 1EE3
ENCODING 7907
SWIDTH 630 0
DWIDTH 14 0
BBX 12 20 1 -5
BITMAP
0030
0030
0030
1FE0
3FC0
70E0
E070
C030
C030
C030
C030
E070
70E0
3FC0
1F80
0000
0000
0000
0600
0600
ENDCHAR
STARTCHAR 1EE4
ENCODING 7908
SWIDTH 810 0
DWIDTH 18 0
BBX 13 21 2 -5
BITMAP
C018
C018
C018
C018
C018
C018
C018
C018
C018
C018
E018
E018
6038
7070
3FE0
0FC0
0000
0000
0000
0300
0300
ENDCHAR
STARTCHAR 1EE5
ENCODING 7909
SWIDTH 675 0
DWIDTH 15 0
BBX 11 17 2 -5
BITMAP
C060
C060
C060
C060
C060
C060
C060
C060
C0E0
E1E0
7FE0
3E60
0000
0000
0000
0E00
0C00
ENDCHAR
STARTCHAR 1EE6
ENCODING 7910
SWIDTH 810 0
DWIDTH 18 0
BBX 13 22 2 0
BITMAP
0700
0180
0080
0180
0100
0000
C018
C018
C018
C018
C018
C018
C018
C018
C018
C018
E018
E018
6038
7070
3FE0
0FC0
ENDCHAR
STARTCHAR 1EE7
ENCODING 7911
SWIDTH 675 0
DWIDTH 15 0
BBX 11 18 2 0
BITMAP
1E00
0300
0300
0600
0000
0000
C060
C060
C060
C060
C060
C060
C060
C060
C0E0
E1E0
7FE0
3E60
ENDCHAR
STARTCHAR 1EE8
ENCODING 7912
SWIDTH 810 0
DWIDTH 18 0
BBX 16 20 2 0
BITMAP
00C0
0182
0303
0003
C01E
C01C
C018
C018
C018
C018
C018
C018
C018
C018
E018
E018
6038
7070
3FE0
0FC0
ENDCHAR
STARTCHAR 1EE9
ENCODING 7913
SWIDTH 675 0
DWIDTH 15 0
BBX 13 17 2 0
BITMAP
0380
0700
0C18
0018
0018
C070
C060
C060
C060
C060
C060
C060
C060
C0E0
E1E0
7FE0
3E60
ENDCHAR
STARTCHAR 1EEA
ENCODING 7914
SWIDTH 810 0
DWIDTH 18 0
BBX 16 20 2 0
BITMAP
1C00
0602
0303
0003
C01E
C01C
C018
C018
C018
C018
C018
C018
C018
C018
E018
E018
6038
7070
3FE0
0FC0
ENDCHAR
STARTCHAR 1EEB
ENCODING 7915
SWIDTH 675 0
DWIDTH 15 0
BBX 13 17 2 0
BITMAP
3800
1C00
0E18
0018
0018
C070
C060
C060
C060
C060
C060
C060
C060
C0E0
E1E0
7FE0
3E60
ENDCHAR
STARTCHAR 1EEC
ENCODING 7916
SWIDTH 810 0
DWIDTH 18 0
BBX 16 22 2 0
BITMAP
0700
0180
0080
0182
0103
0003
C01E
C01C
C018
C018
C018
C018
C018
C018
C018
C018
E018
E018
6038
7070
3FE0
0FC0
ENDCHAR
STARTCHAR 1EED
ENCODING 7917
SWIDTH 675 0
DWIDTH 15 0
BBX 13 18 2 0
BITMAP
1E00
0300
0300
0618
0018
0018
C070
C060
C060
C060
C060
C060
C060
C060
C0E0
E1E0
7FE0
3E60
ENDCHAR
STARTCHAR 1EEE
ENCODING 7918
SWIDTH 810 0
DWIDTH 18 0
BBX 16 20 2 0
BITMAP
0C60
1B42
11C3
0003
C01E
C01C
C018
C018
C018
C018
C018
C018
C018
C018
E018
E018
6038
7070
3FE0
0FC0
ENDCHAR
STARTCHAR 1EEF
ENCODING 7919
SWIDTH 675 0
DWIDTH 15 0
BBX 13 17 2 0
BITMAP
1000
3C80
2798
0018
0018
C070
C060
C060
C060
C060
C060
C060
C060
C0E0
E1E0
7FE0
3E60
ENDCHAR
STARTCHAR 1EF0
ENCODING 7920
SWIDTH 810 0
DWIDTH 18 0
BBX 16 24 2 -5
BITMAP
0002
0003
0003
C01E
C01C
C018
C018
C018
C018
C018
C018
C018
C018
E018
E018
6038
7070
3FE0
0FC0
0000
0000
0000
0300
0300
ENDCHAR
STARTCHAR 1EF1
ENCODING 7921
SWIDTH 675 0
DWIDTH 15 0
BBX 13 20 2 -5
BITMAP
0018
0018
0018
C070
C060
C060
C060
C060
C060
C060
C060
C0E0
E1E0
7FE0
3E60
0000
0000
0000
0E00
0C00
ENDCHAR
STARTCHAR 1EF2
ENCODING 7922
SWIDTH 630 0
DWIDTH 14 0
BBX 14 20 0 0
BITMAP
0C00
0600
0300
0000
E00C
601C
7018
3030
1830
1C60
0CE0
0EC0
0780
0380
0300
0300
0300
0300
0300
0300
ENDCHAR
STARTCHAR 1EF3
ENCODING 7923
SWIDTH 540 0
DWIDTH 12 0
BBX 12 22 0 -5
BITMAP
3800
0C00
0600
0000
0000
C030
6030
6060
7060
3060
30C0
18C0
1980
0D80
0F00
0F00
0700
0600
0600
8C00
FC00
F800
ENDCHAR
STARTCHAR 1EF4
ENCODING 7924
SWIDTH 630 0
DWIDTH 14 0
BBX 14 21 0 -5
BITMAP
E00C
601C
7018
3030
1830
1C60
0CE0
0EC0
0780
0380
0300
0300
0300
0300
0300
0300
0000
0000
0000
0300
0300
ENDCHAR
STARTCHAR 1EF5
ENCODING 7925
SWIDTH 540 0
DWIDTH 12 0
BBX 12 17 0 -5
BITMAP
C030
6030
6060
7060
3060
30C0
18C0
1980
0D80
0F00
0F00
0700
0600
0600
8C00
FCC0
F8C0
ENDCHAR
STARTCHAR 1EF6
ENCODING 7926
SWIDTH 630 0
DWIDTH 14 0
BBX 14 22 0 0
BITMAP
0780
0080
0080
0080
0100
0000
E00C
601C
7018
3030
1830
1C60
0CE0
0EC0
0780
0380
0300
0300
0300
0300
0300
0300
ENDCHAR
STARTCHAR 1EF7
ENCODING 7927
SWIDTH 540 0
DWIDTH 12 0
BBX 12 23 0 -5
BITMAP
0F00
0100
0100
0300
0000
0000
C030
6030
6060
7060
3060
30C0
18C0
1980
0D80
0F00
0F00
0700
0600
0600
8C00
FC00
F800
ENDCHAR
STARTCHAR 1EF8
ENCODING 7928
SWIDTH 630 0
DWIDTH 14 0
BBX 14 20 0 0
BITMAP
0E20
0960
18C0
0000
E00C
601C
7018
3030
1830
1C60
0CE0
0EC0
0780
0380
0300
0300
0300
0300
0300
0300
ENDCHAR
STARTCHAR 1EF9
ENCODING 7929
SWIDTH 540 0
DWIDTH 12 0
BBX 12 22 0 -5
BITMAP
1000
3CC0
2380
0000
0000
C030
6030
6060
7060
3060
30C0
18C0
1980
0D80
0F00
0F00
0700
0600
0600
8C00
FC00
F800
ENDCHAR
STARTCHAR 2007
ENCODING 8199
SWIDTH 720 0
DWIDTH 16 0
BBX 0 0 0 0
BITMAP
ENDCHAR
STARTCHAR 2008
ENCODING 8200
SWIDTH 225 0
DWIDTH 5 0
BBX 0 0 0 0
BITMAP
ENDCHAR
STARTCHAR 2009
ENCODING 8201
SWIDTH 135 0
DWIDTH 3 0
BBX 0 0 0 0
BITMAP
ENDCHAR
STARTCHAR 200A
ENCODING 8202
SWIDTH 90 0
DWIDTH 2 0
BBX 0 0 0 0
BITMAP
ENDCHAR
STARTCHAR 200B
ENCODING 8203
SWIDTH 0 0
DWIDTH 0 0
BBX 0 0 0 0
BITMAP
ENDCHAR
STARTCHAR 2010
ENCODING 8208
SWIDTH 405 0
DWIDTH 9 0
BBX 6 2 1 5
BITMAP
FC
FC
ENDCHAR
STARTCHAR 2012
ENCODING 8210
SWIDTH 720 0
DWIDTH 16 0
BBX 14 1 1 7
BITMAP
FFFC
ENDCHAR
STARTCHAR 2013
ENCODING 8211
SWIDTH 495 0
DWIDTH 11 0
BBX 11 1 0 6
BITMAP
FFE0
ENDCHAR
STARTCHAR 2014
ENCODING 8212
SWIDTH 990 0
DWIDTH 22 0
BBX 22 1 0 6
BITMAP
FFFFFC
ENDCHAR
STARTCHAR 2015
ENCODING 8213
SWIDTH 990 0
DWIDTH 22 0
BBX 22 1 0 6
BITMAP
FFFFFC
ENDCHAR
STARTCHAR 2018
ENCODING 8216
SWIDTH 225 0
DWIDTH 5 0
BBX 3 6 1 11
BITMAP
60
40
40
C0
E0
E0
ENDCHAR
STARTCHAR 2019
ENCODING 8217
SWIDTH 225 0
DWIDTH 5 0
BBX 3 6 1 11
BITMAP
E0
E0
E0
40
40
C0
ENDCHAR
STARTCHAR 201A
ENCODING 8218
SWIDTH 225 0
DWIDTH 5 0
BBX 3 6 1 -3
BITMAP
E0
E0
E0
40
40
C0
ENDCHAR
STARTCHAR 201C
ENCODING 8220
SWIDTH 405 0
DWIDTH 9 0
BBX 7 6 1 11
BITMAP
66
46
44
CE
EE
EE
ENDCHAR
STARTCHAR 201D
ENCODING 8221
SWIDTH 405 0
DWIDTH 9 0
BBX 7 6 1 11
BITMAP
E6
EE
E6
46
44
C4
ENDCHAR
STARTCHAR 201E
ENCODING 8222
SWIDTH 405 0
DWIDTH 9 0
BBX 7 6 1 -3
BITMAP
E6
EE
E6
46
44
C4
ENDCHAR
STARTCHAR 2020
ENCODING 8224
SWIDTH 540 0
DWIDTH 12 0
BBX 11 21 1 -5
BITMAP
0C00
0C00
0C00
0C00
0C00
0C00
FFE0
FFE0
0C00
0C00
0C00
0C00
0C00
0C00
0C00
0C00
0C00
0C00
0C00
0C00
0C00
ENDCHAR
STARTCHAR 2021
ENCODING 8225
SWIDTH 540 0
DWIDTH 12 0
BBX 11 21 1 -5
BITMAP
0C00
0C00
0C00
0C00
0C00
0C00
FFE0
FFE0
0C00
0C00
0C00
0C00
0C00
FFE0
FFE0
0C00
0C00
0C00
0C00
0C00
0C00
ENDCHAR
STARTCHAR 2022
ENCODING 8226
SWIDTH 315 0
DWIDTH 7 0
BBX 3 4 2 4
BITMAP
E0
E0
E0
E0
ENDCHAR
STARTCHAR 2026
ENCODING 8230
SWIDTH 675 0
DWIDTH 15 0
BBX 13 3 1 0
BITMAP
E318
E738
E318
ENDCHAR
STARTCHAR 2030
ENCODING 8240
SWIDTH 1215 0
DWIDTH 27 0
BBX 25 16 1 0
BITMAP
380C0000
6C0C0000
C6180000
82300000
82300000
86600000
C4C00000
7CC00000
019F1F00
01313100
0321A180
0621A080
0421A080
0C21B180
18331300
101E0E00
ENDCHAR
STARTCHAR 2032
ENCODING 8242
SWIDTH 225 0
DWIDTH 5 0
BBX 2 6 1 10
BITMAP
C0
C0
C0
C0
C0
40
ENDCHAR
STARTCHAR 2033
ENCODING 8243
SWIDTH 405 0
DWIDTH 9 0
BBX 6 6 1 10
BITMAP
CC
CC
CC
C4
C4
44
ENDCHAR
STARTCHAR 2039
ENCODING 8249
SWIDTH 315 0
DWIDTH 7 0
BBX 5 9 1 1
BITMAP
18
30
60
60
C0
60
30
30
18
ENDCHAR
STARTCHAR 203A
ENCODING 8250
SWIDTH 315 0
DWIDTH 7 0
BBX 5 9 1 1
BITMAP
C0
60
30
30
18
30
60
C0
C0
ENDCHAR
STARTCHAR 2044
ENCODING 8260
SWIDTH 180 0
DWIDTH 4 0
BBX 12 16 -4 0
BITMAP
0030
0060
0040
00C0
0180
0100
0300
0600
0400
0C00
1800
1000
3000
6000
4000
C000
ENDCHAR
STARTCHAR 2052
ENCODING 8274
SWIDTH 540 0
DWIDTH 12 0
BBX 8 16 2 0
BITMAP
C2
C6
C6
04
0C
0C
08
18
18
10
30
30
20
62
43
43
ENDCHAR
STARTCHAR 2070
ENCODING 8304
SWIDTH 450 0
DWIDTH 10 0
BBX 8 9 1 8
BITMAP
3C
66
C3
83
83
83
C3
C6
7C
ENDCHAR
STARTCHAR 2074
ENCODING 8308
SWIDTH 450 0
DWIDTH 10 0
BBX 9 9 0 8
BITMAP
0400
0C00
1800
3000
2200
6200
FF80
0200
0200
ENDCHAR
STARTCHAR 2075
ENCODING 8309
SWIDTH 450 0
DWIDTH 10 0
BBX 7 9 1 8
BITMAP
7E
40
40
40
7C
06
02
86
FE
ENDCHAR
STARTCHAR 2076
ENCODING 8310
SWIDTH 450 0
DWIDTH 10 0
BBX 8 10 1 7
BITMAP
3E
72
C0
C0
BC
E6
C3
C3
66
3C
ENDCHAR
STARTCHAR 2077
ENCODING 8311
SWIDTH 450 0
DWIDTH 10 0
BBX 8 9 1 8
BITMAP
FF
83
86
06
0C
0C
18
10
30
ENDCHAR
STARTCHAR 2078
ENCODING 8312
SWIDTH 450 0
DWIDTH 10 0
BBX 8 10 1 7
BITMAP
7C
C6
83
C3
7E
C6
83
83
C7
7C
ENDCHAR
STARTCHAR 2079
ENCODING 8313
SWIDTH 450 0
DWIDTH 10 0
BBX 8 10 1 7
BITMAP
7C
C6
82
83
C7
7F
03
06
0E
F8
ENDCHAR
STARTCHAR 2080
ENCODING 8320
SWIDTH 450 0
DWIDTH 10 0
BBX 8 9 1 -2
BITMAP
3C
66
C3
83
83
83
C3
66
3C
ENDCHAR
STARTCHAR 2081
ENCODING 8321
SWIDTH 450 0
DWIDTH 10 0
BBX 6 9 2 -2
BITMAP
F0
30
30
30
30
30
30
30
FC
ENDCHAR
STARTCHAR 2082
ENCODING 8322
SWIDTH 450 0
DWIDTH 10 0
BBX 7 9 1 -2
BITMAP
7C
CE
06
06
0C
18
30
60
FE
ENDCHAR
STARTCHAR 2083
ENCODING 8323
SWIDTH 450 0
DWIDTH 10 0
BBX 7 9 1 -2
BITMAP
FE
06
0C
18
3C
02
02
C6
7C
ENDCHAR
STARTCHAR 2084
ENCODING 8324
SWIDTH 450 0
DWIDTH 10 0
BBX 9 9 0 -2
BITMAP
0400
0C00
1800
3000
2200
6200
FF80
0200
0200
ENDCHAR
STARTCHAR 2085
ENCODING 8325
SWIDTH 450 0
DWIDTH 10 0
BBX 7 9 1 -2
BITMAP
7E
40
40
40
FE
02
02
C6
7C
ENDCHAR
STARTCHAR 2086
ENCODING 8326
SWIDTH 450 0
DWIDTH 10 0
BBX 8 9 1 -2
BITMAP
3E
72
C0
C0
BE
C3
C3
62
3C
ENDCHAR
STARTCHAR 2087
ENCODING 8327
SWIDTH 450 0
DWIDTH 10 0
BBX 8 9 1 -2
BITMAP
FF
83
86
06
0C
08
18
10
30
ENDCHAR
STARTCHAR 2088
ENCODING 8328
SWIDTH 450 0
DWIDTH 10 0
BBX 8 9 1 -2
BITMAP
7E
C2
83
C6
7C
C3
83
C3
7C
ENDCHAR
STARTCHAR 2089
ENCODING 8329
SWIDTH 450 0
DWIDTH 10 0
BBX 8 9 1 -2
BITMAP
7C
C6
82
83
C7
7B
02
0E
F8
ENDCHAR
STARTCHAR 20A1
ENCODING 8353
SWIDTH 720 0
DWIDTH 16 0
BBX 14 22 1 -3
BITMAP
0018
0098
0090
07F0
1FF8
3D3C
7128
6320
E260
C260
C240
C640
C4C0
E4C0
6480
7C88
3D9C
1FF8
0FE0
1900
1300
1300
ENDCHAR
STARTCHAR 20A3
ENCODING 8355
SWIDTH 675 0
DWIDTH 15 0
BBX 13 16 1 0
BITMAP
3FF8
3FF8
3000
3000
3000
3000
3000
3000
3FF0
3FF0
3000
3000
FF80
3000
3000
3000
ENDCHAR
STARTCHAR 20A4
ENCODING 8356
SWIDTH 630 0
DWIDTH 14 0
BBX 13 16 1 0
BITMAP
03F0
0FF8
1C10
1800
3000
3000
FFC0
3000
3000
FFC0
3000
3000
3000
3000
FFF8
FFF8
ENDCHAR
STARTCHAR 20A6
ENCODING 8358
SWIDTH 900 0
DWIDTH 20 0
BBX 18 16 1 0
BITMAP
300600
380600
3C0600
3E0600
360600
370600
FFFFC0
31C600
30E600
FFFFC0
307600
303E00
301E00
300E00
300E00
300600
ENDCHAR
STARTCHAR 20A7
ENCODING 8359
SWIDTH 1620 0
DWIDTH 36 0
BBX 34 16 2 0
BITMAP
FF80000000
FFE0E00000
E070E00000
E038E00000
E01BFC3F00
E01BFC7F80
E018E0E080
E038E0C000
E070E0E000
FFE0E07E00
FF80E01F80
E000E001C0
E000E000C0
E00060C1C0
E0007CFF80
E0003C3F00
ENDCHAR
STARTCHAR 20A9
ENCODING 8361
SWIDTH 1215 0
DWIDTH 27 0
BBX 25 16 1 0
BITMAP
C01C0300
601C0300
603C0700
603E0600
30360600
30660E00
FFFFFF80
18630C00
18C31C00
FFFFFF80
0CC19800
0D81B800
0D81F000
0780F000
0700F000
07006000
ENDCHAR
STARTCHAR 20AB
ENCODING 8363
SWIDTH 675 0
DWIDTH 15 0
BBX 14 20 1 -3
BITMAP
0030
0030
07FC
0030
0030
1F30
3FF0
70F0
E070
C030
C030
C030
C030
E070
70F0
3FF0
1F30
0000
0000
FFF0
ENDCHAR
STARTCHAR 20AC
ENCODING 8364
SWIDTH 810 0
DWIDTH 18 0
BBX 16 16 1 0
BITMAP
01F8
07FE
0F07
1C02
1800
3800
FFF0
3000
3000
FFF0
3800
1800
1C02
0F07
07FE
01F8
ENDCHAR
STARTCHAR 20AD
ENCODING 8365
SWIDTH 675 0
DWIDTH 15 0
BBX 13 16 1 0
BITMAP
3018
3030
3060
30E0
31C0
3380
3700
FFF0
3600
3300
3380
31C0
30E0
3070
3030
3018
ENDCHAR
STARTCHAR 20AE
ENCODING 8366
SWIDTH 675 0
DWIDTH 15 0
BBX 13 16 1 0
BITMAP
FFF8
FFF8
0700
0700
0700
0760
0780
0700
1F60
27C0
0700
1F00
3700
0700
0700
0700
ENDCHAR
STARTCHAR 20B1
ENCODING 8369
SWIDTH 855 0
DWIDTH 19 0
BBX 17 16 1 0
BITMAP
3FE000
3FF800
301C00
FFFF80
300E00
300E00
300E00
FFFF80
301C00
3FF800
3FE000
300000
300000
300000
300000
300000
ENDCHAR
STARTCHAR 20B2
ENCODING 8370
SWIDTH 765 0
DWIDTH 17 0
BBX 14 21 1 -3
BITMAP
0180
0180
07F0
1FFC
398C
7180
6180
E180
C180
C180
C18C
C18C
E18C
618C
718C
3D9C
1FFC
07F0
0180
0180
0180
ENDCHAR
STARTCHAR 20B4
ENCODING 8372
SWIDTH 810 0
DWIDTH 18 0
BBX 14 16 2 0
BITMAP
0FC0
3FF0
3030
0038
0018
0038
FFFC
0000
0000
FFFC
7000
6000
7008
3818
1FF8
0FE0
ENDCHAR
STARTCHAR 20B5
ENCODING 8373
SWIDTH 720 0
DWIDTH 16 0
BBX 14 21 1 -3
BITMAP
0180
0180
07E0
1FF8
3D9C
7188
6180
E180
C180
C180
C180
C180
E180
6180
7188
3D9C
1FF8
07E0
0180
0180
0180
ENDCHAR
STARTCHAR 20B8
ENCODING 8376
SWIDTH 720 0
DWIDTH 16 0
BBX 13 16 2 0
BITMAP
FFF8
0000
0000
FFF8
0600
0600
0600
0600
0600
0600
0600
0600
0600
0600
0600
0600
ENDCHAR
STARTCHAR 20B9
ENCODING 8377
SWIDTH 720 0
DWIDTH 16 0
BBX 14 16 1 0
BITMAP
FFFC
01C0
0060
FFFC
0070
0070
0060
00E0
7FC0
7F00
0380
0180
01C0
00C0
0060
0070
ENDCHAR
STARTCHAR 20BA
ENCODING 8378
SWIDTH 720 0
DWIDTH 16 0
BBX 14 16 1 0
BITMAP
3000
3040
31C0
3700
3C00
30C0
F300
BE00
380C
F00C
B01C
3018
3038
3070
3FE0
3F80
ENDCHAR
STARTCHAR 20BC
ENCODING 8380
SWIDTH 900 0
DWIDTH 20 0
BBX 16 19 2 0
BITMAP
0180
0180
0180
07E0
1FF8
399C
318E
6186
6187
6183
C183
C183
C183
C183
C183
C183
C003
C003
C003
ENDCHAR
STARTCHAR 20BD
ENCODING 8381
SWIDTH 765 0
DWIDTH 17 0
BBX 14 16 1 0
BITMAP
3FE0
3FF8
301C
300C
300C
300C
300C
300C
301C
3FF8
3FE0
3000
FF80
3000
3000
3000
ENDCHAR
STARTCHAR 2113
ENCODING 8467
SWIDTH 450 0
DWIDTH 10 0
BBX 9 16 1 0
BITMAP
0700
0900
1980
1100
1100
3300
3200
2600
2C00
3800
3000
E000
E000
6100
3E00
3C00
ENDCHAR
STARTCHAR 2116
ENCODING 8470
SWIDTH 1215 0
DWIDTH 27 0
BBX 24 16 2 0
BITMAP
E01C3C
E01CE6
F01C82
F81C83
FC1C83
EC1CC6
EE1C7C
E71C00
E39C00
E1DCFE
E0DC00
E0FC00
E07C00
E03C00
E01C00
E01C00
ENDCHAR
STARTCHAR 2122
ENCODING 8482
SWIDTH 1035 0
DWIDTH 23 0
BBX 21 9 0 7
BITMAP
FF2018
183038
183838
182858
182CD8
182698
182398
182318
182018
ENDCHAR
STARTCHAR 2126
ENCODING 8486
SWIDTH 900 0
DWIDTH 20 0
BBX 20 16 0 0
BITMAP
01F800
07FE00
0E0700
1C0380
380180
3000C0
3000C0
3000C0
3000C0
3000C0
3000C0
180180
1C0380
0E0700
FF0FF0
FF0FF0
ENDCHAR
STARTCHAR 212A
ENCODING 8490
SWIDTH 720 0
DWIDTH 16 0
BBX 14 16 2 0
BITMAP
E018
E030
E060
E0C0
E180
E300
E700
EE00
FF00
FB80
F1C0
E0C0
E0E0
E070
E038
E01C
ENDCHAR
STARTCHAR 212B
ENCODING 8491
SWIDTH 720 0
DWIDTH 16 0
BBX 16 22 0 0
BITMAP
01C0
0240
0220
0240
01C0
0000
0180
03C0
03C0
0760
0660
0670
0C30
0C38
1818
1818
3FFC
3FFC
300E
6006
6007
C003
ENDCHAR
STARTCHAR 212E
ENCODING 8494
SWIDTH 900 0
DWIDTH 20 0
BBX 17 16 1 0
BITMAP
03F000
0C0C00
300200
200300
600380
E00380
E00380
E00380
FFFC00
E00000
600000
600000
200000
100200
080C00
07F000
ENDCHAR
STARTCHAR 2153
ENCODING 8531
SWIDTH 1035 0
DWIDTH 23 0
BBX 20 16 2 0
BITMAP
F00200
300600
300C00
300800
301800
303000
302FE0
306060
FCC0C0
008180
0181E0
030030
020030
060030
0C0E60
0807C0
ENDCHAR
STARTCHAR 2154
ENCODING 8532
SWIDTH 1035 0
DWIDTH 23 0
BBX 21 16 1 0
BITMAP
7C0100
CE0300
060600
060400
0C0C00
181800
3017F0
603030
FE6020
004060
00C0C0
0180F0
010018
030018
060630
0403E0
ENDCHAR
STARTCHAR 215B
ENCODING 8539
SWIDTH 1035 0
DWIDTH 23 0
BBX 20 16 2 0
BITMAP
F00200
300600
300C00
300800
301800
303000
3023E0
306630
FCCC30
008C30
018670
0303E0
020C30
060C10
0C0C30
0803E0
ENDCHAR
STARTCHAR 215C
ENCODING 8540
SWIDTH 1035 0
DWIDTH 23 0
BBX 21 16 1 0
BITMAP
FE0100
060300
0C0600
180400
3C0C00
021800
0211F0
C63318
FC6618
004618
00C318
0181F0
010618
030608
060618
0401F0
ENDCHAR
STARTCHAR 215D
ENCODING 8541
SWIDTH 1035 0
DWIDTH 23 0
BBX 21 16 1 0
BITMAP
7E0100
400300
400600
400400
7C0C00
061800
021000
0233F0
C66218
7C4618
00C318
0181F0
010618
030608
060618
0401F0
ENDCHAR
STARTCHAR 215E
ENCODING 8542
SWIDTH 1035 0
DWIDTH 23 0
BBX 21 16 1 0
BITMAP
FF0100
830300
860600
060400
0C0C00
0C1800
1811F0
183318
306618
304618
00C318
0181F0
010618
030608
060618
0401F0
ENDCHAR
STARTCHAR 2190
ENCODING 8592
SWIDTH 585 0
DWIDTH 13 0
BBX 10 9 2 2
BITMAP
1800
3000
3000
6000
FFC0
7FC0
6000
3000
1800
ENDCHAR
STARTCHAR 2191
ENCODING 8593
SWIDTH 585 0
DWIDTH 13 0
BBX 9 10 2 1
BITMAP
0800
3E00
7F00
CD80
8C00
0C00
0C00
0C00
0C00
0C00
ENDCHAR
STARTCHAR 2192
ENCODING 8594
SWIDTH 585 0
DWIDTH 13 0
BBX 10 9 1 2
BITMAP
0600
0300
0180
0180
FFC0
FFC0
0180
0300
0300
ENDCHAR
STARTCHAR 2193
ENCODING 8595
SWIDTH 585 0
DWIDTH 13 0
BBX 9 10 2 1
BITMAP
0C00
0C00
0C00
0C00
0C00
8C80
ED80
7F00
1E00
0800
ENDCHAR
STARTCHAR 2194
ENCODING 8596
SWIDTH 720 0
DWIDTH 16 0
BBX 14 9 1 2
BITMAP
1860
3030
3018
6018
FFFC
7FFC
6018
3030
1830
ENDCHAR
STARTCHAR 2195
ENCODING 8597
SWIDTH 585 0
DWIDTH 13 0
BBX 9 13 2 2
BITMAP
1C00
3F00
EF80
CC80
0C00
0C00
0C00
0C00
8C80
CD80
7F00
3E00
0800
ENDCHAR
STARTCHAR 2196
ENCODING 8598
SWIDTH 585 0
DWIDTH 13 0
BBX 8 9 3 2
BITMAP
04
FE
E0
F0
B8
9C
8E
87
02
ENDCHAR
STARTCHAR 2197
ENCODING 8599
SWIDTH 585 0
DWIDTH 13 0
BBX 8 9 3 2
BITMAP
20
7E
0E
0F
1B
33
61
C1
80
ENDCHAR
STARTCHAR 2198
ENCODING 8600
SWIDTH 585 0
DWIDTH 13 0
BBX 8 8 3 3
BITMAP
C0
61
33
1B
0F
06
7E
70
ENDCHAR
STARTCHAR 2199
ENCODING 8601
SWIDTH 585 0
DWIDTH 13 0
BBX 9 8 2 3
BITMAP
4180
C300
4600
4C00
7800
7000
7E00
0F00
ENDCHAR
STARTCHAR 2202
ENCODING 8706
SWIDTH 720 0
DWIDTH 16 0
BBX 12 16 2 0
BITMAP
7E00
7F80
01C0
00E0
0060
0030
1F30
7FB0
E0F0
C070
C070
C060
C060
E0C0
7FC0
1F00
ENDCHAR
STARTCHAR 2205
ENCODING 8709
SWIDTH 585 0
DWIDTH 13 0
BBX 11 11 1 2
BITMAP
0020
1F60
3BC0
61C0
4240
4440
4840
70C0
3180
5F00
8000
ENDCHAR
STARTCHAR 2206
ENCODING 8710
SWIDTH 720 0
DWIDTH 16 0
BBX 16 16 0 0
BITMAP
0180
03C0
03C0
0760
0660
0670
0C30
0C38
1818
1818
380C
300C
300E
6006
7FFF
FFFF
ENDCHAR
STARTCHAR 220F
ENCODING 8719
SWIDTH 810 0
DWIDTH 18 0
BBX 14 21 2 -5
BITMAP
FFFC
FFFC
E01C
E01C
E01C
E01C
E01C
E01C
E01C
E01C
E01C
E01C
E01C
E01C
E01C
E01C
E01C
E01C
E01C
E01C
E01C
ENDCHAR
STARTCHAR 2211
ENCODING 8721
SWIDTH 675 0
DWIDTH 15 0
BBX 13 21 1 -5
BITMAP
FFF8
FFF8
7000
3000
1800
1C00
0E00
0700
0300
0380
0180
0380
0300
0700
0E00
1C00
3800
3000
6000
FFF8
FFF8
ENDCHAR
STARTCHAR 2212
ENCODING 8722
SWIDTH 585 0
DWIDTH 13 0
BBX 10 2 1 7
BITMAP
FFC0
FFC0
ENDCHAR
STARTCHAR 2215
ENCODING 8725
SWIDTH 360 0
DWIDTH 8 0
BBX 8 21 0 -2
BITMAP
01
03
03
02
06
06
0C
0C
0C
18
18
18
30
30
30
60
60
60
C0
C0
80
ENDCHAR
STARTCHAR 2219
ENCODING 8729
SWIDTH 270 0
DWIDTH 6 0
BBX 3 3 2 6
BITMAP
C0
E0
C0
ENDCHAR
STARTCHAR 221A
ENCODING 8730
SWIDTH 810 0
DWIDTH 18 0
BBX 17 22 1 -5
BITMAP
000180
000300
000300
000300
000600
000600
000600
000C00
F80C00
F80C00
0C1800
0C1800
0C1800
063000
063000
063000
037000
036000
036000
01E000
01C000
01C000
ENDCHAR
STARTCHAR 221E
ENCODING 8734
SWIDTH 945 0
DWIDTH 21 0
BBX 19 9 1 3
BITMAP
3E0F00
7F3FC0
C1B0C0
C0E040
C0C060
C0E040
E3B0C0
7F1F80
1C0600
ENDCHAR
STARTCHAR 222B
ENCODING 8747
SWIDTH 405 0
DWIDTH 9 0
BBX 9 22 0 -5
BITMAP
0780
0F80
0C00
1C00
1800
1800
1800
1800
1800
1800
1800
1800
1800
1800
1800
1800
1800
1800
1800
1800
F800
F000
ENDCHAR
STARTCHAR 2248
ENCODING 8776
SWIDTH 585 0
DWIDTH 13 0
BBX 11 9 1 4
BITMAP
7860
4C40
C7C0
0180
0000
7860
4C40
C7C0
0180
ENDCHAR
STARTCHAR 2260
ENCODING 8800
SWIDTH 585 0
DWIDTH 13 0
BBX 10 12 1 2
BITMAP
00C0
0180
0180
FFC0
FFC0
0600
0400
0C00
FFC0
FFC0
3000
3000
ENDCHAR
STARTCHAR 2264
ENCODING 8804
SWIDTH 585 0
DWIDTH 13 0
BBX 10 14 1 0
BITMAP
0040
01C0
0F80
3C00
F000
F000
3E00
0F80
01C0
0040
0000
0000
FFC0
FFC0
ENDCHAR
STARTCHAR 2265
ENCODING 8805
SWIDTH 585 0
DWIDTH 13 0
BBX 10 14 1 0
BITMAP
C000
F000
3E00
0F80
01C0
01C0
0F80
3E00
F000
C000
0000
0000
FFC0
FFC0
ENDCHAR
STARTCHAR 25A0
ENCODING 9632
SWIDTH 585 0
DWIDTH 13 0
BBX 9 9 2 1
BITMAP
FF80
FF80
FF80
FF80
FF80
FF80
FF80
FF80
FF80
ENDCHAR
STARTCHAR 25A1
ENCODING 9633
SWIDTH 585 0
DWIDTH 13 0
BBX 9 8 2 2
BITMAP
FF80
C080
C080
C080
C080
C080
C080
FF80
ENDCHAR
STARTCHAR 25B2
ENCODING 9650
SWIDTH 585 0
DWIDTH 13 0
BBX 9 9 2 1
BITMAP
0800
0C00
1C00
1E00
3E00
3F00
7F00
7F80
FF80
ENDCHAR
STARTCHAR 25B3
ENCODING 9651
SWIDTH 585 0
DWIDTH 13 0
BBX 9 9 2 1
BITMAP
0800
0C00
1400
1600
2200
2100
4100
4080
FF80
ENDCHAR
STARTCHAR 25B6
ENCODING 9654
SWIDTH 585 0
DWIDTH 13 0
BBX 9 9 3 1
BITMAP
8000
E000
F800
FE00
FF80
FE00
F800
E000
8000
ENDCHAR
STARTCHAR 25B7
ENCODING 9655
SWIDTH 585 0
DWIDTH 13 0
BBX 9 9 3 1
BITMAP
8000
E000
9800
8600
8380
8E00
B800
E000
8000
ENDCHAR
STARTCHAR 25BC
ENCODING 9660
SWIDTH 585 0
DWIDTH 13 0
BBX 9 9 2 1
BITMAP
FF80
7F00
7F00
3E00
3E00
1C00
1C00
0800
0800
ENDCHAR
STARTCHAR 25BD
ENCODING 9661
SWIDTH 585 0
DWIDTH 13 0
BBX 9 9 2 2
BITMAP
FF80
4080
4100
2100
2200
1600
1400
0C00
0800
ENDCHAR
STARTCHAR 25C0
ENCODING 9664
SWIDTH 585 0
DWIDTH 13 0
BBX 9 9 2 1
BITMAP
0180
0780
1F80
7F80
FF80
3F80
0F80
0380
0080
ENDCHAR
STARTCHAR 25C1
ENCODING 9665
SWIDTH 585 0
DWIDTH 13 0
BBX 9 9 2 1
BITMAP
0180
0680
1880
6080
C080
3080
0C80
0380
0080
ENDCHAR
STARTCHAR 25C6
ENCODING 9670
SWIDTH 585 0
DWIDTH 13 0
BBX 11 12 1 0
BITMAP
0400
0E00
1F00
3F80
7FC0
FFE0
FFE0
7FC0
3F80
1F00
0E00
0400
ENDCHAR
STARTCHAR 25C7
ENCODING 9671
SWIDTH 585 0
DWIDTH 13 0
BBX 11 12 1 0
BITMAP
0400
0E00
1B00
3180
60C0
C020
C020
6040
3180
1B00
0E00
0400
ENDCHAR
STARTCHAR 25CA
ENCODING 9674
SWIDTH 495 0
DWIDTH 11 0
BBX 9 14 1 0
BITMAP
0800
0C00
1400
3600
2300
4100
C180
C180
6100
2200
3600
1C00
0800
0800
ENDCHAR
STARTCHAR 27E8
ENCODING 10216
SWIDTH 315 0
DWIDTH 7 0
BBX 5 22 1 -5
BITMAP
18
18
18
30
30
30
60
60
60
C0
C0
C0
C0
60
60
60
30
30
30
18
18
18
ENDCHAR
STARTCHAR 27E9
ENCODING 10217
SWIDTH 315 0
DWIDTH 7 0
BBX 5 22 1 -5
BITMAP
C0
C0
60
60
60
30
30
30
18
18
18
18
18
18
30
30
30
60
60
60
C0
C0
ENDCHAR
STARTCHAR A78B
ENCODING 42891
SWIDTH 270 0
DWIDTH 6 0
BBX 2 9 2 7
BITMAP
C0
C0
C0
C0
C0
C0
C0
C0
C0
ENDCHAR
STARTCHAR A78C
ENCODING 42892
SWIDTH 270 0
DWIDTH 6 0
BBX 2 8 2 7
BITMAP
C0
C0
C0
C0
C0
C0
C0
C0
ENDCHAR
STARTCHAR FB01
ENCODING 64257
SWIDTH 720 0
DWIDTH 16 0
BBX 14 17 0 0
BITMAP
0F0C
1F1C
180C
3000
3000
FF0C
FF0C
300C
300C
300C
300C
300C
300C
300C
300C
300C
300C
ENDCHAR
STARTCHAR FB02
ENCODING 64258
SWIDTH 630 0
DWIDTH 14 0
BBX 12 17 0 0
BITMAP
0F30
1F30
1830
3030
3030
FF30
FF30
3030
3030
3030
3030
3030
3030
3030
3030
3030
3030
ENDCHAR
ENDFONT
